{"glyphs":{"0":{"ha":950,"x_min":69,"x_max":881,"o":"m 475 -12 q 301 29 376 -12 q 174 144 225 71 q 96 313 122 218 q 69 515 69 408 q 96 717 69 622 q 174 886 122 813 q 301 1001 225 960 q 475 1043 376 1043 q 649 1001 574 1043 q 776 886 725 960 q 854 717 828 813 q 881 515 881 622 q 854 313 881 408 q 776 144 828 218 q 649 29 725 71 q 475 -12 574 -12 m 475 133 q 646 230 578 133 q 714 515 714 326 q 646 799 714 703 q 475 894 578 894 q 304 799 372 894 q 236 515 236 703 q 303 231 236 328 q 475 133 371 133 z "},"1":{"ha":556,"x_min":57,"x_max":411,"o":"m 411 1028 l 411 0 l 251 0 l 251 776 l 57 775 l 57 871 l 90 881 q 216 933 168 904 q 307 1014 264 963 l 319 1028 l 411 1028 z "},"2":{"ha":910,"x_min":97,"x_max":822,"o":"m 101 0 l 101 113 l 311 303 q 485 458 411 392 q 599 584 558 524 q 640 717 640 644 q 613 814 640 774 q 542 876 585 854 q 451 897 499 897 q 358 878 394 897 q 299 831 321 860 q 268 773 278 803 q 256 720 258 743 q 253 692 253 697 l 97 692 q 103 747 97 707 q 130 837 110 788 q 190 933 150 886 q 294 1011 229 981 q 456 1042 358 1042 q 628 1004 549 1042 q 755 895 707 967 q 803 722 803 824 q 756 553 803 629 q 631 405 710 478 q 457 249 553 332 l 342 144 l 822 144 l 822 0 l 101 0 z "},"3":{"ha":926,"x_min":93,"x_max":824,"o":"m 458 -14 q 261 31 343 -14 q 136 149 179 75 q 93 311 93 222 l 246 311 q 306 174 246 225 q 458 122 365 122 q 560 143 514 122 q 635 204 607 164 q 663 301 663 244 q 613 419 663 375 q 476 464 563 464 l 338 464 l 338 590 l 476 590 q 598 633 549 590 q 647 743 647 675 q 622 830 647 793 q 553 887 596 867 q 458 907 510 907 q 319 853 375 907 q 263 715 263 800 l 113 715 q 154 877 113 803 q 274 997 196 951 q 461 1042 353 1042 q 627 1008 549 1042 q 755 910 706 974 q 804 757 804 846 q 759 614 804 671 q 653 533 714 557 l 653 526 q 774 443 725 501 q 824 294 824 385 q 773 128 824 197 q 639 23 722 60 q 458 -14 556 -14 z "},"4":{"ha":990,"x_min":71,"x_max":906,"o":"m 571 0 l 571 229 l 71 231 l 71 375 l 535 1028 l 733 1028 l 733 368 l 906 368 l 906 229 l 733 229 l 733 0 l 571 0 m 235 368 l 571 368 l 571 844 l 235 368 z "},"5":{"ha":926,"x_min":88,"x_max":838,"o":"m 458 -14 q 294 15 360 -14 q 187 87 228 43 q 124 176 146 131 q 95 258 103 222 q 88 307 88 294 l 239 307 q 242 288 239 307 q 256 242 246 269 q 290 187 267 214 q 354 141 314 160 q 457 122 394 122 q 581 154 532 122 q 655 236 631 186 q 679 342 679 286 q 655 449 679 397 q 582 534 631 501 q 463 567 533 567 q 370 549 407 567 q 312 508 333 531 q 281 467 290 485 q 272 449 272 449 l 113 449 l 197 1028 l 767 1028 l 767 885 l 313 885 l 274 611 l 278 611 q 315 645 290 625 q 383 681 340 665 q 492 697 425 697 q 681 647 604 697 q 798 515 758 596 q 838 344 838 433 q 814 214 838 278 q 744 99 790 150 q 626 17 697 47 q 458 -14 554 -14 z "},"6":{"ha":954,"x_min":97,"x_max":857,"o":"m 493 -14 q 317 24 392 -14 q 193 127 242 61 q 121 278 144 193 q 97 456 97 363 q 115 615 97 533 q 170 774 132 697 q 269 910 208 850 q 417 1006 331 971 q 618 1042 503 1042 q 729 1032 682 1042 q 776 1022 776 1022 l 776 876 q 752 881 776 876 q 691 890 728 885 q 617 894 654 894 q 453 860 519 894 q 346 772 386 825 q 287 660 306 718 q 265 553 268 601 q 306 601 276 572 q 386 653 335 631 q 518 676 438 676 q 706 627 631 676 q 819 501 781 578 q 857 339 857 424 q 834 210 857 272 q 766 97 811 147 q 653 16 721 46 q 493 -14 585 -14 m 492 122 q 593 147 546 122 q 669 218 640 171 q 699 333 699 265 q 669 449 699 401 q 593 520 640 496 q 492 544 546 544 q 390 520 438 544 q 314 449 343 496 q 285 333 285 401 q 314 218 285 265 q 390 147 343 171 q 492 122 438 122 z "},"7":{"ha":826,"x_min":68,"x_max":788,"o":"m 239 0 q 274 249 244 131 q 347 467 303 367 q 439 650 390 568 q 532 792 488 732 q 604 885 576 851 l 68 885 l 68 1028 l 788 1028 l 788 910 q 761 880 788 910 q 692 793 735 850 q 601 656 650 736 q 509 474 553 575 q 435 253 465 372 q 400 0 404 135 l 239 0 z "},"8":{"ha":896,"x_min":81,"x_max":815,"o":"m 447 -14 q 258 24 340 -14 q 128 129 175 63 q 81 283 81 196 q 108 408 81 358 q 170 485 135 457 q 233 526 206 514 q 260 539 260 539 l 260 547 q 236 558 260 547 q 183 593 213 568 q 130 660 153 618 q 107 763 107 701 q 150 907 107 844 q 270 1006 193 969 q 447 1042 347 1042 q 626 1006 549 1042 q 746 907 703 969 q 789 764 789 844 q 766 660 789 701 q 713 593 743 618 q 659 558 682 568 q 636 547 636 547 l 636 539 q 663 526 636 539 q 726 485 690 514 q 788 408 761 457 q 815 283 815 358 q 768 129 815 196 q 638 24 721 63 q 447 -14 556 -14 m 447 601 q 586 649 538 601 q 635 757 635 697 q 586 867 635 819 q 447 915 538 915 q 310 867 358 915 q 261 757 261 819 q 310 649 261 697 q 447 601 358 601 m 447 115 q 565 142 518 115 q 637 212 613 169 q 661 300 661 254 q 638 385 661 344 q 567 453 614 426 q 447 479 519 479 q 329 453 376 479 q 258 385 282 426 q 235 300 235 344 q 259 212 235 254 q 331 142 283 169 q 447 115 378 115 z "},"9":{"ha":954,"x_min":97,"x_max":857,"o":"m 460 1042 q 637 1004 563 1042 q 760 901 711 967 q 833 750 808 835 q 857 572 857 665 q 839 413 857 494 q 783 254 821 331 q 685 117 746 178 q 537 22 624 57 q 335 -14 450 -14 q 224 -4 271 -14 q 176 6 176 6 l 176 151 q 201 147 176 151 q 263 138 225 143 q 338 133 300 133 q 501 168 435 133 q 607 256 567 203 q 667 368 647 310 q 689 475 686 426 q 648 426 676 456 q 567 374 619 397 q 436 351 515 351 q 248 401 324 351 q 135 527 172 450 q 97 689 97 604 q 120 818 97 756 q 188 931 143 881 q 301 1012 233 982 q 460 1042 369 1042 m 463 906 q 360 881 408 906 q 283 810 313 857 q 254 694 254 763 q 283 579 254 626 q 360 508 313 532 q 463 483 408 483 q 564 508 517 483 q 640 579 611 532 q 669 694 669 626 q 640 810 669 763 q 564 881 611 857 q 463 906 517 906 z "},"A":{"ha":1038,"x_min":56,"x_max":982,"o":"m 56 0 l 414 1028 l 622 1028 l 982 0 l 811 0 l 732 231 l 306 231 l 226 0 l 56 0 m 354 375 l 683 375 l 519 854 l 354 375 z "},"Á":{"ha":1038,"x_min":56,"x_max":982,"o":"m 582 1136 l 456 1138 l 572 1388 l 728 1388 l 582 1136 m 56 0 l 414 1028 l 622 1028 l 982 0 l 811 0 l 731 231 l 307 231 l 226 0 l 56 0 m 354 375 l 683 375 l 519 854 l 354 375 z "},"Ă":{"ha":1038,"x_min":56,"x_max":982,"o":"m 519 1128 q 406 1149 450 1128 q 338 1200 363 1169 q 303 1261 314 1231 q 290 1312 292 1292 q 288 1332 288 1332 l 399 1332 q 402 1316 399 1332 q 417 1279 406 1300 q 452 1242 428 1258 q 519 1226 476 1226 q 585 1242 561 1226 q 622 1279 610 1258 q 636 1316 633 1300 q 639 1332 639 1332 l 750 1332 q 748 1312 750 1332 q 735 1261 746 1292 q 700 1200 725 1231 q 631 1149 675 1169 q 519 1128 588 1128 m 56 0 l 414 1028 l 622 1028 l 982 0 l 811 0 l 731 231 l 307 231 l 226 0 l 56 0 m 354 375 l 683 375 l 519 854 l 354 375 z "},"Ắ":{"ha":1038,"x_min":56,"x_max":982,"o":"m 582 1372 l 456 1374 l 572 1624 l 728 1624 l 582 1372 m 519 1128 q 406 1149 450 1128 q 338 1200 363 1169 q 303 1261 314 1231 q 290 1312 292 1292 q 288 1332 288 1332 l 399 1332 q 402 1316 399 1332 q 417 1279 406 1300 q 452 1242 428 1258 q 519 1226 476 1226 q 585 1242 561 1226 q 622 1279 610 1258 q 636 1316 633 1300 q 639 1332 639 1332 l 750 1332 q 748 1312 750 1332 q 735 1261 746 1292 q 700 1200 725 1231 q 631 1149 675 1169 q 519 1128 588 1128 m 56 0 l 414 1028 l 622 1028 l 982 0 l 811 0 l 731 231 l 307 231 l 226 0 l 56 0 m 354 375 l 683 375 l 519 854 l 354 375 z "},"Ặ":{"ha":1038,"x_min":56,"x_max":982,"o":"m 519 1128 q 406 1149 450 1128 q 338 1200 363 1169 q 303 1261 314 1231 q 290 1312 292 1292 q 288 1332 288 1332 l 399 1332 q 402 1316 399 1332 q 417 1279 406 1300 q 452 1242 428 1258 q 519 1226 476 1226 q 585 1242 561 1226 q 622 1279 610 1258 q 636 1316 633 1300 q 639 1332 639 1332 l 750 1332 q 748 1312 750 1332 q 735 1261 746 1292 q 700 1200 725 1231 q 631 1149 675 1169 q 519 1128 588 1128 m 56 0 l 414 1028 l 622 1028 l 982 0 l 811 0 l 731 231 l 307 231 l 226 0 l 56 0 m 354 375 l 683 375 l 519 854 l 354 375 m 519 -325 q 449 -296 476 -325 q 422 -228 422 -267 q 449 -159 422 -187 q 519 -131 476 -131 q 588 -159 560 -131 q 615 -228 615 -187 q 588 -297 615 -268 q 519 -325 560 -325 z "},"Ằ":{"ha":1038,"x_min":56,"x_max":982,"o":"m 458 1372 l 313 1624 l 468 1624 l 586 1374 l 458 1372 m 517 1128 q 403 1149 447 1128 q 335 1200 360 1169 q 301 1261 311 1231 q 288 1312 290 1292 q 285 1332 285 1332 l 397 1332 q 400 1316 397 1332 q 414 1279 403 1300 q 449 1242 425 1258 q 517 1226 474 1226 q 584 1242 560 1226 q 619 1279 608 1258 q 633 1316 631 1300 q 636 1332 636 1332 l 749 1332 q 746 1312 749 1332 q 733 1261 743 1292 q 698 1200 722 1231 q 630 1149 674 1169 q 517 1128 586 1128 m 56 0 l 414 1028 l 622 1028 l 982 0 l 811 0 l 731 231 l 307 231 l 226 0 l 56 0 m 354 375 l 683 375 l 519 854 l 354 375 z "},"Ẳ":{"ha":1038,"x_min":56,"x_max":982,"o":"m 467 1361 l 467 1406 q 473 1435 467 1421 q 497 1458 479 1450 l 517 1469 q 579 1538 579 1500 q 565 1572 579 1557 q 522 1588 551 1588 q 482 1576 494 1588 q 466 1549 469 1564 q 463 1529 463 1535 l 361 1529 q 376 1598 360 1564 q 428 1654 393 1632 q 521 1676 464 1676 q 642 1637 597 1676 q 686 1542 686 1597 q 574 1404 686 1460 l 568 1401 l 568 1361 l 467 1361 m 517 1128 q 403 1149 447 1128 q 335 1200 360 1169 q 301 1261 311 1231 q 288 1312 290 1292 q 285 1332 285 1332 l 397 1332 q 400 1316 397 1332 q 414 1279 403 1300 q 449 1242 425 1258 q 517 1226 474 1226 q 584 1242 560 1226 q 619 1279 608 1258 q 633 1316 631 1300 q 636 1332 636 1332 l 749 1332 q 746 1312 749 1332 q 733 1261 743 1292 q 698 1200 722 1231 q 630 1149 674 1169 q 517 1128 586 1128 m 56 0 l 414 1028 l 622 1028 l 982 0 l 811 0 l 731 231 l 307 231 l 226 0 l 56 0 m 354 375 l 683 375 l 519 854 l 354 375 z "},"Ẵ":{"ha":1038,"x_min":56,"x_max":982,"o":"m 617 1396 q 553 1409 579 1396 q 507 1440 526 1422 q 471 1472 488 1458 q 435 1485 454 1485 q 401 1463 411 1485 q 392 1404 392 1440 l 294 1404 q 306 1491 294 1447 q 344 1563 317 1535 q 425 1592 372 1592 q 489 1578 463 1592 q 535 1547 515 1564 q 571 1516 554 1529 q 607 1503 588 1503 q 638 1524 628 1503 q 649 1583 649 1546 l 744 1583 q 734 1497 744 1540 q 696 1424 724 1453 q 617 1396 668 1396 m 519 1128 q 406 1149 450 1128 q 338 1200 363 1169 q 303 1261 314 1231 q 290 1312 292 1292 q 288 1332 288 1332 l 399 1332 q 402 1316 399 1332 q 417 1279 406 1300 q 452 1242 428 1258 q 519 1226 476 1226 q 585 1242 561 1226 q 622 1279 610 1258 q 636 1316 633 1300 q 639 1332 639 1332 l 750 1332 q 748 1312 750 1332 q 735 1261 746 1292 q 700 1200 725 1231 q 631 1149 675 1169 q 519 1128 588 1128 m 56 0 l 414 1028 l 622 1028 l 982 0 l 811 0 l 731 231 l 307 231 l 226 0 l 56 0 m 354 375 l 683 375 l 519 854 l 354 375 z "},"Â":{"ha":1038,"x_min":56,"x_max":982,"o":"m 282 1129 l 454 1336 l 585 1336 l 757 1129 l 622 1129 l 519 1253 l 417 1129 l 282 1129 m 56 0 l 414 1028 l 622 1028 l 982 0 l 811 0 l 731 231 l 307 231 l 226 0 l 56 0 m 354 375 l 683 375 l 519 854 l 354 375 z "},"Ấ":{"ha":1038,"x_min":56,"x_max":982,"o":"m 808 1307 l 682 1308 l 799 1558 l 954 1558 l 808 1307 m 282 1129 l 454 1336 l 585 1336 l 757 1129 l 622 1129 l 519 1253 l 417 1129 l 282 1129 m 56 0 l 414 1028 l 622 1028 l 982 0 l 811 0 l 731 231 l 307 231 l 226 0 l 56 0 m 354 375 l 683 375 l 519 854 l 354 375 z "},"Ậ":{"ha":1038,"x_min":56,"x_max":982,"o":"m 282 1129 l 454 1336 l 585 1336 l 757 1129 l 622 1129 l 519 1253 l 417 1129 l 282 1129 m 56 0 l 414 1028 l 622 1028 l 982 0 l 811 0 l 731 231 l 307 231 l 226 0 l 56 0 m 354 375 l 683 375 l 519 854 l 354 375 m 519 -325 q 449 -296 476 -325 q 422 -228 422 -267 q 449 -159 422 -187 q 519 -131 476 -131 q 588 -159 560 -131 q 615 -228 615 -187 q 588 -297 615 -268 q 519 -325 560 -325 z "},"Ầ":{"ha":1038,"x_min":56,"x_max":982,"o":"m 715 1307 l 569 1558 l 725 1558 l 842 1308 l 715 1307 m 282 1129 l 454 1336 l 585 1336 l 757 1129 l 622 1129 l 519 1253 l 417 1129 l 282 1129 m 56 0 l 414 1028 l 622 1028 l 982 0 l 811 0 l 731 231 l 307 231 l 226 0 l 56 0 m 354 375 l 683 375 l 519 854 l 354 375 z "},"Ẩ":{"ha":1038,"x_min":56,"x_max":982,"o":"m 700 1293 l 700 1338 q 706 1367 700 1353 q 731 1390 713 1382 l 750 1401 q 813 1469 813 1432 q 798 1504 813 1489 q 754 1519 783 1519 q 715 1508 728 1519 q 699 1481 703 1496 q 694 1461 694 1467 l 593 1461 q 609 1530 593 1496 q 661 1586 625 1564 q 753 1608 697 1608 q 874 1569 829 1608 q 919 1474 919 1529 q 807 1336 919 1392 l 800 1333 l 800 1293 l 700 1293 m 281 1129 l 453 1336 l 583 1336 l 756 1129 l 621 1129 l 518 1253 l 415 1129 l 281 1129 m 56 0 l 414 1028 l 622 1028 l 982 0 l 811 0 l 731 231 l 307 231 l 226 0 l 56 0 m 354 375 l 683 375 l 519 854 l 354 375 z "},"Ẫ":{"ha":1038,"x_min":56,"x_max":982,"o":"m 615 1389 q 551 1403 578 1389 q 506 1434 525 1417 q 469 1465 486 1451 q 433 1479 453 1479 q 400 1457 410 1479 q 390 1397 390 1435 l 293 1397 q 304 1485 293 1442 q 344 1556 315 1528 q 424 1585 372 1585 q 488 1572 461 1585 q 534 1540 514 1558 q 571 1509 554 1522 q 606 1496 588 1496 q 637 1518 626 1496 q 647 1578 647 1540 l 744 1578 q 733 1490 744 1533 q 694 1417 722 1446 q 615 1389 667 1389 m 281 1129 l 453 1336 l 583 1336 l 756 1129 l 621 1129 l 518 1253 l 415 1129 l 281 1129 m 56 0 l 414 1028 l 622 1028 l 982 0 l 811 0 l 731 231 l 307 231 l 226 0 l 56 0 m 354 375 l 683 375 l 519 854 l 354 375 z "},"Ä":{"ha":1038,"x_min":56,"x_max":982,"o":"m 658 1131 q 590 1159 617 1131 q 563 1226 563 1188 q 590 1294 563 1267 q 658 1322 617 1322 q 728 1294 700 1322 q 756 1226 756 1267 q 728 1158 756 1186 q 658 1131 700 1131 m 378 1131 q 308 1159 336 1131 q 281 1226 281 1188 q 308 1294 281 1267 q 378 1322 336 1322 q 447 1294 419 1322 q 475 1226 475 1267 q 447 1158 475 1186 q 378 1131 419 1131 m 56 0 l 414 1028 l 622 1028 l 982 0 l 811 0 l 731 231 l 307 231 l 226 0 l 56 0 m 354 375 l 683 375 l 519 854 l 354 375 z "},"Ạ":{"ha":1038,"x_min":56,"x_max":982,"o":"m 56 0 l 414 1028 l 622 1028 l 982 0 l 811 0 l 731 231 l 307 231 l 226 0 l 56 0 m 354 375 l 683 375 l 519 854 l 354 375 m 519 -325 q 449 -296 476 -325 q 422 -228 422 -267 q 449 -159 422 -187 q 519 -131 476 -131 q 588 -159 560 -131 q 615 -228 615 -187 q 588 -297 615 -268 q 519 -325 560 -325 z "},"À":{"ha":1038,"x_min":56,"x_max":982,"o":"m 461 1136 l 315 1388 l 471 1388 l 588 1138 l 461 1136 m 56 0 l 414 1028 l 622 1028 l 982 0 l 811 0 l 731 231 l 307 231 l 226 0 l 56 0 m 354 375 l 683 375 l 519 854 l 354 375 z "},"Ả":{"ha":1038,"x_min":56,"x_max":982,"o":"m 469 1124 l 469 1169 q 476 1199 469 1183 q 500 1222 482 1214 l 519 1232 q 582 1301 582 1264 q 567 1335 582 1319 q 524 1350 553 1350 q 485 1338 497 1350 q 468 1313 472 1326 q 464 1292 464 1299 l 363 1292 q 378 1361 363 1328 q 431 1417 394 1394 q 522 1439 467 1439 q 644 1399 599 1439 q 689 1304 689 1360 q 576 1167 689 1222 l 569 1164 l 569 1124 l 469 1124 m 56 0 l 414 1028 l 622 1028 l 982 0 l 811 0 l 731 231 l 307 231 l 226 0 l 56 0 m 354 375 l 683 375 l 519 854 l 354 375 z "},"Ā":{"ha":1038,"x_min":56,"x_max":982,"o":"m 303 1156 l 303 1264 l 735 1264 l 735 1156 l 303 1156 m 56 0 l 414 1028 l 622 1028 l 982 0 l 811 0 l 731 231 l 307 231 l 226 0 l 56 0 m 354 375 l 683 375 l 519 854 l 354 375 z "},"Ą":{"ha":1038,"x_min":56,"x_max":1036,"o":"m 56 0 l 414 1028 l 622 1028 l 982 0 q 964 -10 982 0 q 927 -38 946 -19 q 908 -85 908 -57 q 928 -126 908 -108 q 986 -143 947 -143 q 1020 -140 1004 -143 q 1036 -136 1036 -136 l 1036 -235 q 1015 -239 1036 -235 q 960 -243 993 -243 q 828 -205 872 -243 q 785 -112 785 -167 q 806 -44 785 -72 q 851 0 826 -17 l 811 0 l 731 231 l 307 231 l 226 0 l 56 0 m 354 375 l 683 375 l 519 854 l 354 375 z "},"Å":{"ha":1038,"x_min":56,"x_max":982,"o":"m 519 1121 q 427 1145 468 1121 q 361 1211 386 1169 q 336 1303 336 1253 q 361 1394 336 1353 q 427 1459 386 1435 q 519 1483 468 1483 q 610 1459 568 1483 q 676 1394 651 1435 q 700 1303 700 1353 q 676 1211 700 1253 q 610 1145 651 1169 q 519 1121 568 1121 m 519 1222 q 576 1246 553 1222 q 600 1303 600 1269 q 576 1360 600 1336 q 519 1383 553 1383 q 461 1360 485 1383 q 438 1303 438 1336 q 461 1246 438 1269 q 519 1222 485 1222 m 56 0 l 414 1028 l 622 1028 l 982 0 l 811 0 l 731 231 l 307 231 l 226 0 l 56 0 m 354 375 l 683 375 l 519 854 l 354 375 z "},"Ã":{"ha":1038,"x_min":56,"x_max":982,"o":"m 617 1147 q 553 1161 579 1147 q 507 1192 526 1175 q 471 1224 488 1210 q 435 1238 454 1238 q 401 1215 411 1238 q 392 1156 392 1193 l 294 1156 q 306 1243 294 1200 q 344 1315 317 1286 q 425 1343 372 1343 q 489 1330 463 1343 q 535 1299 515 1317 q 571 1267 554 1281 q 607 1254 588 1254 q 638 1276 628 1254 q 649 1336 649 1297 l 744 1336 q 734 1248 744 1292 q 696 1176 724 1204 q 617 1147 668 1147 m 56 0 l 414 1028 l 622 1028 l 982 0 l 811 0 l 731 231 l 307 231 l 226 0 l 56 0 m 354 375 l 683 375 l 519 854 l 354 375 z "},"Æ":{"ha":1426,"x_min":56,"x_max":1339,"o":"m 56 0 l 564 1028 l 1332 1028 l 1332 886 l 824 886 l 824 593 l 1268 593 l 1268 453 l 824 453 l 824 142 l 1339 142 l 1339 0 l 661 0 l 661 231 l 342 231 l 226 0 l 56 0 m 413 374 l 661 374 l 661 872 l 413 374 z "},"B":{"ha":953,"x_min":106,"x_max":881,"o":"m 106 0 l 106 1028 l 528 1028 q 697 992 626 1028 q 803 899 767 957 q 840 771 840 840 q 813 651 840 697 q 751 579 786 604 q 692 544 717 554 l 692 536 q 771 499 726 526 q 848 422 815 472 q 881 290 881 371 q 846 151 881 218 q 735 42 811 85 q 538 0 660 0 l 106 0 m 513 889 l 268 889 l 268 592 l 513 592 q 642 638 601 592 q 682 740 682 683 q 642 843 682 797 q 513 889 601 889 m 525 464 l 268 464 l 268 139 l 525 139 q 636 162 593 139 q 699 222 679 185 q 718 301 718 260 q 699 380 718 343 q 636 440 679 417 q 525 464 593 464 z "},"C":{"ha":1079,"x_min":69,"x_max":1010,"o":"m 564 -14 q 348 31 440 -14 q 194 152 256 76 q 101 322 132 228 q 69 514 69 415 q 101 707 69 613 q 194 877 132 801 q 348 997 256 953 q 564 1042 440 1042 q 738 1015 665 1042 q 860 948 811 989 q 940 861 910 907 q 984 774 969 815 q 1004 706 999 732 q 1010 681 1010 681 l 847 681 q 842 702 847 681 q 822 756 838 724 q 774 819 806 788 q 692 872 743 850 q 565 893 642 893 q 422 861 483 893 q 318 775 360 829 q 256 653 276 721 q 236 514 236 585 q 256 376 236 443 q 318 253 276 308 q 422 167 360 199 q 565 135 483 135 q 692 156 642 135 q 774 210 743 178 q 822 274 806 242 q 842 327 838 306 q 847 349 847 349 l 1010 349 q 1004 322 1010 349 q 984 255 999 296 q 940 167 969 214 q 860 80 910 121 q 738 13 811 39 q 564 -14 665 -14 z "},"Ć":{"ha":1079,"x_min":69,"x_max":1010,"o":"m 626 1135 l 500 1136 l 617 1386 l 772 1386 l 626 1135 m 564 -14 q 348 31 440 -14 q 194 152 256 76 q 101 322 132 228 q 69 514 69 415 q 101 707 69 613 q 194 877 132 801 q 348 997 256 953 q 564 1042 440 1042 q 738 1015 665 1042 q 860 948 811 989 q 940 861 910 907 q 984 774 969 815 q 1004 706 999 732 q 1010 681 1010 681 l 847 681 q 842 702 847 681 q 822 756 838 724 q 774 819 806 788 q 692 872 743 850 q 565 893 642 893 q 422 861 483 893 q 318 775 360 829 q 256 653 276 721 q 236 514 236 585 q 256 376 236 443 q 318 253 276 308 q 422 167 360 199 q 565 135 483 135 q 692 156 642 135 q 774 210 743 178 q 822 274 806 242 q 842 327 838 306 q 847 349 847 349 l 1010 349 q 1004 322 1010 349 q 984 255 999 296 q 940 167 969 214 q 860 80 910 121 q 738 13 811 39 q 564 -14 665 -14 z "},"Č":{"ha":1079,"x_min":69,"x_max":1010,"o":"m 499 1117 l 326 1354 l 461 1354 l 564 1207 l 667 1354 l 801 1354 l 629 1117 l 499 1117 m 564 -14 q 348 31 440 -14 q 194 152 256 76 q 101 322 132 228 q 69 514 69 415 q 101 707 69 613 q 194 877 132 801 q 348 997 256 953 q 564 1042 440 1042 q 738 1015 665 1042 q 860 948 811 989 q 940 861 910 907 q 984 774 969 815 q 1004 706 999 732 q 1010 681 1010 681 l 847 681 q 842 702 847 681 q 822 756 838 724 q 774 819 806 788 q 692 872 743 850 q 565 893 642 893 q 422 861 483 893 q 318 775 360 829 q 256 653 276 721 q 236 514 236 585 q 256 376 236 443 q 318 253 276 308 q 422 167 360 199 q 565 135 483 135 q 692 156 642 135 q 774 210 743 178 q 822 274 806 242 q 842 327 838 306 q 847 349 847 349 l 1010 349 q 1004 322 1010 349 q 984 255 999 296 q 940 167 969 214 q 860 80 910 121 q 738 13 811 39 q 564 -14 665 -14 z "},"Ç":{"ha":1079,"x_min":69,"x_max":1010,"o":"m 542 -361 q 473 -356 507 -361 q 439 -351 439 -351 l 439 -262 q 455 -265 439 -262 q 493 -269 471 -267 q 535 -271 515 -271 q 616 -249 594 -271 q 638 -204 638 -226 q 619 -165 638 -182 q 568 -149 601 -149 q 513 -162 535 -149 q 492 -175 492 -175 l 432 -117 l 499 -10 q 311 50 392 1 q 177 172 231 99 q 97 334 124 246 q 69 514 69 422 q 101 707 69 613 q 194 877 132 801 q 348 997 256 953 q 564 1042 440 1042 q 738 1015 665 1042 q 860 948 811 989 q 940 861 910 907 q 984 774 969 815 q 1004 706 999 732 q 1010 681 1010 681 l 847 681 q 842 702 847 681 q 822 756 838 724 q 774 819 806 788 q 692 872 743 850 q 565 893 642 893 q 422 861 483 893 q 318 775 360 829 q 256 653 276 721 q 236 514 236 585 q 256 376 236 443 q 318 253 276 308 q 422 167 360 199 q 565 135 483 135 q 692 156 642 135 q 774 210 743 178 q 822 274 806 242 q 842 327 838 306 q 847 349 847 349 l 1010 349 q 1005 324 1010 349 q 986 260 1000 300 q 945 176 972 221 q 874 91 918 132 q 763 22 829 50 q 603 -12 696 -7 l 553 -89 q 601 -82 575 -82 q 704 -115 667 -82 q 742 -203 742 -149 q 721 -278 742 -242 q 656 -337 700 -314 q 542 -361 613 -361 z "},"Ċ":{"ha":1079,"x_min":69,"x_max":1010,"o":"m 564 1154 q 492 1183 519 1154 q 464 1251 464 1211 q 492 1320 464 1292 q 564 1349 519 1349 q 634 1320 606 1349 q 663 1251 663 1292 q 634 1183 663 1211 q 564 1154 606 1154 m 564 -14 q 348 31 440 -14 q 194 152 256 76 q 101 322 132 228 q 69 514 69 415 q 101 707 69 613 q 194 877 132 801 q 348 997 256 953 q 564 1042 440 1042 q 738 1015 665 1042 q 860 948 811 989 q 940 861 910 907 q 984 774 969 815 q 1004 706 999 732 q 1010 681 1010 681 l 847 681 q 842 702 847 681 q 822 756 838 724 q 774 819 806 788 q 692 872 743 850 q 565 893 642 893 q 422 861 483 893 q 318 775 360 829 q 256 653 276 721 q 236 514 236 585 q 256 376 236 443 q 318 253 276 308 q 422 167 360 199 q 565 135 483 135 q 692 156 642 135 q 774 210 743 178 q 822 274 806 242 q 842 327 838 306 q 847 349 847 349 l 1010 349 q 1004 322 1010 349 q 984 255 999 296 q 940 167 969 214 q 860 80 910 121 q 738 13 811 39 q 564 -14 665 -14 z "},"D":{"ha":1022,"x_min":106,"x_max":953,"o":"m 106 0 l 106 1028 l 457 1028 q 674 984 581 1028 q 828 867 767 940 q 922 701 890 793 q 953 514 953 610 q 922 326 953 418 q 828 161 890 235 q 674 44 767 88 q 457 0 581 0 l 106 0 m 450 886 l 268 886 l 268 143 l 450 143 q 600 174 536 143 q 706 259 664 206 q 769 378 747 313 q 790 514 790 444 q 769 650 790 583 q 706 769 747 717 q 600 854 664 822 q 450 886 536 886 z "},"Ð":{"ha":1093,"x_min":46,"x_max":1024,"o":"m 176 0 l 176 444 l 46 444 l 46 583 l 176 583 l 176 1028 l 528 1028 q 745 984 653 1028 q 899 867 838 940 q 992 701 961 793 q 1024 514 1024 610 q 992 326 1024 418 q 899 161 961 235 q 745 44 838 88 q 528 0 653 0 l 176 0 m 547 444 l 339 444 l 339 143 l 521 143 q 671 174 607 143 q 777 259 735 206 q 840 378 819 313 q 861 514 861 444 q 840 650 861 583 q 777 769 819 717 q 671 854 735 822 q 521 886 607 886 l 339 886 l 339 583 l 547 583 l 547 444 z "},"Ď":{"ha":1033,"x_min":117,"x_max":964,"o":"m 403 1117 l 232 1354 l 367 1354 l 468 1207 l 571 1354 l 706 1354 l 535 1117 l 403 1117 m 117 0 l 117 1028 l 468 1028 q 685 984 592 1028 q 840 867 778 940 q 933 701 901 793 q 964 514 964 610 q 933 326 964 418 q 840 161 901 235 q 685 44 778 88 q 468 0 592 0 l 117 0 m 461 886 l 279 886 l 279 143 l 461 143 q 611 174 547 143 q 717 259 675 206 q 780 378 758 313 q 801 514 801 444 q 780 650 801 583 q 717 769 758 717 q 611 854 675 822 q 461 886 547 886 z "},"Đ":{"ha":1093,"x_min":46,"x_max":1024,"o":"m 176 0 l 176 444 l 46 444 l 46 583 l 176 583 l 176 1028 l 528 1028 q 745 984 653 1028 q 899 867 838 940 q 992 701 961 793 q 1024 514 1024 610 q 992 326 1024 418 q 899 161 961 235 q 745 44 838 88 q 528 0 653 0 l 176 0 m 547 444 l 339 444 l 339 143 l 521 143 q 671 174 607 143 q 777 259 735 206 q 840 378 819 313 q 861 514 861 444 q 840 650 861 583 q 777 769 819 717 q 671 854 735 822 q 521 886 607 886 l 339 886 l 339 583 l 547 583 l 547 444 z "},"E":{"ha":871,"x_min":106,"x_max":783,"o":"m 106 0 l 106 1028 l 776 1028 l 776 886 l 268 886 l 268 593 l 713 593 l 713 453 l 268 453 l 268 142 l 783 142 l 783 0 l 106 0 z "},"É":{"ha":882,"x_min":117,"x_max":794,"o":"m 526 1136 l 400 1138 l 517 1388 l 672 1388 l 526 1136 m 117 0 l 117 1028 l 788 1028 l 788 886 l 279 886 l 279 593 l 724 593 l 724 453 l 279 453 l 279 142 l 794 142 l 794 0 l 117 0 z "},"Ě":{"ha":882,"x_min":117,"x_max":794,"o":"m 399 1117 l 226 1354 l 361 1354 l 464 1207 l 567 1354 l 701 1354 l 529 1117 l 399 1117 m 117 0 l 117 1028 l 788 1028 l 788 886 l 279 886 l 279 593 l 724 593 l 724 453 l 279 453 l 279 142 l 794 142 l 794 0 l 117 0 z "},"Ê":{"ha":882,"x_min":117,"x_max":794,"o":"m 226 1129 l 399 1336 l 529 1336 l 701 1129 l 567 1129 l 464 1253 l 361 1129 l 226 1129 m 117 0 l 117 1028 l 788 1028 l 788 886 l 279 886 l 279 593 l 724 593 l 724 453 l 279 453 l 279 142 l 794 142 l 794 0 l 117 0 z "},"Ế":{"ha":882,"x_min":117,"x_max":899,"o":"m 753 1307 l 626 1308 l 743 1558 l 899 1558 l 753 1307 m 226 1129 l 399 1336 l 529 1336 l 701 1129 l 567 1129 l 464 1253 l 361 1129 l 226 1129 m 117 0 l 117 1028 l 788 1028 l 788 886 l 279 886 l 279 593 l 724 593 l 724 453 l 279 453 l 279 142 l 794 142 l 794 0 l 117 0 z "},"Ệ":{"ha":882,"x_min":117,"x_max":794,"o":"m 226 1129 l 399 1336 l 529 1336 l 701 1129 l 567 1129 l 464 1253 l 361 1129 l 226 1129 m 117 0 l 117 1028 l 788 1028 l 788 886 l 279 886 l 279 593 l 724 593 l 724 453 l 279 453 l 279 142 l 794 142 l 794 0 l 117 0 m 451 -325 q 381 -296 408 -325 q 354 -228 354 -267 q 381 -159 354 -187 q 451 -131 408 -131 q 521 -159 493 -131 q 549 -228 549 -187 q 521 -297 549 -268 q 451 -325 493 -325 z "},"Ề":{"ha":882,"x_min":117,"x_max":794,"o":"m 660 1307 l 514 1558 l 669 1558 l 786 1308 l 660 1307 m 226 1129 l 399 1336 l 529 1336 l 701 1129 l 567 1129 l 464 1253 l 361 1129 l 226 1129 m 117 0 l 117 1028 l 788 1028 l 788 886 l 279 886 l 279 593 l 724 593 l 724 453 l 279 453 l 279 142 l 794 142 l 794 0 l 117 0 z "},"Ể":{"ha":882,"x_min":117,"x_max":864,"o":"m 644 1293 l 644 1338 q 651 1367 644 1353 q 675 1390 657 1382 l 694 1401 q 757 1469 757 1432 q 742 1504 757 1489 q 699 1519 728 1519 q 660 1508 672 1519 q 643 1481 647 1496 q 639 1461 639 1467 l 538 1461 q 553 1530 538 1496 q 606 1586 569 1564 q 697 1608 642 1608 q 819 1569 774 1608 q 864 1474 864 1529 q 751 1336 864 1392 l 744 1333 l 744 1293 l 644 1293 m 225 1129 l 397 1336 l 528 1336 l 700 1129 l 565 1129 l 463 1253 l 360 1129 l 225 1129 m 117 0 l 117 1028 l 788 1028 l 788 886 l 279 886 l 279 593 l 724 593 l 724 453 l 279 453 l 279 142 l 794 142 l 794 0 l 117 0 z "},"Ễ":{"ha":882,"x_min":117,"x_max":794,"o":"m 560 1389 q 496 1403 522 1389 q 450 1434 469 1417 q 414 1465 431 1451 q 378 1479 397 1479 q 344 1457 354 1479 q 335 1397 335 1435 l 238 1397 q 249 1485 238 1442 q 288 1556 260 1528 q 368 1585 317 1585 q 432 1572 406 1585 q 478 1540 458 1558 q 515 1509 499 1522 q 550 1496 532 1496 q 581 1518 571 1496 q 592 1578 592 1540 l 689 1578 q 678 1490 689 1533 q 639 1417 667 1446 q 560 1389 611 1389 m 225 1129 l 397 1336 l 528 1336 l 700 1129 l 565 1129 l 463 1253 l 360 1129 l 225 1129 m 117 0 l 117 1028 l 788 1028 l 788 886 l 279 886 l 279 593 l 724 593 l 724 453 l 279 453 l 279 142 l 794 142 l 794 0 l 117 0 z "},"Ë":{"ha":882,"x_min":117,"x_max":794,"o":"m 603 1131 q 534 1159 561 1131 q 507 1226 507 1188 q 534 1294 507 1267 q 603 1322 561 1322 q 672 1294 644 1322 q 700 1226 700 1267 q 672 1158 700 1186 q 603 1131 644 1131 m 322 1131 q 253 1159 281 1131 q 225 1226 225 1188 q 253 1294 225 1267 q 322 1322 281 1322 q 392 1294 364 1322 q 419 1226 419 1267 q 392 1158 419 1186 q 322 1131 364 1131 m 117 0 l 117 1028 l 788 1028 l 788 886 l 279 886 l 279 593 l 724 593 l 724 453 l 279 453 l 279 142 l 794 142 l 794 0 l 117 0 z "},"Ė":{"ha":882,"x_min":117,"x_max":794,"o":"m 464 1154 q 392 1183 419 1154 q 364 1251 364 1213 q 392 1320 364 1292 q 464 1349 419 1349 q 534 1320 506 1349 q 563 1251 563 1292 q 534 1183 563 1211 q 464 1154 506 1154 m 117 0 l 117 1028 l 788 1028 l 788 886 l 279 886 l 279 593 l 724 593 l 724 453 l 279 453 l 279 142 l 794 142 l 794 0 l 117 0 z "},"Ẹ":{"ha":882,"x_min":117,"x_max":794,"o":"m 117 0 l 117 1028 l 788 1028 l 788 886 l 279 886 l 279 593 l 724 593 l 724 453 l 279 453 l 279 142 l 794 142 l 794 0 l 117 0 m 451 -325 q 381 -296 408 -325 q 354 -228 354 -267 q 381 -159 354 -187 q 451 -131 408 -131 q 521 -159 493 -131 q 549 -228 549 -187 q 521 -297 549 -268 q 451 -325 493 -325 z "},"È":{"ha":882,"x_min":117,"x_max":794,"o":"m 406 1136 l 260 1388 l 415 1388 l 532 1138 l 406 1136 m 117 0 l 117 1028 l 788 1028 l 788 886 l 279 886 l 279 593 l 724 593 l 724 453 l 279 453 l 279 142 l 794 142 l 794 0 l 117 0 z "},"Ẻ":{"ha":882,"x_min":117,"x_max":794,"o":"m 414 1124 l 414 1169 q 420 1199 414 1183 q 444 1222 426 1214 l 464 1232 q 526 1301 526 1264 q 512 1335 526 1319 q 468 1350 497 1350 q 429 1338 442 1350 q 413 1313 417 1326 q 408 1292 408 1299 l 307 1292 q 323 1361 307 1328 q 375 1417 339 1394 q 467 1439 411 1439 q 588 1399 543 1439 q 633 1304 633 1360 q 521 1167 633 1222 l 514 1164 l 514 1124 l 414 1124 m 117 0 l 117 1028 l 788 1028 l 788 886 l 279 886 l 279 593 l 724 593 l 724 453 l 279 453 l 279 142 l 794 142 l 794 0 l 117 0 z "},"Ē":{"ha":882,"x_min":117,"x_max":794,"o":"m 247 1156 l 247 1264 l 679 1264 l 679 1156 l 247 1156 m 117 0 l 117 1028 l 788 1028 l 788 886 l 279 886 l 279 593 l 724 593 l 724 453 l 279 453 l 279 142 l 794 142 l 794 0 l 117 0 z "},"Ę":{"ha":882,"x_min":117,"x_max":849,"o":"m 117 0 l 117 1028 l 788 1028 l 788 886 l 279 886 l 279 593 l 724 593 l 724 453 l 279 453 l 279 142 l 794 142 l 794 0 q 776 -10 794 0 q 740 -38 758 -19 q 721 -85 721 -57 q 740 -126 721 -108 q 799 -143 760 -143 q 833 -140 817 -143 q 849 -136 849 -136 l 849 -235 q 827 -239 849 -235 q 774 -243 806 -243 q 642 -205 685 -243 q 599 -112 599 -167 q 619 -44 599 -72 q 664 0 639 -17 l 117 0 z "},"Ẽ":{"ha":882,"x_min":117,"x_max":794,"o":"m 561 1147 q 497 1161 524 1147 q 451 1192 471 1175 q 415 1224 432 1210 q 379 1238 399 1238 q 346 1215 356 1238 q 336 1156 336 1193 l 239 1156 q 250 1243 239 1200 q 289 1315 261 1286 q 369 1343 317 1343 q 433 1330 407 1343 q 479 1299 460 1317 q 515 1267 499 1281 q 551 1254 532 1254 q 583 1276 572 1254 q 593 1336 593 1297 l 689 1336 q 678 1248 689 1292 q 640 1176 668 1204 q 561 1147 613 1147 m 117 0 l 117 1028 l 788 1028 l 788 886 l 279 886 l 279 593 l 724 593 l 724 453 l 279 453 l 279 142 l 794 142 l 794 0 l 117 0 z "},"F":{"ha":885,"x_min":106,"x_max":797,"o":"m 106 0 l 106 1028 l 797 1028 l 797 886 l 268 886 l 268 571 l 733 571 l 733 431 l 268 431 l 268 0 l 106 0 z "},"G":{"ha":1090,"x_min":69,"x_max":1026,"o":"m 571 -14 q 349 31 443 -14 q 193 151 256 75 q 100 320 131 226 q 69 513 69 414 q 100 706 69 611 q 194 876 131 800 q 352 997 257 951 q 575 1042 447 1042 q 746 1017 675 1042 q 865 952 817 992 q 943 868 914 913 q 988 783 972 824 q 1008 718 1003 743 q 1014 693 1014 693 l 851 693 q 846 714 851 693 q 824 765 840 735 q 778 825 808 794 q 698 876 747 856 q 576 896 649 896 q 426 863 490 896 q 319 776 361 831 q 256 654 276 722 q 235 515 235 586 q 256 374 235 443 q 320 251 278 306 q 426 164 363 196 q 574 132 489 132 q 783 207 706 132 q 869 410 861 282 l 576 410 l 576 540 l 1026 540 l 1026 467 q 966 201 1026 308 q 802 40 906 94 q 571 -14 699 -14 z "},"Ğ":{"ha":1090,"x_min":69,"x_max":1026,"o":"m 575 1128 q 461 1150 506 1128 q 392 1206 417 1172 q 358 1272 368 1239 q 345 1326 347 1304 q 343 1349 343 1349 l 456 1349 q 458 1331 456 1349 q 471 1289 460 1313 q 506 1247 482 1265 q 575 1229 531 1229 q 644 1247 619 1229 q 680 1289 669 1265 q 692 1331 690 1313 q 694 1349 694 1349 l 807 1349 q 805 1326 807 1349 q 792 1272 803 1304 q 758 1206 782 1239 q 690 1150 733 1172 q 575 1128 646 1128 m 571 -14 q 349 31 443 -14 q 193 151 256 75 q 100 320 131 226 q 69 513 69 414 q 100 706 69 611 q 194 876 131 800 q 352 997 257 951 q 575 1042 447 1042 q 746 1017 675 1042 q 865 952 817 992 q 943 868 914 913 q 988 783 972 824 q 1008 718 1003 743 q 1014 693 1014 693 l 851 693 q 846 714 851 693 q 824 765 840 735 q 778 825 808 794 q 698 876 747 856 q 576 896 649 896 q 426 863 490 896 q 319 776 361 831 q 256 654 276 722 q 235 515 235 586 q 256 374 235 443 q 320 251 278 306 q 426 164 363 196 q 574 132 489 132 q 783 207 706 132 q 869 410 861 282 l 576 410 l 576 540 l 1026 540 l 1026 467 q 966 201 1026 308 q 802 40 906 94 q 571 -14 699 -14 z "},"Ǧ":{"ha":1090,"x_min":69,"x_max":1026,"o":"m 510 1117 l 339 1354 l 474 1354 l 575 1207 l 678 1354 l 813 1354 l 642 1117 l 510 1117 m 571 -14 q 349 31 443 -14 q 193 151 256 75 q 100 320 131 226 q 69 513 69 414 q 100 706 69 611 q 194 876 131 800 q 352 997 257 951 q 575 1042 447 1042 q 746 1017 675 1042 q 865 952 817 992 q 943 868 914 913 q 988 783 972 824 q 1008 718 1003 743 q 1014 693 1014 693 l 851 693 q 846 714 851 693 q 824 765 840 735 q 778 825 808 794 q 698 876 747 856 q 576 896 649 896 q 426 863 490 896 q 319 776 361 831 q 256 654 276 722 q 235 515 235 586 q 256 374 235 443 q 320 251 278 306 q 426 164 363 196 q 574 132 489 132 q 783 207 706 132 q 869 410 861 282 l 576 410 l 576 540 l 1026 540 l 1026 467 q 966 201 1026 308 q 802 40 906 94 q 571 -14 699 -14 z "},"Ġ":{"ha":1090,"x_min":69,"x_max":1026,"o":"m 575 1154 q 504 1183 532 1154 q 476 1251 476 1213 q 504 1320 476 1292 q 575 1349 532 1349 q 646 1320 618 1349 q 674 1251 674 1292 q 646 1183 674 1211 q 575 1154 618 1154 m 571 -14 q 349 31 443 -14 q 193 151 256 75 q 100 320 131 226 q 69 513 69 414 q 100 706 69 611 q 194 876 131 800 q 352 997 257 951 q 575 1042 447 1042 q 746 1017 675 1042 q 865 952 817 992 q 943 868 914 913 q 988 783 972 824 q 1008 718 1003 743 q 1014 693 1014 693 l 851 693 q 846 714 851 693 q 824 765 840 735 q 778 825 808 794 q 698 876 747 856 q 576 896 649 896 q 426 863 490 896 q 319 776 361 831 q 256 654 276 722 q 235 515 235 586 q 256 374 235 443 q 320 251 278 306 q 426 164 363 196 q 574 132 489 132 q 783 207 706 132 q 869 410 861 282 l 576 410 l 576 540 l 1026 540 l 1026 467 q 966 201 1026 308 q 802 40 906 94 q 571 -14 699 -14 z "},"Ḡ":{"ha":1090,"x_min":69,"x_max":1026,"o":"m 360 1156 l 360 1264 l 792 1264 l 792 1156 l 360 1156 m 571 -14 q 349 31 443 -14 q 193 151 256 75 q 100 320 131 226 q 69 513 69 414 q 100 706 69 611 q 194 876 131 800 q 352 997 257 951 q 575 1042 447 1042 q 746 1017 675 1042 q 865 952 817 992 q 943 868 914 913 q 988 783 972 824 q 1008 718 1003 743 q 1014 693 1014 693 l 851 693 q 846 714 851 693 q 824 765 840 735 q 778 825 808 794 q 698 876 747 856 q 576 896 649 896 q 426 863 490 896 q 319 776 361 831 q 256 654 276 722 q 235 515 235 586 q 256 374 235 443 q 320 251 278 306 q 426 164 363 196 q 574 132 489 132 q 783 207 706 132 q 869 410 861 282 l 576 410 l 576 540 l 1026 540 l 1026 467 q 966 201 1026 308 q 802 40 906 94 q 571 -14 699 -14 z "},"H":{"ha":996,"x_min":106,"x_max":890,"o":"m 106 0 l 106 1028 l 268 1028 l 268 594 l 728 594 l 728 1028 l 890 1028 l 890 0 l 728 0 l 728 450 l 268 450 l 268 0 l 106 0 z "},"Ħ":{"ha":1081,"x_min":36,"x_max":1044,"o":"m 160 0 l 160 790 l 36 790 l 36 924 l 160 924 l 160 1028 l 322 1028 l 322 924 l 782 924 l 782 1028 l 944 1028 l 944 924 l 1044 924 l 1044 790 l 944 790 l 944 0 l 782 0 l 782 450 l 322 450 l 322 0 l 160 0 m 322 594 l 782 594 l 782 790 l 322 790 l 322 594 z "},"I":{"ha":374,"x_min":106,"x_max":268,"o":"m 106 0 l 106 1028 l 268 1028 l 268 0 l 106 0 z "},"Í":{"ha":396,"x_min":117,"x_max":407,"o":"m 261 1136 l 135 1138 l 251 1388 l 407 1388 l 261 1136 m 117 0 l 117 1028 l 279 1028 l 279 0 l 117 0 z "},"Î":{"ha":396,"x_min":-39,"x_max":436,"o":"m -39 1129 l 133 1367 l 264 1367 l 436 1129 l 301 1129 l 199 1276 l 96 1129 l -39 1129 m 117 0 l 117 1028 l 279 1028 l 279 0 l 117 0 z "},"Ï":{"ha":396,"x_min":-40,"x_max":435,"o":"m 338 1131 q 268 1159 296 1131 q 240 1226 240 1188 q 268 1294 240 1267 q 338 1322 296 1322 q 407 1294 379 1322 q 435 1226 435 1267 q 407 1158 435 1186 q 338 1131 379 1131 m 57 1131 q -13 1159 14 1131 q -40 1226 -40 1188 q -13 1294 -40 1267 q 57 1322 14 1322 q 126 1294 99 1322 q 154 1226 154 1267 q 126 1158 154 1186 q 57 1131 99 1131 m 117 0 l 117 1028 l 279 1028 l 279 0 l 117 0 z "},"İ":{"ha":396,"x_min":99,"x_max":297,"o":"m 197 1154 q 126 1183 154 1154 q 99 1251 99 1213 q 126 1320 99 1292 q 197 1349 154 1349 q 269 1320 240 1349 q 297 1251 297 1292 q 269 1183 297 1211 q 197 1154 240 1154 m 117 0 l 117 1028 l 279 1028 l 279 0 l 117 0 z "},"Ị":{"ha":396,"x_min":101,"x_max":294,"o":"m 117 0 l 117 1028 l 279 1028 l 279 0 l 117 0 m 197 -325 q 128 -296 156 -325 q 101 -228 101 -267 q 128 -159 101 -187 q 197 -131 156 -131 q 267 -159 239 -131 q 294 -228 294 -187 q 267 -297 294 -268 q 197 -325 239 -325 z "},"Ì":{"ha":396,"x_min":-7,"x_max":279,"o":"m 140 1136 l -7 1388 l 150 1388 l 267 1138 l 140 1136 m 117 0 l 117 1028 l 279 1028 l 279 0 l 117 0 z "},"Ỉ":{"ha":396,"x_min":42,"x_max":368,"o":"m 149 1124 l 149 1169 q 155 1199 149 1183 q 178 1222 161 1214 l 199 1232 q 261 1301 261 1264 q 247 1335 261 1319 q 203 1350 232 1350 q 163 1338 176 1350 q 147 1313 150 1326 q 143 1292 143 1299 l 42 1292 q 58 1361 42 1328 q 109 1417 74 1394 q 201 1439 144 1439 q 323 1399 278 1439 q 368 1304 368 1360 q 254 1167 368 1222 l 249 1164 l 249 1124 l 149 1124 m 117 0 l 117 1028 l 279 1028 l 279 0 l 117 0 z "},"Ī":{"ha":396,"x_min":-18,"x_max":414,"o":"m -18 1156 l -18 1264 l 414 1264 l 414 1156 l -18 1156 m 117 0 l 117 1028 l 279 1028 l 279 0 l 117 0 z "},"Į":{"ha":396,"x_min":82,"x_max":333,"o":"m 117 0 l 117 1028 l 279 1028 l 279 0 q 260 -10 279 0 q 224 -38 242 -19 q 206 -85 206 -57 q 224 -126 206 -108 q 283 -143 243 -143 q 317 -140 301 -143 q 333 -136 333 -136 l 333 -235 q 311 -239 333 -235 q 257 -243 289 -243 q 125 -205 168 -243 q 82 -112 82 -167 q 103 -44 82 -72 q 149 0 124 -17 l 117 0 z "},"Ĩ":{"ha":396,"x_min":-26,"x_max":424,"o":"m 294 1147 q 231 1161 257 1147 q 186 1192 206 1175 q 149 1224 167 1210 q 114 1238 132 1238 q 81 1215 90 1238 q 71 1156 71 1193 l -26 1156 q -15 1243 -26 1200 q 24 1315 -4 1286 q 104 1343 51 1343 q 168 1330 142 1343 q 214 1299 194 1317 q 250 1267 233 1281 q 286 1254 267 1254 q 317 1276 307 1254 q 326 1336 326 1297 l 424 1336 q 413 1248 424 1292 q 375 1176 403 1204 q 294 1147 347 1147 m 117 0 l 117 1028 l 279 1028 l 279 0 l 117 0 z "},"J":{"ha":658,"x_min":56,"x_max":553,"o":"m 189 -14 q 97 -8 138 -14 q 56 -3 56 -3 l 56 138 q 92 134 56 138 q 165 131 128 131 q 329 181 268 131 q 390 357 390 231 l 390 1028 l 553 1028 l 553 356 q 513 163 553 246 q 392 33 472 79 q 189 -14 313 -14 z "},"K":{"ha":960,"x_min":106,"x_max":913,"o":"m 106 0 l 106 1028 l 268 1028 l 268 572 l 686 1026 l 893 1026 l 431 533 l 913 0 l 699 0 l 268 481 l 268 0 l 106 0 z "},"L":{"ha":875,"x_min":106,"x_max":788,"o":"m 106 0 l 106 1028 l 268 1028 l 268 142 l 788 142 l 788 0 l 106 0 z "},"Ĺ":{"ha":886,"x_min":117,"x_max":799,"o":"m 271 1136 l 144 1138 l 261 1388 l 417 1388 l 271 1136 m 117 0 l 117 1028 l 279 1028 l 279 142 l 799 142 l 799 0 l 117 0 z "},"Ľ":{"ha":886,"x_min":-29,"x_max":799,"o":"m 143 1117 l -29 1354 l 106 1354 l 208 1207 l 311 1354 l 446 1354 l 274 1117 l 143 1117 m 117 0 l 117 1028 l 279 1028 l 279 142 l 799 142 l 799 0 l 117 0 z "},"Ł":{"ha":907,"x_min":10,"x_max":819,"o":"m 136 0 l 136 439 l 10 396 l 10 525 l 136 567 l 136 1028 l 299 1028 l 299 622 l 519 696 l 519 568 l 299 493 l 299 142 l 819 142 l 819 0 l 136 0 z "},"M":{"ha":1201,"x_min":106,"x_max":1096,"o":"m 106 0 l 106 1028 l 321 1028 l 600 443 l 883 1028 l 1096 1028 l 1096 0 l 936 0 l 936 786 l 676 256 l 525 256 l 265 789 l 265 0 l 106 0 z "},"N":{"ha":1025,"x_min":106,"x_max":919,"o":"m 106 0 l 106 1028 l 253 1028 l 757 289 l 757 1028 l 919 1028 l 919 0 l 771 0 l 267 732 l 267 0 l 106 0 z "},"Ń":{"ha":1047,"x_min":117,"x_max":931,"o":"m 583 1136 l 457 1138 l 574 1388 l 729 1388 l 583 1136 m 117 0 l 117 1028 l 264 1028 l 768 289 l 768 1028 l 931 1028 l 931 0 l 782 0 l 278 732 l 278 0 l 117 0 z "},"Ň":{"ha":1047,"x_min":117,"x_max":931,"o":"m 456 1117 l 283 1354 l 418 1354 l 521 1207 l 624 1354 l 758 1354 l 586 1117 l 456 1117 m 117 0 l 117 1028 l 264 1028 l 768 289 l 768 1028 l 931 1028 l 931 0 l 782 0 l 278 732 l 278 0 l 117 0 z "},"Ñ":{"ha":1047,"x_min":117,"x_max":931,"o":"m 617 1147 q 553 1161 579 1147 q 508 1192 528 1175 q 472 1224 489 1210 q 436 1238 454 1238 q 403 1215 413 1238 q 393 1156 393 1193 l 296 1156 q 307 1243 296 1200 q 346 1315 318 1286 q 426 1343 374 1343 q 490 1330 464 1343 q 536 1299 517 1317 q 572 1267 556 1281 q 608 1254 589 1254 q 639 1276 629 1254 q 649 1336 649 1297 l 746 1336 q 735 1248 746 1292 q 697 1176 725 1204 q 617 1147 669 1147 m 117 0 l 117 1028 l 264 1028 l 768 289 l 768 1028 l 931 1028 l 931 0 l 782 0 l 278 732 l 278 0 l 117 0 z "},"O":{"ha":1149,"x_min":69,"x_max":1079,"o":"m 574 -14 q 356 31 450 -14 q 197 152 261 76 q 101 322 133 228 q 69 515 69 417 q 101 708 69 614 q 197 876 133 801 q 356 997 261 951 q 574 1042 450 1042 q 793 997 699 1042 q 951 876 888 951 q 1047 708 1015 801 q 1079 515 1079 614 q 1047 322 1079 417 q 951 152 1015 228 q 793 31 888 76 q 574 -14 699 -14 m 574 135 q 760 190 685 135 q 874 331 835 244 q 913 515 913 418 q 890 655 913 588 q 826 776 868 722 q 720 862 783 831 q 574 893 657 893 q 428 862 492 893 q 323 776 365 831 q 258 655 281 722 q 236 515 236 588 q 275 331 236 418 q 389 190 314 244 q 574 135 464 135 z "},"Ó":{"ha":1149,"x_min":69,"x_max":1079,"o":"m 638 1150 l 511 1151 l 628 1401 l 783 1401 l 638 1150 m 574 -14 q 356 31 450 -14 q 197 152 261 76 q 101 322 133 228 q 69 515 69 417 q 101 708 69 614 q 197 876 133 801 q 356 997 261 951 q 574 1042 450 1042 q 793 997 699 1042 q 951 876 888 951 q 1047 708 1015 801 q 1079 515 1079 614 q 1047 322 1079 417 q 951 152 1015 228 q 793 31 888 76 q 574 -14 699 -14 m 574 135 q 760 190 685 135 q 874 331 835 244 q 913 515 913 418 q 890 655 913 588 q 826 776 868 722 q 720 862 783 831 q 574 893 657 893 q 428 862 492 893 q 323 776 365 831 q 258 655 281 722 q 236 515 236 588 q 275 331 236 418 q 389 190 314 244 q 574 135 464 135 z "},"Ô":{"ha":1149,"x_min":69,"x_max":1079,"o":"m 338 1143 l 510 1350 l 640 1350 l 813 1143 l 678 1143 l 575 1267 l 472 1143 l 338 1143 m 574 -14 q 356 31 450 -14 q 197 152 261 76 q 101 322 133 228 q 69 515 69 417 q 101 708 69 614 q 197 876 133 801 q 356 997 261 951 q 574 1042 450 1042 q 793 997 699 1042 q 951 876 888 951 q 1047 708 1015 801 q 1079 515 1079 614 q 1047 322 1079 417 q 951 152 1015 228 q 793 31 888 76 q 574 -14 699 -14 m 574 135 q 760 190 685 135 q 874 331 835 244 q 913 515 913 418 q 890 655 913 588 q 826 776 868 722 q 720 862 783 831 q 574 893 657 893 q 428 862 492 893 q 323 776 365 831 q 258 655 281 722 q 236 515 236 588 q 275 331 236 418 q 389 190 314 244 q 574 135 464 135 z "},"Ố":{"ha":1149,"x_min":69,"x_max":1079,"o":"m 864 1321 l 738 1322 l 854 1572 l 1010 1572 l 864 1321 m 338 1143 l 510 1350 l 640 1350 l 813 1143 l 678 1143 l 574 1267 l 472 1143 l 338 1143 m 574 -14 q 356 31 450 -14 q 197 152 261 76 q 101 322 133 228 q 69 515 69 417 q 101 708 69 614 q 197 876 133 801 q 356 997 261 951 q 574 1042 450 1042 q 793 997 699 1042 q 951 876 888 951 q 1047 708 1015 801 q 1079 515 1079 614 q 1047 322 1079 417 q 951 152 1015 228 q 793 31 888 76 q 574 -14 699 -14 m 574 135 q 760 190 685 135 q 874 331 835 244 q 913 515 913 418 q 890 655 913 588 q 826 776 868 722 q 720 862 783 831 q 574 893 657 893 q 428 862 492 893 q 323 776 365 831 q 258 655 281 722 q 236 515 236 588 q 275 331 236 418 q 389 190 314 244 q 574 135 464 135 z "},"Ộ":{"ha":1149,"x_min":69,"x_max":1079,"o":"m 338 1143 l 510 1350 l 640 1350 l 813 1143 l 678 1143 l 575 1267 l 472 1143 l 338 1143 m 574 -14 q 356 31 450 -14 q 197 152 261 76 q 101 322 133 228 q 69 515 69 417 q 101 708 69 614 q 197 876 133 801 q 356 997 261 951 q 574 1042 450 1042 q 793 997 699 1042 q 951 876 888 951 q 1047 708 1015 801 q 1079 515 1079 614 q 1047 322 1079 417 q 951 152 1015 228 q 793 31 888 76 q 574 -14 699 -14 m 574 135 q 760 190 685 135 q 874 331 835 244 q 913 515 913 418 q 890 655 913 588 q 826 776 868 722 q 720 862 783 831 q 574 893 657 893 q 428 862 492 893 q 323 776 365 831 q 258 655 281 722 q 236 515 236 588 q 275 331 236 418 q 389 190 314 244 q 574 135 464 135 m 574 -325 q 505 -296 532 -325 q 478 -228 478 -267 q 505 -159 478 -187 q 574 -131 532 -131 q 643 -159 615 -131 q 671 -228 671 -187 q 643 -297 671 -268 q 574 -325 615 -325 z "},"Ồ":{"ha":1149,"x_min":69,"x_max":1079,"o":"m 771 1321 l 625 1572 l 781 1572 l 897 1322 l 771 1321 m 338 1143 l 510 1350 l 640 1350 l 813 1143 l 678 1143 l 575 1267 l 472 1143 l 338 1143 m 574 -14 q 356 31 450 -14 q 197 152 261 76 q 101 322 133 228 q 69 515 69 417 q 101 708 69 614 q 197 876 133 801 q 356 997 261 951 q 574 1042 450 1042 q 793 997 699 1042 q 951 876 888 951 q 1047 708 1015 801 q 1079 515 1079 614 q 1047 322 1079 417 q 951 152 1015 228 q 793 31 888 76 q 574 -14 699 -14 m 574 135 q 760 190 685 135 q 874 331 835 244 q 913 515 913 418 q 890 655 913 588 q 826 776 868 722 q 720 862 783 831 q 574 893 657 893 q 428 862 492 893 q 323 776 365 831 q 258 655 281 722 q 236 515 236 588 q 275 331 236 418 q 389 190 314 244 q 574 135 464 135 z "},"Ổ":{"ha":1149,"x_min":69,"x_max":1079,"o":"m 756 1307 l 756 1351 q 762 1381 756 1367 q 785 1404 768 1396 l 806 1415 q 868 1483 868 1446 q 853 1518 868 1503 q 810 1533 839 1533 q 770 1522 783 1533 q 753 1495 757 1510 q 750 1475 750 1481 l 649 1475 q 665 1544 649 1510 q 716 1600 681 1578 q 808 1622 751 1622 q 930 1583 885 1622 q 975 1488 975 1543 q 861 1350 975 1406 l 856 1347 l 856 1307 l 756 1307 m 336 1143 l 508 1350 l 639 1350 l 811 1143 l 676 1143 l 572 1267 l 471 1143 l 336 1143 m 574 -14 q 356 31 450 -14 q 197 152 261 76 q 101 322 133 228 q 69 515 69 417 q 101 708 69 614 q 197 876 133 801 q 356 997 261 951 q 574 1042 450 1042 q 793 997 699 1042 q 951 876 888 951 q 1047 708 1015 801 q 1079 515 1079 614 q 1047 322 1079 417 q 951 152 1015 228 q 793 31 888 76 q 574 -14 699 -14 m 574 135 q 760 190 685 135 q 874 331 835 244 q 913 515 913 418 q 890 655 913 588 q 826 776 868 722 q 720 862 783 831 q 574 893 657 893 q 428 862 492 893 q 323 776 365 831 q 258 655 281 722 q 236 515 236 588 q 275 331 236 418 q 389 190 314 244 q 574 135 464 135 z "},"Ỗ":{"ha":1149,"x_min":69,"x_max":1079,"o":"m 671 1403 q 607 1417 633 1403 q 561 1448 581 1431 q 525 1479 542 1465 q 489 1493 508 1493 q 456 1471 465 1493 q 446 1411 446 1449 l 349 1411 q 360 1499 349 1456 q 399 1570 371 1542 q 479 1599 426 1599 q 543 1585 517 1599 q 589 1554 569 1572 q 625 1523 608 1536 q 661 1510 642 1510 q 692 1532 682 1510 q 703 1592 703 1554 l 799 1592 q 788 1503 799 1547 q 750 1431 778 1460 q 671 1403 722 1403 m 336 1143 l 508 1350 l 639 1350 l 811 1143 l 676 1143 l 574 1267 l 471 1143 l 336 1143 m 574 -14 q 356 31 450 -14 q 197 152 261 76 q 101 322 133 228 q 69 515 69 417 q 101 708 69 614 q 197 876 133 801 q 356 997 261 951 q 574 1042 450 1042 q 793 997 699 1042 q 951 876 888 951 q 1047 708 1015 801 q 1079 515 1079 614 q 1047 322 1079 417 q 951 152 1015 228 q 793 31 888 76 q 574 -14 699 -14 m 574 135 q 760 190 685 135 q 874 331 835 244 q 913 515 913 418 q 890 655 913 588 q 826 776 868 722 q 720 862 783 831 q 574 893 657 893 q 428 862 492 893 q 323 776 365 831 q 258 655 281 722 q 236 515 236 588 q 275 331 236 418 q 389 190 314 244 q 574 135 464 135 z "},"Ö":{"ha":1149,"x_min":69,"x_max":1079,"o":"m 714 1144 q 644 1173 672 1144 q 617 1240 617 1201 q 644 1308 617 1281 q 714 1336 672 1336 q 783 1308 756 1336 q 811 1240 811 1281 q 783 1172 811 1200 q 714 1144 756 1144 m 433 1144 q 363 1173 390 1144 q 336 1240 336 1201 q 363 1308 336 1281 q 433 1336 390 1336 q 503 1308 475 1336 q 531 1240 531 1281 q 503 1172 531 1200 q 433 1144 475 1144 m 574 -14 q 356 31 450 -14 q 197 152 261 76 q 101 322 133 228 q 69 515 69 417 q 101 708 69 614 q 197 876 133 801 q 356 997 261 951 q 574 1042 450 1042 q 793 997 699 1042 q 951 876 888 951 q 1047 708 1015 801 q 1079 515 1079 614 q 1047 322 1079 417 q 951 152 1015 228 q 793 31 888 76 q 574 -14 699 -14 m 574 135 q 760 190 685 135 q 874 331 835 244 q 913 515 913 418 q 890 655 913 588 q 826 776 868 722 q 720 862 783 831 q 574 893 657 893 q 428 862 492 893 q 323 776 365 831 q 258 655 281 722 q 236 515 236 588 q 275 331 236 418 q 389 190 314 244 q 574 135 464 135 z "},"Ọ":{"ha":1149,"x_min":69,"x_max":1079,"o":"m 574 -14 q 356 31 450 -14 q 197 152 261 76 q 101 322 133 228 q 69 515 69 417 q 101 708 69 614 q 197 876 133 801 q 356 997 261 951 q 574 1042 450 1042 q 793 997 699 1042 q 951 876 888 951 q 1047 708 1015 801 q 1079 515 1079 614 q 1047 322 1079 417 q 951 152 1015 228 q 793 31 888 76 q 574 -14 699 -14 m 574 135 q 760 190 685 135 q 874 331 835 244 q 913 515 913 418 q 890 655 913 588 q 826 776 868 722 q 720 862 783 831 q 574 893 657 893 q 428 862 492 893 q 323 776 365 831 q 258 655 281 722 q 236 515 236 588 q 275 331 236 418 q 389 190 314 244 q 574 135 464 135 m 574 -325 q 505 -296 532 -325 q 478 -228 478 -267 q 505 -159 478 -187 q 574 -131 532 -131 q 643 -159 615 -131 q 671 -228 671 -187 q 643 -297 671 -268 q 574 -325 615 -325 z "},"Ò":{"ha":1149,"x_min":69,"x_max":1079,"o":"m 517 1150 l 369 1401 l 526 1401 l 643 1151 l 517 1150 m 574 -14 q 356 31 450 -14 q 197 152 261 76 q 101 322 133 228 q 69 515 69 417 q 101 708 69 614 q 197 876 133 801 q 356 997 261 951 q 574 1042 450 1042 q 793 997 699 1042 q 951 876 888 951 q 1047 708 1015 801 q 1079 515 1079 614 q 1047 322 1079 417 q 951 152 1015 228 q 793 31 888 76 q 574 -14 699 -14 m 574 135 q 760 190 685 135 q 874 331 835 244 q 913 515 913 418 q 890 655 913 588 q 826 776 868 722 q 720 862 783 831 q 574 893 657 893 q 428 862 492 893 q 323 776 365 831 q 258 655 281 722 q 236 515 236 588 q 275 331 236 418 q 389 190 314 244 q 574 135 464 135 z "},"Ỏ":{"ha":1149,"x_min":69,"x_max":1079,"o":"m 525 1138 l 525 1183 q 531 1213 525 1197 q 554 1236 538 1228 l 575 1246 q 638 1315 638 1278 q 623 1349 638 1333 q 579 1364 608 1364 q 540 1352 553 1364 q 523 1326 526 1340 q 519 1306 519 1313 l 418 1306 q 434 1375 418 1342 q 485 1431 450 1408 q 578 1453 521 1453 q 699 1413 654 1453 q 744 1318 744 1374 q 631 1181 744 1236 l 625 1178 l 625 1138 l 525 1138 m 574 -14 q 356 31 450 -14 q 197 152 261 76 q 101 322 133 228 q 69 515 69 417 q 101 708 69 614 q 197 876 133 801 q 356 997 261 951 q 574 1042 450 1042 q 793 997 699 1042 q 951 876 888 951 q 1047 708 1015 801 q 1079 515 1079 614 q 1047 322 1079 417 q 951 152 1015 228 q 793 31 888 76 q 574 -14 699 -14 m 574 135 q 760 190 685 135 q 874 331 835 244 q 913 515 913 418 q 890 655 913 588 q 826 776 868 722 q 720 862 783 831 q 574 893 657 893 q 428 862 492 893 q 323 776 365 831 q 258 655 281 722 q 236 515 236 588 q 275 331 236 418 q 389 190 314 244 q 574 135 464 135 z "},"Ơ":{"ha":1149,"x_min":69,"x_max":1079,"o":"m 574 -14 q 356 31 450 -14 q 197 152 261 76 q 101 322 133 228 q 69 515 69 417 q 101 708 69 614 q 197 876 133 801 q 356 997 261 951 q 574 1042 450 1042 q 592 1042 583 1042 l 813 1042 q 874 1104 874 1042 l 874 1186 l 1018 1186 l 1018 1097 q 986 986 1018 1026 q 883 940 954 946 q 1030 751 981 865 q 1079 515 1079 636 q 1047 322 1079 417 q 951 152 1015 228 q 793 31 888 76 q 574 -14 699 -14 m 574 135 q 760 190 685 135 q 874 331 835 244 q 913 515 913 418 q 890 655 913 588 q 826 776 868 722 q 720 862 783 831 q 574 893 657 893 q 428 862 492 893 q 323 776 365 831 q 258 655 281 722 q 236 515 236 588 q 275 331 236 418 q 389 190 314 244 q 574 135 464 135 z "},"Ớ":{"ha":1149,"x_min":69,"x_max":1079,"o":"m 635 1136 l 508 1138 l 625 1388 l 781 1388 l 635 1136 m 574 -14 q 356 31 450 -14 q 197 152 261 76 q 101 322 133 228 q 69 515 69 417 q 101 708 69 614 q 197 876 133 801 q 356 997 261 951 q 574 1042 450 1042 q 592 1042 583 1042 l 813 1042 q 874 1104 874 1042 l 874 1186 l 1018 1186 l 1018 1097 q 986 986 1018 1026 q 883 940 954 946 q 1030 751 981 865 q 1079 515 1079 636 q 1047 322 1079 417 q 951 152 1015 228 q 793 31 888 76 q 574 -14 699 -14 m 574 135 q 760 190 685 135 q 874 331 835 244 q 913 515 913 418 q 890 655 913 588 q 826 776 868 722 q 720 862 783 831 q 574 893 657 893 q 428 862 492 893 q 323 776 365 831 q 258 655 281 722 q 236 515 236 588 q 275 331 236 418 q 389 190 314 244 q 574 135 464 135 z "},"Ợ":{"ha":1149,"x_min":69,"x_max":1079,"o":"m 574 -14 q 356 31 450 -14 q 197 152 261 76 q 101 322 133 228 q 69 515 69 417 q 101 708 69 614 q 197 876 133 801 q 356 997 261 951 q 574 1042 450 1042 q 592 1042 583 1042 l 813 1042 q 874 1104 874 1042 l 874 1186 l 1018 1186 l 1018 1097 q 986 986 1018 1026 q 883 940 954 946 q 1030 751 981 865 q 1079 515 1079 636 q 1047 322 1079 417 q 951 152 1015 228 q 793 31 888 76 q 574 -14 699 -14 m 574 135 q 760 190 685 135 q 874 331 835 244 q 913 515 913 418 q 890 655 913 588 q 826 776 868 722 q 720 862 783 831 q 574 893 657 893 q 428 862 492 893 q 323 776 365 831 q 258 655 281 722 q 236 515 236 588 q 275 331 236 418 q 389 190 314 244 q 574 135 464 135 m 571 -325 q 502 -296 529 -325 q 475 -228 475 -267 q 502 -159 475 -187 q 571 -131 529 -131 q 640 -159 613 -131 q 668 -228 668 -187 q 640 -297 668 -268 q 571 -325 613 -325 z "},"Ờ":{"ha":1149,"x_min":69,"x_max":1079,"o":"m 514 1136 l 367 1388 l 524 1388 l 640 1138 l 514 1136 m 574 -14 q 356 31 450 -14 q 197 152 261 76 q 101 322 133 228 q 69 515 69 417 q 101 708 69 614 q 197 876 133 801 q 356 997 261 951 q 574 1042 450 1042 q 592 1042 583 1042 l 813 1042 q 874 1104 874 1042 l 874 1186 l 1018 1186 l 1018 1097 q 986 986 1018 1026 q 883 940 954 946 q 1030 751 981 865 q 1079 515 1079 636 q 1047 322 1079 417 q 951 152 1015 228 q 793 31 888 76 q 574 -14 699 -14 m 574 135 q 760 190 685 135 q 874 331 835 244 q 913 515 913 418 q 890 655 913 588 q 826 776 868 722 q 720 862 783 831 q 574 893 657 893 q 428 862 492 893 q 323 776 365 831 q 258 655 281 722 q 236 515 236 588 q 275 331 236 418 q 389 190 314 244 q 574 135 464 135 z "},"Ở":{"ha":1149,"x_min":69,"x_max":1079,"o":"m 522 1124 l 522 1169 q 528 1199 522 1183 q 551 1222 535 1214 l 572 1232 q 635 1301 635 1264 q 620 1335 635 1319 q 576 1350 606 1350 q 537 1338 550 1350 q 520 1313 524 1326 q 517 1292 517 1299 l 415 1292 q 431 1361 415 1328 q 483 1417 447 1394 q 575 1439 518 1439 q 697 1399 651 1439 q 742 1304 742 1360 q 628 1167 742 1222 l 622 1164 l 622 1124 l 522 1124 m 574 -14 q 356 31 450 -14 q 197 152 261 76 q 101 322 133 228 q 69 515 69 417 q 101 708 69 614 q 197 876 133 801 q 356 997 261 951 q 574 1042 450 1042 q 592 1042 583 1042 l 813 1042 q 874 1104 874 1042 l 874 1186 l 1018 1186 l 1018 1097 q 986 986 1018 1026 q 883 940 954 946 q 1030 751 981 865 q 1079 515 1079 636 q 1047 322 1079 417 q 951 152 1015 228 q 793 31 888 76 q 574 -14 699 -14 m 574 135 q 760 190 685 135 q 874 331 835 244 q 913 515 913 418 q 890 655 913 588 q 826 776 868 722 q 720 862 783 831 q 574 893 657 893 q 428 862 492 893 q 323 776 365 831 q 258 655 281 722 q 236 515 236 588 q 275 331 236 418 q 389 190 314 244 q 574 135 464 135 z "},"Ỡ":{"ha":1149,"x_min":69,"x_max":1079,"o":"m 668 1147 q 605 1161 631 1147 q 560 1192 579 1175 q 523 1224 540 1210 q 488 1238 506 1238 q 454 1215 464 1238 q 444 1156 444 1193 l 347 1156 q 358 1243 347 1200 q 397 1315 369 1286 q 478 1343 425 1343 q 542 1330 515 1343 q 588 1299 568 1317 q 624 1267 607 1281 q 660 1254 640 1254 q 690 1276 681 1254 q 700 1336 700 1297 l 797 1336 q 787 1248 797 1292 q 749 1176 776 1204 q 668 1147 721 1147 m 574 -14 q 356 31 450 -14 q 197 152 261 76 q 101 322 133 228 q 69 515 69 417 q 101 708 69 614 q 197 876 133 801 q 356 997 261 951 q 574 1042 450 1042 q 592 1042 583 1042 l 813 1042 q 874 1104 874 1042 l 874 1186 l 1018 1186 l 1018 1097 q 986 986 1018 1026 q 883 940 954 946 q 1030 751 981 865 q 1079 515 1079 636 q 1047 322 1079 417 q 951 152 1015 228 q 793 31 888 76 q 574 -14 699 -14 m 574 135 q 760 190 685 135 q 874 331 835 244 q 913 515 913 418 q 890 655 913 588 q 826 776 868 722 q 720 862 783 831 q 574 893 657 893 q 428 862 492 893 q 323 776 365 831 q 258 655 281 722 q 236 515 236 588 q 275 331 236 418 q 389 190 314 244 q 574 135 464 135 z "},"Ő":{"ha":1149,"x_min":69,"x_max":1079,"o":"m 517 1150 l 392 1151 l 456 1401 l 610 1401 l 517 1150 m 751 1150 l 628 1151 l 692 1401 l 846 1401 l 751 1150 m 574 -14 q 356 31 450 -14 q 197 152 261 76 q 101 322 133 228 q 69 515 69 417 q 101 708 69 614 q 197 876 133 801 q 356 997 261 951 q 574 1042 450 1042 q 793 997 699 1042 q 951 876 888 951 q 1047 708 1015 801 q 1079 515 1079 614 q 1047 322 1079 417 q 951 152 1015 228 q 793 31 888 76 q 574 -14 699 -14 m 574 135 q 760 190 685 135 q 874 331 835 244 q 913 515 913 418 q 890 655 913 588 q 826 776 868 722 q 720 862 783 831 q 574 893 657 893 q 428 862 492 893 q 323 776 365 831 q 258 655 281 722 q 236 515 236 588 q 275 331 236 418 q 389 190 314 244 q 574 135 464 135 z "},"Ō":{"ha":1149,"x_min":69,"x_max":1079,"o":"m 358 1169 l 358 1278 l 790 1278 l 790 1169 l 358 1169 m 574 -14 q 356 31 450 -14 q 197 152 261 76 q 101 322 133 228 q 69 515 69 417 q 101 708 69 614 q 197 876 133 801 q 356 997 261 951 q 574 1042 450 1042 q 793 997 699 1042 q 951 876 888 951 q 1047 708 1015 801 q 1079 515 1079 614 q 1047 322 1079 417 q 951 152 1015 228 q 793 31 888 76 q 574 -14 699 -14 m 574 135 q 760 190 685 135 q 874 331 835 244 q 913 515 913 418 q 890 655 913 588 q 826 776 868 722 q 720 862 783 831 q 574 893 657 893 q 428 862 492 893 q 323 776 365 831 q 258 655 281 722 q 236 515 236 588 q 275 331 236 418 q 389 190 314 244 q 574 135 464 135 z "},"Ø":{"ha":1149,"x_min":69,"x_max":1079,"o":"m 140 -33 l 235 114 q 111 297 153 190 q 69 515 69 403 q 101 708 69 614 q 197 876 133 801 q 356 997 261 951 q 574 1042 450 1042 q 694 1029 638 1042 q 799 994 750 1017 l 840 1060 l 1007 1060 l 914 915 q 1038 733 996 839 q 1079 515 1079 626 q 1047 322 1079 417 q 951 152 1015 228 q 793 31 888 76 q 574 -14 699 -14 q 454 -1 510 -14 q 350 35 399 11 l 307 -33 l 140 -33 m 236 515 q 258 374 236 442 q 324 251 281 306 l 715 864 q 574 893 651 893 q 428 862 492 893 q 323 776 365 831 q 258 655 281 722 q 236 515 236 588 m 574 135 q 760 190 685 135 q 874 331 835 244 q 913 515 913 418 q 890 656 913 588 q 825 776 868 724 l 433 164 q 574 135 497 135 z "},"Õ":{"ha":1149,"x_min":69,"x_max":1079,"o":"m 671 1161 q 608 1175 633 1161 q 563 1206 582 1189 q 526 1238 543 1224 q 490 1251 508 1251 q 457 1229 467 1251 q 447 1169 447 1207 l 350 1169 q 361 1257 350 1214 q 400 1328 372 1300 q 481 1357 428 1357 q 544 1344 518 1357 q 590 1313 571 1331 q 626 1281 610 1294 q 663 1268 643 1268 q 693 1290 683 1268 q 703 1350 703 1311 l 800 1350 q 790 1262 800 1306 q 751 1190 779 1218 q 671 1161 724 1161 m 574 -14 q 356 31 450 -14 q 197 152 261 76 q 101 322 133 228 q 69 515 69 417 q 101 708 69 614 q 197 876 133 801 q 356 997 261 951 q 574 1042 450 1042 q 793 997 699 1042 q 951 876 888 951 q 1047 708 1015 801 q 1079 515 1079 614 q 1047 322 1079 417 q 951 152 1015 228 q 793 31 888 76 q 574 -14 699 -14 m 574 135 q 760 190 685 135 q 874 331 835 244 q 913 515 913 418 q 890 655 913 588 q 826 776 868 722 q 720 862 783 831 q 574 893 657 893 q 428 862 492 893 q 323 776 365 831 q 258 655 281 722 q 236 515 236 588 q 275 331 236 418 q 389 190 314 244 q 574 135 464 135 z "},"Œ":{"ha":1408,"x_min":69,"x_max":1321,"o":"m 1314 1028 l 1314 886 l 817 886 l 817 593 l 1250 593 l 1250 453 l 817 453 l 817 142 l 1321 142 l 1321 0 l 594 0 q 360 44 460 0 q 197 161 261 88 q 101 326 132 235 q 69 514 69 418 q 101 701 69 610 q 197 867 132 793 q 360 984 261 940 q 594 1028 460 1028 l 1314 1028 m 232 514 q 253 378 232 444 q 319 258 275 311 q 433 174 364 206 q 599 142 503 142 l 654 142 l 654 885 l 599 885 q 433 853 503 885 q 319 769 364 822 q 253 649 275 715 q 232 514 232 583 z "},"P":{"ha":911,"x_min":106,"x_max":854,"o":"m 106 0 l 106 1028 l 492 1028 q 693 978 613 1028 q 814 852 774 929 q 854 690 854 775 q 814 528 854 606 q 693 401 774 450 q 492 351 613 351 l 268 351 l 268 0 l 106 0 m 492 886 l 268 886 l 268 493 l 492 493 q 603 522 558 493 q 669 595 647 550 q 692 689 692 640 q 669 784 692 739 q 603 858 647 829 q 492 886 558 886 z "},"Þ":{"ha":911,"x_min":106,"x_max":854,"o":"m 106 0 l 106 1028 l 268 1028 l 268 853 l 492 853 q 693 803 613 853 q 814 676 774 754 q 854 515 854 599 q 814 351 854 429 q 693 224 774 274 q 492 175 613 175 l 268 175 l 268 0 l 106 0 m 492 710 l 268 710 l 268 317 l 492 317 q 603 346 558 317 q 669 419 647 375 q 692 514 692 464 q 669 608 692 563 q 603 681 647 653 q 492 710 558 710 z "},"Q":{"ha":1143,"x_min":69,"x_max":1104,"o":"m 574 -14 q 356 31 450 -14 q 197 152 261 76 q 101 322 133 228 q 69 515 69 417 q 101 708 69 614 q 197 876 133 801 q 356 997 261 951 q 574 1042 450 1042 q 793 997 699 1042 q 951 876 888 951 q 1047 708 1015 801 q 1079 515 1079 614 q 1048 324 1079 418 q 954 156 1017 229 l 1104 0 l 914 0 l 851 64 q 726 7 796 28 q 574 -14 657 -14 m 574 135 q 664 146 622 135 q 740 178 706 157 l 579 344 l 682 438 l 842 272 q 894 386 876 324 q 913 515 913 449 q 890 655 913 588 q 826 776 868 722 q 720 862 783 831 q 574 893 657 893 q 428 862 492 893 q 323 776 365 831 q 258 655 281 722 q 236 515 236 588 q 275 331 236 418 q 389 190 314 244 q 574 135 464 135 z "},"R":{"ha":949,"x_min":106,"x_max":858,"o":"m 106 0 l 106 1028 l 488 1028 q 673 985 597 1028 q 788 874 749 943 q 826 725 826 806 q 772 549 826 628 q 611 438 717 469 l 858 0 l 676 0 l 443 419 l 268 419 l 268 0 l 106 0 m 485 886 l 268 886 l 268 556 l 485 556 q 617 606 572 556 q 661 721 661 657 q 617 835 661 785 q 485 886 572 886 z "},"Ŕ":{"ha":960,"x_min":117,"x_max":869,"o":"m 451 1136 l 324 1138 l 440 1388 l 597 1388 l 451 1136 m 117 0 l 117 1028 l 499 1028 q 684 985 608 1028 q 799 874 760 943 q 838 725 838 806 q 783 549 838 628 q 622 438 728 469 l 869 0 l 688 0 l 454 419 l 279 419 l 279 0 l 117 0 m 496 886 l 279 886 l 279 556 l 496 556 q 628 606 583 556 q 672 721 672 657 q 628 835 672 785 q 496 886 583 886 z "},"Ř":{"ha":960,"x_min":117,"x_max":869,"o":"m 322 1117 l 150 1354 l 285 1354 l 388 1207 l 490 1354 l 625 1354 l 453 1117 l 322 1117 m 117 0 l 117 1028 l 499 1028 q 684 985 608 1028 q 799 874 760 943 q 838 725 838 806 q 783 549 838 628 q 622 438 728 469 l 869 0 l 688 0 l 454 419 l 279 419 l 279 0 l 117 0 m 496 886 l 279 886 l 279 556 l 496 556 q 628 606 583 556 q 672 721 672 657 q 628 835 672 785 q 496 886 583 886 z "},"S":{"ha":896,"x_min":68,"x_max":836,"o":"m 463 -14 q 305 10 371 -14 q 196 70 239 33 q 127 149 153 107 q 89 227 101 190 q 72 288 76 264 q 68 311 68 311 l 233 311 q 238 292 233 311 q 254 247 242 274 q 292 192 267 219 q 360 147 318 165 q 468 128 403 128 q 620 174 565 128 q 675 290 675 219 q 634 385 675 351 q 514 438 593 419 l 378 469 q 237 519 301 486 q 133 607 172 551 q 93 747 93 663 q 138 905 93 839 q 263 1006 183 971 q 446 1042 343 1042 q 611 1012 546 1042 q 715 939 676 982 q 773 852 754 896 q 797 778 792 808 q 803 749 803 749 l 644 749 q 639 772 644 749 q 613 825 633 794 q 552 878 593 856 q 442 901 511 901 q 299 857 346 901 q 251 758 251 813 q 292 674 251 706 q 400 628 332 643 l 546 593 q 692 539 626 575 q 797 444 758 503 q 836 300 836 385 q 794 142 836 214 q 668 28 751 71 q 463 -14 585 -14 z "},"Ś":{"ha":896,"x_min":68,"x_max":836,"o":"m 513 1136 l 385 1138 l 503 1388 l 658 1388 l 513 1136 m 463 -14 q 305 10 371 -14 q 196 70 239 33 q 127 149 153 107 q 89 227 101 190 q 72 288 76 264 q 68 311 68 311 l 233 311 q 238 292 233 311 q 254 247 242 274 q 292 192 267 219 q 360 147 318 165 q 468 128 403 128 q 620 174 565 128 q 675 290 675 219 q 634 385 675 351 q 514 438 593 419 l 378 469 q 237 519 301 486 q 133 607 172 551 q 93 747 93 663 q 138 905 93 839 q 263 1006 183 971 q 446 1042 343 1042 q 611 1012 546 1042 q 715 939 676 982 q 773 852 754 896 q 797 778 792 808 q 803 749 803 749 l 644 749 q 639 772 644 749 q 613 825 633 794 q 552 878 593 856 q 442 901 511 901 q 299 857 346 901 q 251 758 251 813 q 292 674 251 706 q 400 628 332 643 l 546 593 q 692 539 626 575 q 797 444 758 503 q 836 300 836 385 q 794 142 836 214 q 668 28 751 71 q 463 -14 585 -14 z "},"Š":{"ha":896,"x_min":68,"x_max":836,"o":"m 383 1117 l 213 1354 l 347 1354 l 449 1207 l 551 1354 l 686 1354 l 515 1117 l 383 1117 m 463 -14 q 305 10 371 -14 q 196 70 239 33 q 127 149 153 107 q 89 227 101 190 q 72 288 76 264 q 68 311 68 311 l 233 311 q 238 292 233 311 q 254 247 242 274 q 292 192 267 219 q 360 147 318 165 q 468 128 403 128 q 620 174 565 128 q 675 290 675 219 q 634 385 675 351 q 514 438 593 419 l 378 469 q 237 519 301 486 q 133 607 172 551 q 93 747 93 663 q 138 905 93 839 q 263 1006 183 971 q 446 1042 343 1042 q 611 1012 546 1042 q 715 939 676 982 q 773 852 754 896 q 797 778 792 808 q 803 749 803 749 l 644 749 q 639 772 644 749 q 613 825 633 794 q 552 878 593 856 q 442 901 511 901 q 299 857 346 901 q 251 758 251 813 q 292 674 251 706 q 400 628 332 643 l 546 593 q 692 539 626 575 q 797 444 758 503 q 836 300 836 385 q 794 142 836 214 q 668 28 751 71 q 463 -14 585 -14 z "},"Ş":{"ha":896,"x_min":68,"x_max":836,"o":"m 415 -361 q 347 -356 381 -361 q 313 -351 313 -351 l 313 -262 q 328 -265 313 -262 q 367 -269 344 -267 q 408 -271 389 -271 q 489 -249 468 -271 q 510 -204 510 -226 q 492 -165 510 -182 q 442 -149 475 -149 q 386 -162 408 -149 q 364 -175 364 -175 l 306 -117 l 374 -7 q 233 43 289 7 q 143 124 176 79 q 94 213 110 169 q 73 283 78 256 q 68 311 68 311 l 233 311 q 238 292 233 311 q 254 247 242 274 q 292 192 267 219 q 360 147 318 165 q 468 128 403 128 q 620 174 565 128 q 675 290 675 219 q 634 385 675 351 q 514 438 593 419 l 378 469 q 237 519 301 486 q 133 607 172 551 q 93 747 93 663 q 138 905 93 839 q 263 1006 183 971 q 446 1042 343 1042 q 611 1012 546 1042 q 715 939 676 982 q 773 852 754 896 q 797 778 792 808 q 803 749 803 749 l 644 749 q 639 772 644 749 q 613 825 633 794 q 552 878 593 856 q 442 901 511 901 q 299 857 346 901 q 251 758 251 813 q 292 674 251 706 q 400 628 332 643 l 546 593 q 692 539 626 575 q 797 444 758 503 q 836 300 836 385 q 795 145 836 215 q 674 32 754 75 q 475 -14 593 -11 l 438 -71 q 475 -67 456 -67 q 577 -108 540 -67 q 614 -203 614 -149 q 594 -278 614 -242 q 530 -337 574 -314 q 415 -361 486 -361 z "},"ẞ":{"ha":954,"x_min":106,"x_max":882,"o":"m 493 -14 q 403 -9 440 -14 q 365 -4 365 -4 l 365 131 q 398 126 365 131 q 472 122 431 122 q 615 147 561 122 q 694 213 669 172 q 718 299 718 253 q 658 418 718 374 q 481 463 599 463 l 446 463 l 446 557 l 674 888 q 652 892 674 888 q 598 901 631 897 q 529 906 565 906 q 333 831 401 906 q 265 621 265 756 l 265 -3 l 106 -3 l 106 621 q 128 777 106 701 q 202 913 151 853 q 336 1007 253 972 q 539 1042 419 1042 q 694 1026 625 1042 q 805 996 764 1011 q 846 981 846 981 l 846 904 l 613 567 q 750 519 689 557 q 847 424 811 482 q 882 293 882 365 q 842 144 882 214 q 716 30 801 74 q 493 -14 631 -14 z "},"T":{"ha":919,"x_min":60,"x_max":860,"o":"m 379 0 l 379 886 l 60 886 l 60 1028 l 860 1028 l 860 886 l 540 886 l 540 0 l 379 0 z "},"Ŧ":{"ha":919,"x_min":60,"x_max":860,"o":"m 379 0 l 379 449 l 114 449 l 114 579 l 379 579 l 379 886 l 60 886 l 60 1028 l 860 1028 l 860 886 l 540 886 l 540 579 l 804 579 l 804 449 l 540 449 l 540 0 l 379 0 z "},"Ť":{"ha":919,"x_min":60,"x_max":860,"o":"m 394 1114 l 222 1351 l 357 1351 l 460 1204 l 563 1351 l 697 1351 l 525 1114 l 394 1114 m 379 0 l 379 886 l 60 886 l 60 1028 l 860 1028 l 860 886 l 540 886 l 540 0 l 379 0 z "},"Ţ":{"ha":919,"x_min":60,"x_max":860,"o":"m 379 0 l 379 886 l 60 886 l 60 1028 l 860 1028 l 860 886 l 540 886 l 540 0 l 535 0 l 489 -71 q 525 -67 506 -67 q 627 -108 590 -67 q 664 -203 664 -149 q 644 -278 664 -242 q 580 -337 624 -314 q 465 -361 536 -361 q 397 -356 431 -361 q 363 -351 363 -351 l 363 -262 q 378 -265 363 -262 q 417 -269 394 -267 q 458 -271 439 -271 q 539 -249 518 -271 q 560 -204 560 -226 q 542 -165 560 -182 q 492 -149 525 -149 q 436 -162 458 -149 q 414 -175 414 -175 l 356 -117 l 429 0 l 379 0 z "},"U":{"ha":1013,"x_min":106,"x_max":907,"o":"m 506 -14 q 297 31 388 -14 q 156 163 207 76 q 106 376 106 250 l 106 1028 l 268 1028 l 268 376 q 326 208 268 276 q 506 139 385 139 q 686 208 628 139 q 744 376 744 276 l 744 1028 l 907 1028 l 907 376 q 856 163 907 250 q 715 31 806 76 q 506 -14 624 -14 z "},"Ú":{"ha":1035,"x_min":117,"x_max":918,"o":"m 576 1136 l 449 1138 l 565 1388 l 722 1388 l 576 1136 m 517 -14 q 308 31 399 -14 q 167 163 218 76 q 117 376 117 250 l 117 1028 l 279 1028 l 279 376 q 338 208 279 276 q 517 139 396 139 q 697 208 639 139 q 756 376 756 276 l 756 1028 l 918 1028 l 918 376 q 867 163 918 250 q 726 31 817 76 q 517 -14 635 -14 z "},"Û":{"ha":1035,"x_min":117,"x_max":918,"o":"m 276 1129 l 447 1367 l 579 1367 l 750 1129 l 615 1129 l 513 1276 l 411 1129 l 276 1129 m 517 -14 q 308 31 399 -14 q 167 163 218 76 q 117 376 117 250 l 117 1028 l 279 1028 l 279 376 q 338 208 279 276 q 517 139 396 139 q 697 208 639 139 q 756 376 756 276 l 756 1028 l 918 1028 l 918 376 q 867 163 918 250 q 726 31 817 76 q 517 -14 635 -14 z "},"Ü":{"ha":1035,"x_min":117,"x_max":918,"o":"m 653 1131 q 583 1159 610 1131 q 556 1226 556 1188 q 583 1294 556 1267 q 653 1322 610 1322 q 722 1294 694 1322 q 750 1226 750 1267 q 722 1158 750 1186 q 653 1131 694 1131 m 372 1131 q 302 1159 329 1131 q 275 1226 275 1188 q 302 1294 275 1267 q 372 1322 329 1322 q 442 1294 414 1322 q 469 1226 469 1267 q 442 1158 469 1186 q 372 1131 414 1131 m 517 -14 q 308 31 399 -14 q 167 163 218 76 q 117 376 117 250 l 117 1028 l 279 1028 l 279 376 q 338 208 279 276 q 517 139 396 139 q 697 208 639 139 q 756 376 756 276 l 756 1028 l 918 1028 l 918 376 q 867 163 918 250 q 726 31 817 76 q 517 -14 635 -14 z "},"Ụ":{"ha":1035,"x_min":117,"x_max":918,"o":"m 517 -14 q 308 31 399 -14 q 167 163 218 76 q 117 376 117 250 l 117 1028 l 279 1028 l 279 376 q 338 208 279 276 q 517 139 396 139 q 697 208 639 139 q 756 376 756 276 l 756 1028 l 918 1028 l 918 376 q 867 163 918 250 q 726 31 817 76 q 517 -14 635 -14 m 511 -325 q 441 -296 468 -325 q 414 -228 414 -267 q 441 -159 414 -187 q 511 -131 468 -131 q 579 -159 551 -131 q 607 -228 607 -187 q 579 -297 607 -268 q 511 -325 551 -325 z "},"Ù":{"ha":1035,"x_min":117,"x_max":918,"o":"m 454 1136 l 308 1388 l 464 1388 l 582 1138 l 454 1136 m 517 -14 q 308 31 399 -14 q 167 163 218 76 q 117 376 117 250 l 117 1028 l 279 1028 l 279 376 q 338 208 279 276 q 517 139 396 139 q 697 208 639 139 q 756 376 756 276 l 756 1028 l 918 1028 l 918 376 q 867 163 918 250 q 726 31 817 76 q 517 -14 635 -14 z "},"Ủ":{"ha":1035,"x_min":117,"x_max":918,"o":"m 463 1124 l 463 1169 q 469 1199 463 1183 q 493 1222 475 1214 l 513 1232 q 575 1301 575 1264 q 561 1335 575 1319 q 518 1350 547 1350 q 478 1338 490 1350 q 462 1313 465 1326 q 458 1292 458 1299 l 357 1292 q 372 1361 356 1328 q 424 1417 389 1394 q 517 1439 460 1439 q 638 1399 593 1439 q 682 1304 682 1360 q 569 1167 682 1222 l 564 1164 l 564 1124 l 463 1124 m 517 -14 q 308 31 399 -14 q 167 163 218 76 q 117 376 117 250 l 117 1028 l 279 1028 l 279 376 q 338 208 279 276 q 517 139 396 139 q 697 208 639 139 q 756 376 756 276 l 756 1028 l 918 1028 l 918 376 q 867 163 918 250 q 726 31 817 76 q 517 -14 635 -14 z "},"Ư":{"ha":1035,"x_min":117,"x_max":1082,"o":"m 517 -14 q 308 31 399 -14 q 167 163 218 76 q 117 376 117 250 l 117 1028 l 279 1028 l 279 376 q 338 208 279 276 q 517 139 396 139 q 697 208 639 139 q 756 376 756 276 l 756 1028 l 885 1028 q 940 1085 940 1028 l 940 1172 l 1082 1172 l 1082 1083 q 1046 975 1082 1018 q 936 932 1010 932 l 918 932 l 918 376 q 867 163 918 250 q 726 31 817 76 q 517 -14 635 -14 z "},"Ứ":{"ha":1035,"x_min":117,"x_max":1082,"o":"m 593 1136 l 465 1138 l 582 1388 l 739 1388 l 593 1136 m 517 -14 q 308 31 399 -14 q 167 163 218 76 q 117 376 117 250 l 117 1028 l 279 1028 l 279 376 q 338 208 279 276 q 517 139 396 139 q 697 208 639 139 q 756 376 756 276 l 756 1028 l 885 1028 q 940 1085 940 1028 l 940 1172 l 1082 1172 l 1082 1083 q 1046 975 1082 1018 q 936 932 1010 932 l 918 932 l 918 376 q 867 163 918 250 q 726 31 817 76 q 517 -14 635 -14 z "},"Ự":{"ha":1035,"x_min":117,"x_max":1082,"o":"m 517 -14 q 308 31 399 -14 q 167 163 218 76 q 117 376 117 250 l 117 1028 l 279 1028 l 279 376 q 338 208 279 276 q 517 139 396 139 q 697 208 639 139 q 756 376 756 276 l 756 1028 l 885 1028 q 940 1085 940 1028 l 940 1172 l 1082 1172 l 1082 1083 q 1046 975 1082 1018 q 936 932 1010 932 l 918 932 l 918 376 q 867 163 918 250 q 726 31 817 76 q 517 -14 635 -14 m 529 -325 q 459 -296 486 -325 q 432 -228 432 -267 q 459 -159 432 -187 q 529 -131 486 -131 q 599 -159 571 -131 q 626 -228 626 -187 q 599 -297 626 -268 q 529 -325 571 -325 z "},"Ừ":{"ha":1035,"x_min":117,"x_max":1082,"o":"m 471 1136 l 325 1388 l 481 1388 l 599 1138 l 471 1136 m 517 -14 q 308 31 399 -14 q 167 163 218 76 q 117 376 117 250 l 117 1028 l 279 1028 l 279 376 q 338 208 279 276 q 517 139 396 139 q 697 208 639 139 q 756 376 756 276 l 756 1028 l 885 1028 q 940 1085 940 1028 l 940 1172 l 1082 1172 l 1082 1083 q 1046 975 1082 1018 q 936 932 1010 932 l 918 932 l 918 376 q 867 163 918 250 q 726 31 817 76 q 517 -14 635 -14 z "},"Ử":{"ha":1035,"x_min":117,"x_max":1082,"o":"m 479 1124 l 479 1169 q 485 1199 479 1183 q 510 1222 492 1214 l 529 1232 q 592 1301 592 1264 q 578 1335 592 1319 q 535 1350 564 1350 q 494 1338 507 1350 q 478 1313 482 1326 q 475 1292 475 1299 l 374 1292 q 389 1361 372 1328 q 441 1417 406 1394 q 533 1439 476 1439 q 654 1399 610 1439 q 699 1304 699 1360 q 586 1167 699 1222 l 581 1164 l 581 1124 l 479 1124 m 517 -14 q 308 31 399 -14 q 167 163 218 76 q 117 376 117 250 l 117 1028 l 279 1028 l 279 376 q 338 208 279 276 q 517 139 396 139 q 697 208 639 139 q 756 376 756 276 l 756 1028 l 885 1028 q 940 1085 940 1028 l 940 1172 l 1082 1172 l 1082 1083 q 1046 975 1082 1018 q 936 932 1010 932 l 918 932 l 918 376 q 867 163 918 250 q 726 31 817 76 q 517 -14 635 -14 z "},"Ữ":{"ha":1035,"x_min":117,"x_max":1082,"o":"m 626 1147 q 563 1161 589 1147 q 517 1192 536 1175 q 481 1224 497 1210 q 444 1238 464 1238 q 411 1215 421 1238 q 401 1156 401 1193 l 306 1156 q 316 1243 306 1200 q 355 1315 326 1286 q 435 1343 383 1343 q 500 1330 474 1343 q 546 1299 526 1317 q 582 1267 565 1281 q 617 1254 599 1254 q 649 1276 639 1254 q 658 1336 658 1297 l 756 1336 q 744 1248 756 1292 q 706 1176 733 1204 q 626 1147 678 1147 m 517 -14 q 308 31 399 -14 q 167 163 218 76 q 117 376 117 250 l 117 1028 l 279 1028 l 279 376 q 338 208 279 276 q 517 139 396 139 q 697 208 639 139 q 756 376 756 276 l 756 1028 l 885 1028 q 940 1085 940 1028 l 940 1172 l 1082 1172 l 1082 1083 q 1046 975 1082 1018 q 936 932 1010 932 l 918 932 l 918 376 q 867 163 918 250 q 726 31 817 76 q 517 -14 635 -14 z "},"Ű":{"ha":1035,"x_min":117,"x_max":918,"o":"m 454 1136 l 331 1138 l 394 1388 l 547 1388 l 454 1136 m 690 1136 l 567 1138 l 631 1388 l 783 1388 l 690 1136 m 517 -14 q 308 31 399 -14 q 167 163 218 76 q 117 376 117 250 l 117 1028 l 279 1028 l 279 376 q 338 208 279 276 q 517 139 396 139 q 697 208 639 139 q 756 376 756 276 l 756 1028 l 918 1028 l 918 376 q 867 163 918 250 q 726 31 817 76 q 517 -14 635 -14 z "},"Ū":{"ha":1035,"x_min":117,"x_max":918,"o":"m 296 1156 l 296 1264 l 729 1264 l 729 1156 l 296 1156 m 517 -14 q 308 31 399 -14 q 167 163 218 76 q 117 376 117 250 l 117 1028 l 279 1028 l 279 376 q 338 208 279 276 q 517 139 396 139 q 697 208 639 139 q 756 376 756 276 l 756 1028 l 918 1028 l 918 376 q 867 163 918 250 q 726 31 817 76 q 517 -14 635 -14 z "},"Ų":{"ha":1035,"x_min":117,"x_max":918,"o":"m 568 -250 q 436 -212 479 -250 q 393 -121 393 -175 q 413 -54 393 -81 q 456 -11 432 -28 q 210 105 304 6 q 117 376 117 204 l 117 1028 l 279 1028 l 279 376 q 338 208 279 276 q 517 139 396 139 q 697 208 639 139 q 756 376 756 276 l 756 1028 l 918 1028 l 918 376 q 826 107 918 206 q 585 -10 735 8 q 560 -24 576 -14 q 531 -52 544 -35 q 517 -93 517 -69 q 535 -133 517 -117 q 594 -150 554 -150 q 628 -147 613 -150 q 644 -144 644 -144 l 644 -243 q 622 -247 644 -243 q 568 -250 600 -250 z "},"Ů":{"ha":1035,"x_min":117,"x_max":918,"o":"m 513 1121 q 421 1145 463 1121 q 355 1211 379 1169 q 331 1303 331 1253 q 355 1394 331 1353 q 421 1459 379 1435 q 513 1483 463 1483 q 603 1459 563 1483 q 669 1394 644 1435 q 694 1303 694 1353 q 669 1211 694 1253 q 603 1145 644 1169 q 513 1121 563 1121 m 513 1222 q 569 1246 546 1222 q 593 1303 593 1269 q 569 1360 593 1336 q 513 1383 546 1383 q 454 1360 478 1383 q 431 1303 431 1336 q 454 1246 431 1269 q 513 1222 478 1222 m 517 -14 q 308 31 399 -14 q 167 163 218 76 q 117 376 117 250 l 117 1028 l 279 1028 l 279 376 q 338 208 279 276 q 517 139 396 139 q 697 208 639 139 q 756 376 756 276 l 756 1028 l 918 1028 l 918 376 q 867 163 918 250 q 726 31 817 76 q 517 -14 635 -14 z "},"Ũ":{"ha":1035,"x_min":117,"x_max":918,"o":"m 610 1147 q 546 1161 572 1147 q 500 1192 519 1175 q 464 1224 481 1210 q 428 1238 447 1238 q 394 1215 404 1238 q 385 1156 385 1193 l 289 1156 q 299 1243 289 1200 q 338 1315 310 1286 q 418 1343 367 1343 q 483 1330 457 1343 q 529 1299 510 1317 q 565 1267 549 1281 q 600 1254 582 1254 q 632 1276 622 1254 q 642 1336 642 1297 l 739 1336 q 728 1248 739 1292 q 689 1176 717 1204 q 610 1147 661 1147 m 517 -14 q 308 31 399 -14 q 167 163 218 76 q 117 376 117 250 l 117 1028 l 279 1028 l 279 376 q 338 208 279 276 q 517 139 396 139 q 697 208 639 139 q 756 376 756 276 l 756 1028 l 918 1028 l 918 376 q 867 163 918 250 q 726 31 817 76 q 517 -14 635 -14 z "},"V":{"ha":999,"x_min":36,"x_max":963,"o":"m 394 0 l 36 1028 l 207 1028 l 500 174 l 792 1028 l 963 1028 l 603 0 l 394 0 z "},"W":{"ha":1419,"x_min":50,"x_max":1369,"o":"m 318 0 l 50 1028 l 215 1028 l 417 228 l 629 1028 l 792 1028 l 1004 229 l 1204 1028 l 1369 1028 l 1101 0 l 907 0 l 710 744 l 513 0 l 318 0 z "},"Ẃ":{"ha":1381,"x_min":31,"x_max":1350,"o":"m 754 1136 l 628 1138 l 744 1388 l 900 1388 l 754 1136 m 299 0 l 31 1028 l 196 1028 l 397 228 l 610 1028 l 772 1028 l 985 229 l 1185 1028 l 1350 1028 l 1082 0 l 888 0 l 690 744 l 493 0 l 299 0 z "},"Ŵ":{"ha":1381,"x_min":31,"x_max":1350,"o":"m 454 1129 l 626 1367 l 757 1367 l 929 1129 l 794 1129 l 692 1276 l 589 1129 l 454 1129 m 299 0 l 31 1028 l 196 1028 l 397 228 l 610 1028 l 772 1028 l 985 229 l 1185 1028 l 1350 1028 l 1082 0 l 888 0 l 690 744 l 493 0 l 299 0 z "},"Ẅ":{"ha":1381,"x_min":31,"x_max":1350,"o":"m 831 1131 q 762 1159 789 1131 q 735 1226 735 1188 q 762 1294 735 1267 q 831 1322 789 1322 q 900 1294 872 1322 q 928 1226 928 1267 q 900 1158 928 1186 q 831 1131 872 1131 m 550 1131 q 481 1159 508 1131 q 453 1226 453 1188 q 481 1294 453 1267 q 550 1322 508 1322 q 619 1294 592 1322 q 647 1226 647 1267 q 619 1158 647 1186 q 550 1131 592 1131 m 299 0 l 31 1028 l 196 1028 l 397 228 l 610 1028 l 772 1028 l 985 229 l 1185 1028 l 1350 1028 l 1082 0 l 888 0 l 690 744 l 493 0 l 299 0 z "},"Ẁ":{"ha":1381,"x_min":31,"x_max":1350,"o":"m 633 1136 l 488 1388 l 643 1388 l 760 1138 l 633 1136 m 299 0 l 31 1028 l 196 1028 l 397 228 l 610 1028 l 772 1028 l 985 229 l 1185 1028 l 1350 1028 l 1082 0 l 888 0 l 690 744 l 493 0 l 299 0 z "},"X":{"ha":1022,"x_min":74,"x_max":949,"o":"m 74 0 l 400 514 l 74 1028 l 267 1028 l 511 635 l 756 1028 l 949 1028 l 619 514 l 949 0 l 756 0 l 511 394 l 267 0 l 74 0 z "},"Y":{"ha":949,"x_min":33,"x_max":915,"o":"m 393 0 l 393 361 l 33 1028 l 211 1028 l 474 526 l 738 1028 l 915 1028 l 554 361 l 554 0 l 393 0 z "},"Ý":{"ha":949,"x_min":33,"x_max":915,"o":"m 542 1132 l 414 1133 l 532 1383 l 688 1383 l 542 1132 m 393 0 l 393 361 l 33 1028 l 211 1028 l 474 526 l 738 1028 l 915 1028 l 554 361 l 554 0 l 393 0 z "},"Ŷ":{"ha":949,"x_min":33,"x_max":915,"o":"m 242 1125 l 414 1364 l 544 1364 l 717 1125 l 582 1125 l 478 1272 l 376 1125 l 242 1125 m 393 0 l 393 361 l 33 1028 l 211 1028 l 474 526 l 738 1028 l 915 1028 l 554 361 l 554 0 l 393 0 z "},"Ÿ":{"ha":949,"x_min":33,"x_max":915,"o":"m 618 1128 q 548 1156 575 1128 q 521 1222 521 1185 q 548 1290 521 1263 q 618 1318 575 1318 q 688 1290 660 1318 q 715 1222 715 1263 q 688 1156 715 1183 q 618 1128 660 1128 m 338 1128 q 267 1156 294 1128 q 240 1222 240 1185 q 267 1290 240 1263 q 338 1318 294 1318 q 407 1290 379 1318 q 435 1222 435 1263 q 407 1156 435 1183 q 338 1128 379 1128 m 393 0 l 393 361 l 33 1028 l 211 1028 l 474 526 l 738 1028 l 915 1028 l 554 361 l 554 0 l 393 0 z "},"Ỵ":{"ha":949,"x_min":33,"x_max":915,"o":"m 393 0 l 393 361 l 33 1028 l 211 1028 l 474 526 l 738 1028 l 915 1028 l 554 361 l 554 0 l 393 0 m 478 -325 q 408 -296 435 -325 q 381 -228 381 -267 q 408 -159 381 -187 q 478 -131 435 -131 q 547 -159 519 -131 q 575 -228 575 -187 q 547 -297 575 -268 q 478 -325 519 -325 z "},"Ỳ":{"ha":949,"x_min":33,"x_max":915,"o":"m 419 1132 l 274 1383 l 431 1383 l 547 1133 l 419 1132 m 393 0 l 393 361 l 33 1028 l 211 1028 l 474 526 l 738 1028 l 915 1028 l 554 361 l 554 0 l 393 0 z "},"Ỷ":{"ha":949,"x_min":33,"x_max":915,"o":"m 429 1121 l 429 1165 q 435 1195 429 1181 q 458 1218 442 1210 l 479 1229 q 542 1297 542 1260 q 527 1332 542 1317 q 483 1347 513 1347 q 444 1335 457 1347 q 427 1309 431 1324 q 424 1289 424 1294 l 322 1289 q 338 1358 321 1324 q 390 1414 354 1392 q 482 1436 425 1436 q 603 1397 558 1436 q 647 1301 647 1357 q 535 1164 647 1219 l 529 1161 l 529 1121 l 429 1121 m 393 0 l 393 361 l 33 1028 l 211 1028 l 474 526 l 738 1028 l 915 1028 l 554 361 l 554 0 l 393 0 z "},"Ỹ":{"ha":949,"x_min":33,"x_max":915,"o":"m 575 1144 q 511 1158 538 1144 q 466 1189 485 1171 q 430 1220 447 1207 q 393 1233 413 1233 q 361 1211 371 1233 q 351 1153 351 1189 l 254 1153 q 265 1240 254 1196 q 303 1312 275 1283 q 383 1340 332 1340 q 449 1326 422 1340 q 494 1295 475 1313 q 531 1265 514 1278 q 565 1251 547 1251 q 597 1273 588 1251 q 607 1332 607 1294 l 704 1332 q 694 1245 704 1289 q 655 1173 683 1201 q 575 1144 626 1144 m 393 0 l 393 361 l 33 1028 l 211 1028 l 474 526 l 738 1028 l 915 1028 l 554 361 l 554 0 l 393 0 z "},"Z":{"ha":919,"x_min":82,"x_max":835,"o":"m 82 0 l 82 121 l 631 886 l 82 886 l 82 1028 l 835 1028 l 835 908 l 285 142 l 835 142 l 835 0 l 82 0 z "},"Ź":{"ha":919,"x_min":82,"x_max":835,"o":"m 508 1136 l 382 1138 l 499 1388 l 654 1388 l 508 1136 m 82 0 l 82 121 l 631 886 l 82 886 l 82 1028 l 835 1028 l 835 908 l 285 142 l 835 142 l 835 0 l 82 0 z "},"Ž":{"ha":919,"x_min":82,"x_max":835,"o":"m 381 1117 l 208 1354 l 343 1354 l 446 1207 l 549 1354 l 683 1354 l 511 1117 l 381 1117 m 82 0 l 82 121 l 631 886 l 82 886 l 82 1028 l 835 1028 l 835 908 l 285 142 l 835 142 l 835 0 l 82 0 z "},"Ż":{"ha":919,"x_min":82,"x_max":835,"o":"m 446 1154 q 374 1183 401 1154 q 346 1251 346 1213 q 374 1320 346 1292 q 446 1349 401 1349 q 516 1320 488 1349 q 544 1251 544 1292 q 516 1183 544 1211 q 446 1154 488 1154 m 82 0 l 82 121 l 631 886 l 82 886 l 82 1028 l 835 1028 l 835 908 l 285 142 l 835 142 l 835 0 l 82 0 z "},"a":{"ha":899,"x_min":79,"x_max":807,"o":"m 410 750 q 526 728 479 750 q 600 676 572 706 q 640 626 628 647 l 649 626 l 649 736 l 807 736 l 807 0 l 649 0 l 649 110 l 640 110 q 600 60 628 89 q 526 8 572 31 q 410 -14 479 -14 q 265 19 326 -14 q 161 106 203 51 q 99 229 119 161 q 79 368 79 297 q 99 507 79 439 q 161 630 119 575 q 265 717 203 685 q 410 750 326 750 m 444 618 q 331 581 376 618 q 262 488 285 544 q 239 368 239 431 q 262 249 239 306 q 331 155 285 192 q 444 118 376 118 q 558 155 513 118 q 626 249 603 192 q 649 368 649 306 q 626 488 649 431 q 558 581 603 544 q 444 618 513 618 z "},"á":{"ha":911,"x_min":85,"x_max":813,"o":"m 519 844 l 393 846 l 510 1096 l 665 1096 l 519 844 m 415 750 q 531 728 485 750 q 606 676 578 706 q 646 626 633 647 l 654 626 l 654 736 l 813 736 l 813 0 l 654 0 l 654 110 l 646 110 q 606 60 633 89 q 531 8 578 31 q 415 -14 485 -14 q 270 19 332 -14 q 167 106 208 51 q 105 229 125 161 q 85 368 85 297 q 105 507 85 439 q 167 630 125 575 q 270 717 208 685 q 415 750 332 750 m 450 618 q 336 581 382 618 q 267 488 290 544 q 244 368 244 431 q 267 249 244 306 q 336 155 290 192 q 450 118 382 118 q 563 155 518 118 q 631 249 608 192 q 654 368 654 306 q 631 488 654 431 q 563 581 608 544 q 450 618 518 618 z "},"ă":{"ha":911,"x_min":85,"x_max":813,"o":"m 457 836 q 342 858 386 836 q 273 914 297 881 q 239 980 249 947 q 227 1035 229 1013 q 225 1057 225 1057 l 336 1057 q 339 1039 336 1057 q 352 997 342 1021 q 388 956 363 974 q 457 938 413 938 q 526 956 501 938 q 560 997 550 974 q 574 1039 571 1021 q 576 1057 576 1057 l 688 1057 q 686 1035 688 1057 q 674 980 685 1013 q 640 914 664 947 q 571 858 615 881 q 457 836 526 836 m 415 750 q 531 728 485 750 q 606 676 578 706 q 646 626 633 647 l 654 626 l 654 736 l 813 736 l 813 0 l 654 0 l 654 110 l 646 110 q 606 60 633 89 q 531 8 578 31 q 415 -14 485 -14 q 270 19 332 -14 q 167 106 208 51 q 105 229 125 161 q 85 368 85 297 q 105 507 85 439 q 167 630 125 575 q 270 717 208 685 q 415 750 332 750 m 450 618 q 336 581 382 618 q 267 488 290 544 q 244 368 244 431 q 267 249 244 306 q 336 155 290 192 q 450 118 382 118 q 563 155 518 118 q 631 249 608 192 q 654 368 654 306 q 631 488 654 431 q 563 581 608 544 q 450 618 518 618 z "},"ắ":{"ha":911,"x_min":85,"x_max":813,"o":"m 519 1081 l 393 1082 l 510 1332 l 665 1332 l 519 1081 m 457 836 q 344 857 388 836 q 276 908 300 878 q 240 969 251 939 q 227 1020 229 1000 q 225 1040 225 1040 l 336 1040 q 340 1024 336 1040 q 354 988 343 1008 q 390 951 365 967 q 457 935 414 935 q 523 951 499 935 q 559 988 547 967 q 574 1024 571 1008 q 576 1040 576 1040 l 688 1040 q 685 1020 688 1040 q 673 969 683 1000 q 638 908 663 939 q 569 857 613 878 q 457 836 525 836 m 415 750 q 531 728 485 750 q 606 676 578 706 q 646 626 633 647 l 654 626 l 654 736 l 813 736 l 813 0 l 654 0 l 654 110 l 646 110 q 606 60 633 89 q 531 8 578 31 q 415 -14 485 -14 q 270 19 332 -14 q 167 106 208 51 q 105 229 125 161 q 85 368 85 297 q 105 507 85 439 q 167 630 125 575 q 270 717 208 685 q 415 750 332 750 m 450 618 q 336 581 382 618 q 267 488 290 544 q 244 368 244 431 q 267 249 244 306 q 336 155 290 192 q 450 118 382 118 q 563 155 518 118 q 631 249 608 192 q 654 368 654 306 q 631 488 654 431 q 563 581 608 544 q 450 618 518 618 z "},"ặ":{"ha":911,"x_min":85,"x_max":813,"o":"m 457 836 q 342 858 386 836 q 273 914 297 881 q 239 980 249 947 q 227 1035 229 1013 q 225 1057 225 1057 l 336 1057 q 339 1039 336 1057 q 352 997 342 1021 q 388 956 363 974 q 457 938 413 938 q 526 956 501 938 q 560 997 550 974 q 574 1039 571 1021 q 576 1057 576 1057 l 688 1057 q 686 1035 688 1057 q 674 980 685 1013 q 640 914 664 947 q 571 858 615 881 q 457 836 526 836 m 415 750 q 531 728 485 750 q 606 676 578 706 q 646 626 633 647 l 654 626 l 654 736 l 813 736 l 813 0 l 654 0 l 654 110 l 646 110 q 606 60 633 89 q 531 8 578 31 q 415 -14 485 -14 q 270 19 332 -14 q 167 106 208 51 q 105 229 125 161 q 85 368 85 297 q 105 507 85 439 q 167 630 125 575 q 270 717 208 685 q 415 750 332 750 m 450 618 q 336 581 382 618 q 267 488 290 544 q 244 368 244 431 q 267 249 244 306 q 336 155 290 192 q 450 118 382 118 q 563 155 518 118 q 631 249 608 192 q 654 368 654 306 q 631 488 654 431 q 563 581 608 544 q 450 618 518 618 m 457 -325 q 387 -296 414 -325 q 360 -228 360 -267 q 387 -159 360 -187 q 457 -131 414 -131 q 525 -159 497 -131 q 553 -228 553 -187 q 525 -297 553 -268 q 457 -325 497 -325 z "},"ằ":{"ha":911,"x_min":85,"x_max":813,"o":"m 396 1081 l 250 1332 l 406 1332 l 524 1082 l 396 1081 m 454 836 q 341 857 385 836 q 273 908 297 878 q 238 969 249 939 q 225 1020 228 1000 q 222 1040 222 1040 l 335 1040 q 338 1024 335 1040 q 351 988 340 1008 q 387 951 363 967 q 454 935 411 935 q 522 951 497 935 q 557 988 546 967 q 571 1024 568 1008 q 574 1040 574 1040 l 686 1040 q 683 1020 686 1040 q 670 969 681 1000 q 635 908 660 939 q 567 857 611 878 q 454 836 524 836 m 415 750 q 531 728 485 750 q 606 676 578 706 q 646 626 633 647 l 654 626 l 654 736 l 813 736 l 813 0 l 654 0 l 654 110 l 646 110 q 606 60 633 89 q 531 8 578 31 q 415 -14 485 -14 q 270 19 332 -14 q 167 106 208 51 q 105 229 125 161 q 85 368 85 297 q 105 507 85 439 q 167 630 125 575 q 270 717 208 685 q 415 750 332 750 m 450 618 q 336 581 382 618 q 267 488 290 544 q 244 368 244 431 q 267 249 244 306 q 336 155 290 192 q 450 118 382 118 q 563 155 518 118 q 631 249 608 192 q 654 368 654 306 q 631 488 654 431 q 563 581 608 544 q 450 618 518 618 z "},"ẳ":{"ha":911,"x_min":85,"x_max":813,"o":"m 404 1069 l 404 1114 q 410 1144 404 1129 q 435 1167 417 1158 l 454 1178 q 517 1246 517 1208 q 503 1281 517 1265 q 460 1296 489 1296 q 419 1284 432 1296 q 403 1258 407 1272 q 400 1238 400 1243 l 299 1238 q 314 1306 297 1272 q 366 1363 331 1340 q 458 1385 401 1385 q 579 1345 535 1385 q 624 1250 624 1306 q 511 1113 624 1168 l 506 1110 l 506 1069 l 404 1069 m 454 836 q 341 857 385 836 q 273 908 297 878 q 238 969 249 939 q 225 1020 228 1000 q 222 1040 222 1040 l 335 1040 q 338 1024 335 1040 q 351 988 340 1008 q 387 951 363 967 q 454 935 411 935 q 522 951 497 935 q 557 988 546 967 q 571 1024 568 1008 q 574 1040 574 1040 l 686 1040 q 683 1020 686 1040 q 670 969 681 1000 q 635 908 660 939 q 567 857 611 878 q 454 836 524 836 m 415 750 q 531 728 485 750 q 606 676 578 706 q 646 626 633 647 l 654 626 l 654 736 l 813 736 l 813 0 l 654 0 l 654 110 l 646 110 q 606 60 633 89 q 531 8 578 31 q 415 -14 485 -14 q 270 19 332 -14 q 167 106 208 51 q 105 229 125 161 q 85 368 85 297 q 105 507 85 439 q 167 630 125 575 q 270 717 208 685 q 415 750 332 750 m 450 618 q 336 581 382 618 q 267 488 290 544 q 244 368 244 431 q 267 249 244 306 q 336 155 290 192 q 450 118 382 118 q 563 155 518 118 q 631 249 608 192 q 654 368 654 306 q 631 488 654 431 q 563 581 608 544 q 450 618 518 618 z "},"ẵ":{"ha":911,"x_min":85,"x_max":813,"o":"m 554 1104 q 490 1117 517 1104 q 444 1149 464 1131 q 408 1180 425 1167 q 372 1193 392 1193 q 339 1171 349 1193 q 329 1113 329 1149 l 232 1113 q 243 1199 232 1156 q 282 1272 254 1243 q 363 1300 310 1300 q 426 1286 400 1300 q 472 1255 453 1272 q 508 1224 492 1238 q 544 1211 525 1211 q 576 1233 565 1211 q 586 1292 586 1254 l 682 1292 q 672 1205 682 1249 q 633 1133 661 1161 q 554 1104 606 1104 m 457 836 q 344 857 388 836 q 276 908 300 878 q 240 969 251 939 q 227 1020 229 1000 q 225 1040 225 1040 l 336 1040 q 340 1024 336 1040 q 354 988 343 1008 q 390 951 365 967 q 457 935 414 935 q 523 951 499 935 q 559 988 547 967 q 574 1024 571 1008 q 576 1040 576 1040 l 688 1040 q 685 1020 688 1040 q 673 969 683 1000 q 638 908 663 939 q 569 857 613 878 q 457 836 525 836 m 415 750 q 531 728 485 750 q 606 676 578 706 q 646 626 633 647 l 654 626 l 654 736 l 813 736 l 813 0 l 654 0 l 654 110 l 646 110 q 606 60 633 89 q 531 8 578 31 q 415 -14 485 -14 q 270 19 332 -14 q 167 106 208 51 q 105 229 125 161 q 85 368 85 297 q 105 507 85 439 q 167 630 125 575 q 270 717 208 685 q 415 750 332 750 m 450 618 q 336 581 382 618 q 267 488 290 544 q 244 368 244 431 q 267 249 244 306 q 336 155 290 192 q 450 118 382 118 q 563 155 518 118 q 631 249 608 192 q 654 368 654 306 q 631 488 654 431 q 563 581 608 544 q 450 618 518 618 z "},"â":{"ha":911,"x_min":85,"x_max":813,"o":"m 219 838 l 392 1075 l 522 1075 l 694 838 l 560 838 l 457 985 l 354 838 l 219 838 m 415 750 q 531 728 485 750 q 606 676 578 706 q 646 626 633 647 l 654 626 l 654 736 l 813 736 l 813 0 l 654 0 l 654 110 l 646 110 q 606 60 633 89 q 531 8 578 31 q 415 -14 485 -14 q 270 19 332 -14 q 167 106 208 51 q 105 229 125 161 q 85 368 85 297 q 105 507 85 439 q 167 630 125 575 q 270 717 208 685 q 415 750 332 750 m 450 618 q 336 581 382 618 q 267 488 290 544 q 244 368 244 431 q 267 249 244 306 q 336 155 290 192 q 450 118 382 118 q 563 155 518 118 q 631 249 608 192 q 654 368 654 306 q 631 488 654 431 q 563 581 608 544 q 450 618 518 618 z "},"ấ":{"ha":911,"x_min":85,"x_max":892,"o":"m 746 1015 l 619 1017 l 736 1267 l 892 1267 l 746 1015 m 219 838 l 392 1044 l 522 1044 l 694 838 l 560 838 l 457 961 l 354 838 l 219 838 m 415 750 q 531 728 485 750 q 606 676 578 706 q 646 626 633 647 l 654 626 l 654 736 l 813 736 l 813 0 l 654 0 l 654 110 l 646 110 q 606 60 633 89 q 531 8 578 31 q 415 -14 485 -14 q 270 19 332 -14 q 167 106 208 51 q 105 229 125 161 q 85 368 85 297 q 105 507 85 439 q 167 630 125 575 q 270 717 208 685 q 415 750 332 750 m 450 618 q 336 581 382 618 q 267 488 290 544 q 244 368 244 431 q 267 249 244 306 q 336 155 290 192 q 450 118 382 118 q 563 155 518 118 q 631 249 608 192 q 654 368 654 306 q 631 488 654 431 q 563 581 608 544 q 450 618 518 618 z "},"ậ":{"ha":911,"x_min":85,"x_max":813,"o":"m 219 838 l 392 1075 l 522 1075 l 694 838 l 560 838 l 457 985 l 354 838 l 219 838 m 415 750 q 531 728 485 750 q 606 676 578 706 q 646 626 633 647 l 654 626 l 654 736 l 813 736 l 813 0 l 654 0 l 654 110 l 646 110 q 606 60 633 89 q 531 8 578 31 q 415 -14 485 -14 q 270 19 332 -14 q 167 106 208 51 q 105 229 125 161 q 85 368 85 297 q 105 507 85 439 q 167 630 125 575 q 270 717 208 685 q 415 750 332 750 m 450 618 q 336 581 382 618 q 267 488 290 544 q 244 368 244 431 q 267 249 244 306 q 336 155 290 192 q 450 118 382 118 q 563 155 518 118 q 631 249 608 192 q 654 368 654 306 q 631 488 654 431 q 563 581 608 544 q 450 618 518 618 m 457 -325 q 387 -296 414 -325 q 360 -228 360 -267 q 387 -159 360 -187 q 457 -131 414 -131 q 525 -159 497 -131 q 553 -228 553 -187 q 525 -297 553 -268 q 457 -325 497 -325 z "},"ầ":{"ha":911,"x_min":85,"x_max":813,"o":"m 653 1015 l 507 1267 l 663 1267 l 779 1017 l 653 1015 m 219 838 l 392 1044 l 522 1044 l 694 838 l 560 838 l 457 961 l 354 838 l 219 838 m 415 750 q 531 728 485 750 q 606 676 578 706 q 646 626 633 647 l 654 626 l 654 736 l 813 736 l 813 0 l 654 0 l 654 110 l 646 110 q 606 60 633 89 q 531 8 578 31 q 415 -14 485 -14 q 270 19 332 -14 q 167 106 208 51 q 105 229 125 161 q 85 368 85 297 q 105 507 85 439 q 167 630 125 575 q 270 717 208 685 q 415 750 332 750 m 450 618 q 336 581 382 618 q 267 488 290 544 q 244 368 244 431 q 267 249 244 306 q 336 155 290 192 q 450 118 382 118 q 563 155 518 118 q 631 249 608 192 q 654 368 654 306 q 631 488 654 431 q 563 581 608 544 q 450 618 518 618 z "},"ẩ":{"ha":911,"x_min":85,"x_max":857,"o":"m 638 1001 l 638 1046 q 644 1076 638 1061 q 668 1099 650 1090 l 688 1110 q 750 1178 750 1140 q 735 1213 750 1197 q 692 1228 721 1228 q 653 1216 665 1228 q 636 1190 640 1204 q 632 1169 632 1175 l 531 1169 q 547 1238 531 1204 q 599 1294 563 1272 q 690 1317 635 1317 q 812 1277 767 1317 q 857 1182 857 1238 q 744 1044 857 1100 l 738 1042 l 738 1001 l 638 1001 m 218 838 l 390 1044 l 521 1044 l 693 838 l 558 838 l 456 961 l 353 838 l 218 838 m 415 750 q 531 728 485 750 q 606 676 578 706 q 646 626 633 647 l 654 626 l 654 736 l 813 736 l 813 0 l 654 0 l 654 110 l 646 110 q 606 60 633 89 q 531 8 578 31 q 415 -14 485 -14 q 270 19 332 -14 q 167 106 208 51 q 105 229 125 161 q 85 368 85 297 q 105 507 85 439 q 167 630 125 575 q 270 717 208 685 q 415 750 332 750 m 450 618 q 336 581 382 618 q 267 488 290 544 q 244 368 244 431 q 267 249 244 306 q 336 155 290 192 q 450 118 382 118 q 563 155 518 118 q 631 249 608 192 q 654 368 654 306 q 631 488 654 431 q 563 581 608 544 q 450 618 518 618 z "},"ẫ":{"ha":911,"x_min":85,"x_max":813,"o":"m 553 1097 q 489 1111 515 1097 q 443 1142 463 1125 q 407 1174 424 1160 q 371 1188 390 1188 q 338 1165 347 1188 q 328 1106 328 1143 l 231 1106 q 242 1193 231 1150 q 281 1265 253 1236 q 361 1293 310 1293 q 425 1280 399 1293 q 472 1249 451 1267 q 508 1217 492 1231 q 543 1204 525 1204 q 574 1226 564 1204 q 585 1286 585 1247 l 682 1286 q 671 1198 682 1242 q 632 1126 660 1154 q 553 1097 604 1097 m 218 838 l 390 1044 l 521 1044 l 693 838 l 558 838 l 456 961 l 353 838 l 218 838 m 415 750 q 531 728 485 750 q 606 676 578 706 q 646 626 633 647 l 654 626 l 654 736 l 813 736 l 813 0 l 654 0 l 654 110 l 646 110 q 606 60 633 89 q 531 8 578 31 q 415 -14 485 -14 q 270 19 332 -14 q 167 106 208 51 q 105 229 125 161 q 85 368 85 297 q 105 507 85 439 q 167 630 125 575 q 270 717 208 685 q 415 750 332 750 m 450 618 q 336 581 382 618 q 267 488 290 544 q 244 368 244 431 q 267 249 244 306 q 336 155 290 192 q 450 118 382 118 q 563 155 518 118 q 631 249 608 192 q 654 368 654 306 q 631 488 654 431 q 563 581 608 544 q 450 618 518 618 z "},"ä":{"ha":911,"x_min":85,"x_max":813,"o":"m 597 839 q 527 867 554 839 q 500 935 500 896 q 527 1002 500 974 q 597 1031 554 1031 q 666 1002 638 1031 q 694 935 694 974 q 666 867 694 894 q 597 839 638 839 m 315 839 q 246 867 274 839 q 218 935 218 896 q 246 1002 218 974 q 315 1031 274 1031 q 385 1002 357 1031 q 413 935 413 974 q 385 867 413 894 q 315 839 357 839 m 415 750 q 531 728 485 750 q 606 676 578 706 q 646 626 633 647 l 654 626 l 654 736 l 813 736 l 813 0 l 654 0 l 654 110 l 646 110 q 606 60 633 89 q 531 8 578 31 q 415 -14 485 -14 q 270 19 332 -14 q 167 106 208 51 q 105 229 125 161 q 85 368 85 297 q 105 507 85 439 q 167 630 125 575 q 270 717 208 685 q 415 750 332 750 m 450 618 q 336 581 382 618 q 267 488 290 544 q 244 368 244 431 q 267 249 244 306 q 336 155 290 192 q 450 118 382 118 q 563 155 518 118 q 631 249 608 192 q 654 368 654 306 q 631 488 654 431 q 563 581 608 544 q 450 618 518 618 z "},"ạ":{"ha":911,"x_min":85,"x_max":813,"o":"m 415 750 q 531 728 485 750 q 606 676 578 706 q 646 626 633 647 l 654 626 l 654 736 l 813 736 l 813 0 l 654 0 l 654 110 l 646 110 q 606 60 633 89 q 531 8 578 31 q 415 -14 485 -14 q 270 19 332 -14 q 167 106 208 51 q 105 229 125 161 q 85 368 85 297 q 105 507 85 439 q 167 630 125 575 q 270 717 208 685 q 415 750 332 750 m 450 618 q 336 581 382 618 q 267 488 290 544 q 244 368 244 431 q 267 249 244 306 q 336 155 290 192 q 450 118 382 118 q 563 155 518 118 q 631 249 608 192 q 654 368 654 306 q 631 488 654 431 q 563 581 608 544 q 450 618 518 618 m 457 -325 q 387 -296 414 -325 q 360 -228 360 -267 q 387 -159 360 -187 q 457 -131 414 -131 q 525 -159 497 -131 q 553 -228 553 -187 q 525 -297 553 -268 q 457 -325 497 -325 z "},"à":{"ha":911,"x_min":85,"x_max":813,"o":"m 399 844 l 253 1096 l 408 1096 l 525 846 l 399 844 m 415 750 q 531 728 485 750 q 606 676 578 706 q 646 626 633 647 l 654 626 l 654 736 l 813 736 l 813 0 l 654 0 l 654 110 l 646 110 q 606 60 633 89 q 531 8 578 31 q 415 -14 485 -14 q 270 19 332 -14 q 167 106 208 51 q 105 229 125 161 q 85 368 85 297 q 105 507 85 439 q 167 630 125 575 q 270 717 208 685 q 415 750 332 750 m 450 618 q 336 581 382 618 q 267 488 290 544 q 244 368 244 431 q 267 249 244 306 q 336 155 290 192 q 450 118 382 118 q 563 155 518 118 q 631 249 608 192 q 654 368 654 306 q 631 488 654 431 q 563 581 608 544 q 450 618 518 618 z "},"ả":{"ha":911,"x_min":85,"x_max":813,"o":"m 407 832 l 407 878 q 413 907 407 892 q 438 931 419 922 l 457 940 q 519 1010 519 972 q 505 1043 519 1028 q 461 1058 490 1058 q 422 1047 435 1058 q 406 1021 410 1035 q 401 1000 401 1007 l 300 1000 q 316 1069 300 1036 q 368 1125 332 1103 q 460 1147 404 1147 q 581 1108 536 1147 q 626 1013 626 1068 q 514 875 626 931 l 507 872 l 507 832 l 407 832 m 415 750 q 531 728 485 750 q 606 676 578 706 q 646 626 633 647 l 654 626 l 654 736 l 813 736 l 813 0 l 654 0 l 654 110 l 646 110 q 606 60 633 89 q 531 8 578 31 q 415 -14 485 -14 q 270 19 332 -14 q 167 106 208 51 q 105 229 125 161 q 85 368 85 297 q 105 507 85 439 q 167 630 125 575 q 270 717 208 685 q 415 750 332 750 m 450 618 q 336 581 382 618 q 267 488 290 544 q 244 368 244 431 q 267 249 244 306 q 336 155 290 192 q 450 118 382 118 q 563 155 518 118 q 631 249 608 192 q 654 368 654 306 q 631 488 654 431 q 563 581 608 544 q 450 618 518 618 z "},"ā":{"ha":911,"x_min":85,"x_max":813,"o":"m 240 864 l 240 972 l 672 972 l 672 864 l 240 864 m 415 750 q 531 728 485 750 q 606 676 578 706 q 646 626 633 647 l 654 626 l 654 736 l 813 736 l 813 0 l 654 0 l 654 110 l 646 110 q 606 60 633 89 q 531 8 578 31 q 415 -14 485 -14 q 270 19 332 -14 q 167 106 208 51 q 105 229 125 161 q 85 368 85 297 q 105 507 85 439 q 167 630 125 575 q 270 717 208 685 q 415 750 332 750 m 450 618 q 336 581 382 618 q 267 488 290 544 q 244 368 244 431 q 267 249 244 306 q 336 155 290 192 q 450 118 382 118 q 563 155 518 118 q 631 249 608 192 q 654 368 654 306 q 631 488 654 431 q 563 581 608 544 q 450 618 518 618 z "},"ą":{"ha":911,"x_min":85,"x_max":867,"o":"m 792 -243 q 660 -205 703 -243 q 617 -112 617 -167 q 637 -44 617 -72 q 682 0 657 -17 l 654 0 l 654 110 l 646 110 q 606 60 633 89 q 531 8 578 31 q 415 -14 485 -14 q 270 19 332 -14 q 167 106 208 51 q 105 229 125 161 q 85 368 85 297 q 105 507 85 439 q 167 630 125 575 q 270 717 208 685 q 415 750 332 750 q 531 728 485 750 q 606 676 578 706 q 646 626 633 647 l 654 626 l 654 736 l 813 736 l 813 0 q 794 -10 813 0 q 758 -38 776 -19 q 739 -85 739 -57 q 758 -126 739 -108 q 817 -143 778 -143 q 851 -140 835 -143 q 867 -136 867 -136 l 867 -235 q 845 -239 867 -235 q 792 -243 824 -243 m 450 618 q 336 581 382 618 q 267 488 290 544 q 244 368 244 431 q 267 249 244 306 q 336 155 290 192 q 450 118 382 118 q 563 155 518 118 q 631 249 608 192 q 654 368 654 306 q 631 488 654 431 q 563 581 608 544 q 450 618 518 618 z "},"å":{"ha":911,"x_min":85,"x_max":813,"o":"m 457 829 q 365 853 406 829 q 299 919 324 878 q 274 1011 274 961 q 299 1102 274 1061 q 365 1167 324 1143 q 457 1192 406 1192 q 547 1167 506 1192 q 613 1102 589 1143 q 638 1011 638 1061 q 613 919 638 961 q 547 853 589 878 q 457 829 506 829 m 457 931 q 514 954 490 931 q 538 1011 538 978 q 514 1068 538 1044 q 457 1092 490 1092 q 399 1068 422 1092 q 375 1011 375 1044 q 399 954 375 978 q 457 931 422 931 m 415 750 q 531 728 485 750 q 606 676 578 706 q 646 626 633 647 l 654 626 l 654 736 l 813 736 l 813 0 l 654 0 l 654 110 l 646 110 q 606 60 633 89 q 531 8 578 31 q 415 -14 485 -14 q 270 19 332 -14 q 167 106 208 51 q 105 229 125 161 q 85 368 85 297 q 105 507 85 439 q 167 630 125 575 q 270 717 208 685 q 415 750 332 750 m 450 618 q 336 581 382 618 q 267 488 290 544 q 244 368 244 431 q 267 249 244 306 q 336 155 290 192 q 450 118 382 118 q 563 155 518 118 q 631 249 608 192 q 654 368 654 306 q 631 488 654 431 q 563 581 608 544 q 450 618 518 618 z "},"ã":{"ha":911,"x_min":85,"x_max":813,"o":"m 554 856 q 490 869 517 856 q 444 901 464 883 q 408 932 425 918 q 372 946 392 946 q 339 924 349 946 q 329 864 329 901 l 232 864 q 243 951 232 908 q 282 1023 254 994 q 363 1051 310 1051 q 426 1038 400 1051 q 472 1007 453 1025 q 508 976 492 989 q 544 963 525 963 q 576 984 565 963 q 586 1044 586 1006 l 682 1044 q 672 956 682 1000 q 633 884 661 913 q 554 856 606 856 m 415 750 q 531 728 485 750 q 606 676 578 706 q 646 626 633 647 l 654 626 l 654 736 l 813 736 l 813 0 l 654 0 l 654 110 l 646 110 q 606 60 633 89 q 531 8 578 31 q 415 -14 485 -14 q 270 19 332 -14 q 167 106 208 51 q 105 229 125 161 q 85 368 85 297 q 105 507 85 439 q 167 630 125 575 q 270 717 208 685 q 415 750 332 750 m 450 618 q 336 581 382 618 q 267 488 290 544 q 244 368 244 431 q 267 249 244 306 q 336 155 290 192 q 450 118 382 118 q 563 155 518 118 q 631 249 608 192 q 654 368 654 306 q 631 488 654 431 q 563 581 608 544 q 450 618 518 618 z "},"æ":{"ha":1338,"x_min":76,"x_max":1258,"o":"m 336 -14 q 205 12 264 -14 q 111 87 146 38 q 76 210 76 136 q 153 371 76 311 q 363 432 229 431 l 560 432 l 560 471 q 547 540 560 504 q 499 601 533 576 q 404 626 465 626 q 318 608 350 626 q 270 567 286 590 q 249 525 254 543 q 244 507 244 507 l 93 507 q 99 531 93 507 q 121 592 104 556 q 171 665 138 628 q 259 726 204 701 q 397 750 314 750 q 528 728 475 750 q 611 673 581 706 q 651 608 642 640 l 656 608 q 703 672 669 639 q 791 727 736 704 q 924 750 846 750 q 1095 707 1019 750 q 1215 578 1171 664 q 1258 364 1258 492 l 1258 321 l 719 321 q 747 217 722 265 q 818 140 772 169 q 928 111 864 111 q 1015 128 981 111 q 1068 169 1049 146 q 1095 210 1088 193 q 1103 228 1103 228 l 1250 228 q 1243 203 1250 228 q 1217 143 1236 179 q 1161 71 1197 107 q 1067 10 1125 35 q 925 -14 1010 -14 q 801 5 854 -14 q 711 51 747 24 q 654 107 675 79 q 625 153 633 135 l 618 153 q 606 128 618 153 q 564 69 594 103 q 478 11 533 36 q 336 -14 422 -14 m 718 431 l 1106 431 q 1047 583 1100 539 q 919 628 993 628 q 781 576 836 628 q 718 431 725 524 m 369 101 q 471 128 428 101 q 537 201 514 156 q 560 301 560 247 l 560 321 l 368 321 q 263 288 297 319 q 229 211 229 257 q 272 128 229 156 q 369 101 314 101 z "},"b":{"ha":913,"x_min":106,"x_max":833,"o":"m 504 -14 q 387 8 433 -14 q 313 60 340 31 q 272 110 286 89 l 264 110 l 264 0 l 106 0 l 106 1056 l 264 1056 l 264 626 l 272 626 q 313 676 286 647 q 387 728 340 706 q 504 750 433 750 q 649 717 586 750 q 752 630 711 685 q 813 507 793 575 q 833 368 833 439 q 813 229 833 297 q 752 106 793 161 q 649 19 711 51 q 504 -14 586 -14 m 468 118 q 583 155 538 118 q 651 249 628 192 q 674 368 674 306 q 651 488 674 431 q 583 581 628 544 q 468 618 538 618 q 355 581 400 618 q 287 488 310 544 q 264 368 264 431 q 287 249 264 306 q 355 155 310 192 q 468 118 400 118 z "},"c":{"ha":858,"x_min":79,"x_max":779,"o":"m 449 -14 q 286 19 356 -14 q 171 106 217 51 q 102 229 125 161 q 79 368 79 297 q 102 507 79 439 q 171 630 125 575 q 286 717 217 685 q 449 750 356 750 q 601 723 540 750 q 697 656 661 696 q 751 575 733 615 q 774 507 769 535 q 779 479 779 479 l 629 479 q 623 500 629 479 q 599 549 617 521 q 545 597 581 576 q 450 618 510 618 q 332 583 379 618 q 260 490 285 547 q 236 368 236 433 q 260 246 236 303 q 332 153 285 189 q 450 118 379 118 q 545 139 510 118 q 599 188 581 160 q 623 236 617 215 q 629 257 629 257 l 779 257 q 774 229 779 257 q 751 161 769 201 q 697 81 733 121 q 601 13 661 40 q 449 -14 540 -14 z "},"ć":{"ha":868,"x_min":83,"x_max":785,"o":"m 518 844 l 392 846 l 508 1096 l 664 1096 l 518 844 m 453 -14 q 292 19 361 -14 q 176 106 222 51 q 106 229 129 161 q 83 368 83 297 q 106 507 83 439 q 175 630 129 575 q 290 717 221 685 q 453 750 360 750 q 605 723 544 750 q 701 656 665 696 q 756 575 738 615 q 779 507 774 535 q 785 479 785 479 l 633 479 q 627 500 633 479 q 603 549 621 521 q 549 597 585 576 q 456 618 514 618 q 336 583 383 618 q 265 490 289 547 q 242 368 242 433 q 265 246 242 303 q 336 153 289 189 q 456 118 383 118 q 549 139 514 118 q 603 188 585 160 q 627 236 621 215 q 633 257 633 257 l 785 257 q 779 229 785 257 q 756 161 774 201 q 701 81 738 121 q 605 13 665 40 q 453 -14 544 -14 z "},"č":{"ha":868,"x_min":83,"x_max":785,"o":"m 390 825 l 218 1063 l 353 1063 l 456 915 l 558 1063 l 693 1063 l 521 825 l 390 825 m 453 -14 q 292 19 361 -14 q 176 106 222 51 q 106 229 129 161 q 83 368 83 297 q 106 507 83 439 q 175 630 129 575 q 290 717 221 685 q 453 750 360 750 q 605 723 544 750 q 701 656 665 696 q 756 575 738 615 q 779 507 774 535 q 785 479 785 479 l 633 479 q 627 500 633 479 q 603 549 621 521 q 549 597 585 576 q 456 618 514 618 q 336 583 383 618 q 265 490 289 547 q 242 368 242 433 q 265 246 242 303 q 336 153 289 189 q 456 118 383 118 q 549 139 514 118 q 603 188 585 160 q 627 236 621 215 q 633 257 633 257 l 785 257 q 779 229 785 257 q 756 161 774 201 q 701 81 738 121 q 605 13 665 40 q 453 -14 544 -14 z "},"ç":{"ha":868,"x_min":83,"x_max":785,"o":"m 432 -365 q 364 -361 397 -365 q 331 -357 331 -357 l 331 -267 q 346 -269 331 -267 q 383 -273 361 -271 q 425 -275 406 -275 q 506 -253 485 -275 q 528 -208 528 -231 q 510 -169 528 -186 q 458 -153 493 -153 q 403 -166 425 -153 q 382 -179 382 -179 l 322 -121 l 393 -10 q 221 62 289 4 q 118 201 153 119 q 83 368 83 282 q 106 507 83 439 q 175 630 129 575 q 290 717 221 685 q 453 750 360 750 q 605 723 544 750 q 701 656 665 696 q 756 575 738 615 q 779 507 774 535 q 785 479 785 479 l 633 479 q 627 500 633 479 q 603 549 621 521 q 549 597 585 576 q 456 618 514 618 q 336 583 383 618 q 265 490 289 547 q 242 368 242 433 q 265 246 242 303 q 336 153 289 189 q 456 118 383 118 q 549 139 514 118 q 603 188 585 160 q 627 236 621 215 q 633 257 633 257 l 785 257 q 780 232 785 257 q 760 169 775 207 q 713 93 744 132 q 628 25 681 54 q 497 -12 576 -4 l 456 -75 q 492 -71 472 -71 q 595 -112 558 -71 q 632 -208 632 -153 q 611 -283 632 -247 q 547 -342 590 -319 q 432 -365 503 -365 z "},"ċ":{"ha":868,"x_min":83,"x_max":785,"o":"m 456 863 q 383 892 411 863 q 356 960 356 921 q 383 1028 356 1000 q 456 1057 411 1057 q 526 1028 497 1057 q 554 960 554 1000 q 526 891 554 919 q 456 863 497 863 m 453 -14 q 292 19 361 -14 q 176 106 222 51 q 106 229 129 161 q 83 368 83 297 q 106 507 83 439 q 175 630 129 575 q 290 717 221 685 q 453 750 360 750 q 605 723 544 750 q 701 656 665 696 q 756 575 738 615 q 779 507 774 535 q 785 479 785 479 l 633 479 q 627 500 633 479 q 603 549 621 521 q 549 597 585 576 q 456 618 514 618 q 336 583 383 618 q 265 490 289 547 q 242 368 242 433 q 265 246 242 303 q 336 153 289 189 q 456 118 383 118 q 549 139 514 118 q 603 188 585 160 q 627 236 621 215 q 633 257 633 257 l 785 257 q 779 229 785 257 q 756 161 774 201 q 701 81 738 121 q 605 13 665 40 q 453 -14 544 -14 z "},"d":{"ha":913,"x_min":79,"x_max":807,"o":"m 410 -14 q 265 19 326 -14 q 161 106 203 51 q 99 229 119 161 q 79 368 79 297 q 99 507 79 439 q 161 630 119 575 q 265 717 203 685 q 410 750 326 750 q 526 728 479 750 q 600 676 572 706 q 640 626 628 647 l 649 626 l 649 1056 l 807 1056 l 807 0 l 649 0 l 649 110 l 640 110 q 600 60 628 89 q 526 8 572 31 q 410 -14 479 -14 m 444 118 q 558 155 513 118 q 626 249 603 192 q 649 368 649 306 q 626 488 649 431 q 558 581 603 544 q 444 618 513 618 q 331 581 376 618 q 262 488 285 544 q 239 368 239 431 q 262 249 239 306 q 331 155 285 192 q 444 118 376 118 z "},"ð":{"ha":897,"x_min":79,"x_max":818,"o":"m 447 -14 q 285 19 354 -14 q 169 106 215 51 q 101 229 124 161 q 79 368 79 297 q 100 503 79 438 q 163 622 121 569 q 266 706 204 675 q 410 738 328 738 q 512 720 468 738 q 586 679 556 703 q 485 805 543 749 q 365 904 426 861 l 211 815 l 153 915 l 256 975 q 165 1024 201 1007 q 129 1040 129 1040 l 183 1157 q 244 1132 183 1157 q 392 1054 306 1107 l 558 1151 l 617 1050 l 499 982 q 652 837 579 921 q 772 645 725 753 q 818 403 818 538 q 777 194 818 289 q 654 43 736 100 q 447 -14 572 -14 m 449 118 q 565 155 519 118 q 634 249 611 192 q 657 368 657 307 q 633 488 657 431 q 564 581 610 544 q 449 618 518 618 q 333 581 379 618 q 263 488 286 544 q 240 368 240 431 q 263 249 240 307 q 333 155 286 192 q 449 118 379 118 z "},"ď":{"ha":999,"x_min":79,"x_max":1060,"o":"m 410 -14 q 265 19 326 -14 q 161 106 203 51 q 99 229 119 161 q 79 368 79 297 q 99 507 79 439 q 161 630 119 575 q 265 717 203 685 q 410 750 326 750 q 526 728 479 750 q 600 676 572 706 q 640 626 628 647 l 649 626 l 649 1056 l 807 1056 l 807 0 l 649 0 l 649 110 l 640 110 q 600 60 628 89 q 526 8 572 31 q 410 -14 479 -14 m 906 761 l 919 1056 l 1060 1056 l 1001 761 l 906 761 m 444 118 q 558 155 513 118 q 626 249 603 192 q 649 368 649 306 q 626 488 649 431 q 558 581 603 544 q 444 618 513 618 q 331 581 376 618 q 262 488 285 544 q 239 368 239 431 q 262 249 239 306 q 331 155 285 192 q 444 118 376 118 z "},"đ":{"ha":929,"x_min":79,"x_max":929,"o":"m 410 -14 q 265 19 326 -14 q 161 106 203 51 q 99 229 119 161 q 79 368 79 297 q 99 507 79 439 q 161 630 119 575 q 265 717 203 685 q 410 750 326 750 q 526 728 479 750 q 600 676 572 706 q 640 626 628 647 l 649 626 l 649 810 l 460 810 l 460 926 l 649 926 l 649 1056 l 807 1056 l 807 926 l 929 926 l 929 810 l 807 810 l 807 0 l 649 0 l 649 110 l 640 110 q 600 60 628 89 q 526 8 572 31 q 410 -14 479 -14 m 444 118 q 558 155 513 118 q 626 249 603 192 q 649 368 649 306 q 626 488 649 431 q 558 581 603 544 q 444 618 513 618 q 331 581 376 618 q 262 488 285 544 q 239 368 239 431 q 262 249 239 306 q 331 155 285 192 q 444 118 376 118 z "},"e":{"ha":840,"x_min":79,"x_max":761,"o":"m 438 -14 q 277 19 344 -14 q 166 106 210 51 q 101 229 122 161 q 79 368 79 297 q 100 506 79 438 q 164 629 121 574 q 274 717 207 685 q 431 750 340 750 q 602 706 528 750 q 719 577 676 663 q 761 365 761 492 l 761 322 l 239 322 q 296 176 244 238 q 438 115 347 115 q 522 133 489 115 q 574 172 556 150 q 599 211 592 194 q 607 228 607 228 l 754 228 q 747 203 754 228 q 722 143 740 179 q 668 71 703 107 q 576 10 633 35 q 438 -14 519 -14 m 240 433 l 608 433 q 551 576 603 531 q 429 622 499 622 q 300 572 351 622 q 240 433 249 521 z "},"é":{"ha":850,"x_min":83,"x_max":767,"o":"m 499 843 l 372 844 l 489 1094 l 644 1094 l 499 843 m 442 -14 q 282 19 350 -14 q 170 106 214 51 q 105 229 126 161 q 83 368 83 297 q 105 506 83 438 q 169 629 126 574 q 278 717 213 685 q 436 750 344 750 q 607 706 532 750 q 724 577 682 663 q 767 365 767 492 l 767 322 l 243 322 q 300 176 249 238 q 442 115 351 115 q 526 133 493 115 q 578 172 560 150 q 604 211 597 194 q 611 228 611 228 l 758 228 q 751 203 758 228 q 726 143 744 179 q 673 71 708 107 q 581 10 638 35 q 442 -14 525 -14 m 244 433 l 613 433 q 556 576 608 531 q 435 622 503 622 q 304 572 356 622 q 244 433 253 521 z "},"ě":{"ha":850,"x_min":83,"x_max":767,"o":"m 371 824 l 199 1063 l 333 1063 l 436 915 l 539 1063 l 674 1063 l 501 824 l 371 824 m 442 -14 q 282 19 350 -14 q 170 106 214 51 q 105 229 126 161 q 83 368 83 297 q 105 506 83 438 q 169 629 126 574 q 278 717 213 685 q 436 750 344 750 q 607 706 532 750 q 724 577 682 663 q 767 365 767 492 l 767 322 l 243 322 q 300 176 249 238 q 442 115 351 115 q 526 133 493 115 q 578 172 560 150 q 604 211 597 194 q 611 228 611 228 l 758 228 q 751 203 758 228 q 726 143 744 179 q 673 71 708 107 q 581 10 638 35 q 442 -14 525 -14 m 244 433 l 613 433 q 556 576 608 531 q 435 622 503 622 q 304 572 356 622 q 244 433 253 521 z "},"ê":{"ha":850,"x_min":83,"x_max":767,"o":"m 199 836 l 371 1074 l 501 1074 l 674 836 l 539 836 l 436 983 l 333 836 l 199 836 m 442 -14 q 282 19 350 -14 q 170 106 214 51 q 105 229 126 161 q 83 368 83 297 q 105 506 83 438 q 169 629 126 574 q 278 717 213 685 q 436 750 344 750 q 607 706 532 750 q 724 577 682 663 q 767 365 767 492 l 767 322 l 243 322 q 300 176 249 238 q 442 115 351 115 q 526 133 493 115 q 578 172 560 150 q 604 211 597 194 q 611 228 611 228 l 758 228 q 751 203 758 228 q 726 143 744 179 q 673 71 708 107 q 581 10 638 35 q 442 -14 525 -14 m 244 433 l 613 433 q 556 576 608 531 q 435 622 503 622 q 304 572 356 622 q 244 433 253 521 z "},"ế":{"ha":850,"x_min":83,"x_max":871,"o":"m 725 1014 l 599 1015 l 715 1265 l 871 1265 l 725 1014 m 199 836 l 371 1043 l 501 1043 l 674 836 l 539 836 l 436 961 l 333 836 l 199 836 m 442 -14 q 282 19 350 -14 q 170 106 214 51 q 105 229 126 161 q 83 368 83 297 q 105 506 83 438 q 169 629 126 574 q 278 717 213 685 q 436 750 344 750 q 607 706 532 750 q 724 577 682 663 q 767 365 767 492 l 767 322 l 243 322 q 300 176 249 238 q 442 115 351 115 q 526 133 493 115 q 578 172 560 150 q 604 211 597 194 q 611 228 611 228 l 758 228 q 751 203 758 228 q 726 143 744 179 q 673 71 708 107 q 581 10 638 35 q 442 -14 525 -14 m 244 433 l 613 433 q 556 576 608 531 q 435 622 503 622 q 304 572 356 622 q 244 433 253 521 z "},"ệ":{"ha":850,"x_min":83,"x_max":767,"o":"m 199 836 l 371 1074 l 501 1074 l 674 836 l 539 836 l 436 983 l 333 836 l 199 836 m 442 -14 q 282 19 350 -14 q 170 106 214 51 q 105 229 126 161 q 83 368 83 297 q 105 506 83 438 q 169 629 126 574 q 278 717 213 685 q 436 750 344 750 q 607 706 532 750 q 724 577 682 663 q 767 365 767 492 l 767 322 l 243 322 q 300 176 249 238 q 442 115 351 115 q 526 133 493 115 q 578 172 560 150 q 604 211 597 194 q 611 228 611 228 l 758 228 q 751 203 758 228 q 726 143 744 179 q 673 71 708 107 q 581 10 638 35 q 442 -14 525 -14 m 244 433 l 613 433 q 556 576 608 531 q 435 622 503 622 q 304 572 356 622 q 244 433 253 521 m 436 -324 q 366 -295 393 -324 q 339 -228 339 -267 q 366 -159 339 -187 q 436 -131 393 -131 q 504 -159 476 -131 q 532 -228 532 -187 q 504 -295 532 -267 q 436 -324 476 -324 z "},"ề":{"ha":850,"x_min":83,"x_max":767,"o":"m 632 1014 l 486 1265 l 642 1265 l 758 1015 l 632 1014 m 199 836 l 371 1043 l 501 1043 l 674 836 l 539 836 l 436 961 l 333 836 l 199 836 m 442 -14 q 282 19 350 -14 q 170 106 214 51 q 105 229 126 161 q 83 368 83 297 q 105 506 83 438 q 169 629 126 574 q 278 717 213 685 q 436 750 344 750 q 607 706 532 750 q 724 577 682 663 q 767 365 767 492 l 767 322 l 243 322 q 300 176 249 238 q 442 115 351 115 q 526 133 493 115 q 578 172 560 150 q 604 211 597 194 q 611 228 611 228 l 758 228 q 751 203 758 228 q 726 143 744 179 q 673 71 708 107 q 581 10 638 35 q 442 -14 525 -14 m 244 433 l 613 433 q 556 576 608 531 q 435 622 503 622 q 304 572 356 622 q 244 433 253 521 z "},"ể":{"ha":850,"x_min":83,"x_max":836,"o":"m 617 1000 l 617 1046 q 623 1075 617 1060 q 647 1099 629 1090 l 667 1108 q 729 1178 729 1140 q 715 1211 729 1196 q 671 1226 700 1226 q 632 1215 644 1226 q 615 1189 619 1203 q 611 1168 611 1175 l 510 1168 q 526 1238 510 1204 q 578 1293 542 1271 q 669 1315 614 1315 q 791 1276 746 1315 q 836 1181 836 1236 q 724 1043 836 1099 l 717 1040 l 717 1000 l 617 1000 m 197 836 l 369 1043 l 500 1043 l 672 836 l 538 836 l 435 961 l 332 836 l 197 836 m 442 -14 q 282 19 350 -14 q 170 106 214 51 q 105 229 126 161 q 83 368 83 297 q 105 506 83 438 q 169 629 126 574 q 278 717 213 685 q 436 750 344 750 q 607 706 532 750 q 724 577 682 663 q 767 365 767 492 l 767 322 l 243 322 q 300 176 249 238 q 442 115 351 115 q 526 133 493 115 q 578 172 560 150 q 604 211 597 194 q 611 228 611 228 l 758 228 q 751 203 758 228 q 726 143 744 179 q 673 71 708 107 q 581 10 638 35 q 442 -14 525 -14 m 244 433 l 613 433 q 556 576 608 531 q 435 622 503 622 q 304 572 356 622 q 244 433 253 521 z "},"ễ":{"ha":850,"x_min":83,"x_max":767,"o":"m 532 1096 q 468 1110 494 1096 q 422 1141 442 1124 q 386 1172 403 1158 q 350 1186 369 1186 q 317 1164 326 1186 q 307 1104 307 1142 l 210 1104 q 221 1192 210 1149 q 260 1263 232 1235 q 340 1292 289 1292 q 404 1278 378 1292 q 451 1248 431 1265 q 488 1217 471 1231 q 522 1204 504 1204 q 553 1226 543 1204 q 564 1285 564 1247 l 661 1285 q 650 1197 661 1240 q 611 1125 639 1154 q 532 1096 583 1096 m 197 836 l 369 1043 l 500 1043 l 672 836 l 538 836 l 435 961 l 332 836 l 197 836 m 442 -14 q 282 19 350 -14 q 170 106 214 51 q 105 229 126 161 q 83 368 83 297 q 105 506 83 438 q 169 629 126 574 q 278 717 213 685 q 436 750 344 750 q 607 706 532 750 q 724 577 682 663 q 767 365 767 492 l 767 322 l 243 322 q 300 176 249 238 q 442 115 351 115 q 526 133 493 115 q 578 172 560 150 q 604 211 597 194 q 611 228 611 228 l 758 228 q 751 203 758 228 q 726 143 744 179 q 673 71 708 107 q 581 10 638 35 q 442 -14 525 -14 m 244 433 l 613 433 q 556 576 608 531 q 435 622 503 622 q 304 572 356 622 q 244 433 253 521 z "},"ë":{"ha":850,"x_min":83,"x_max":767,"o":"m 575 838 q 506 866 533 838 q 479 933 479 894 q 506 1001 479 974 q 575 1029 533 1029 q 644 1001 617 1029 q 672 933 672 974 q 644 866 672 894 q 575 838 617 838 m 294 838 q 225 866 253 838 q 197 933 197 894 q 225 1001 197 974 q 294 1029 253 1029 q 364 1001 336 1029 q 392 933 392 974 q 364 866 392 894 q 294 838 336 838 m 442 -14 q 282 19 350 -14 q 170 106 214 51 q 105 229 126 161 q 83 368 83 297 q 105 506 83 438 q 169 629 126 574 q 278 717 213 685 q 436 750 344 750 q 607 706 532 750 q 724 577 682 663 q 767 365 767 492 l 767 322 l 243 322 q 300 176 249 238 q 442 115 351 115 q 526 133 493 115 q 578 172 560 150 q 604 211 597 194 q 611 228 611 228 l 758 228 q 751 203 758 228 q 726 143 744 179 q 673 71 708 107 q 581 10 638 35 q 442 -14 525 -14 m 244 433 l 613 433 q 556 576 608 531 q 435 622 503 622 q 304 572 356 622 q 244 433 253 521 z "},"ė":{"ha":850,"x_min":83,"x_max":767,"o":"m 436 861 q 364 890 392 861 q 336 958 336 919 q 364 1028 336 1000 q 436 1057 392 1057 q 506 1028 478 1057 q 535 958 535 1000 q 506 890 535 918 q 436 861 478 861 m 442 -14 q 282 19 350 -14 q 170 106 214 51 q 105 229 126 161 q 83 368 83 297 q 105 506 83 438 q 169 629 126 574 q 278 717 213 685 q 436 750 344 750 q 607 706 532 750 q 724 577 682 663 q 767 365 767 492 l 767 322 l 243 322 q 300 176 249 238 q 442 115 351 115 q 526 133 493 115 q 578 172 560 150 q 604 211 597 194 q 611 228 611 228 l 758 228 q 751 203 758 228 q 726 143 744 179 q 673 71 708 107 q 581 10 638 35 q 442 -14 525 -14 m 244 433 l 613 433 q 556 576 608 531 q 435 622 503 622 q 304 572 356 622 q 244 433 253 521 z "},"ẹ":{"ha":850,"x_min":83,"x_max":767,"o":"m 442 -14 q 282 19 350 -14 q 170 106 214 51 q 105 229 126 161 q 83 368 83 297 q 105 506 83 438 q 169 629 126 574 q 278 717 213 685 q 436 750 344 750 q 607 706 532 750 q 724 577 682 663 q 767 365 767 492 l 767 322 l 243 322 q 300 176 249 238 q 442 115 351 115 q 526 133 493 115 q 578 172 560 150 q 604 211 597 194 q 611 228 611 228 l 758 228 q 751 203 758 228 q 726 143 744 179 q 673 71 708 107 q 581 10 638 35 q 442 -14 525 -14 m 244 433 l 613 433 q 556 576 608 531 q 435 622 503 622 q 304 572 356 622 q 244 433 253 521 m 436 -324 q 366 -295 393 -324 q 339 -228 339 -267 q 366 -159 339 -187 q 436 -131 393 -131 q 504 -159 476 -131 q 532 -228 532 -187 q 504 -295 532 -267 q 436 -324 476 -324 z "},"è":{"ha":850,"x_min":83,"x_max":767,"o":"m 378 843 l 232 1094 l 388 1094 l 504 844 l 378 843 m 442 -14 q 282 19 350 -14 q 170 106 214 51 q 105 229 126 161 q 83 368 83 297 q 105 506 83 438 q 169 629 126 574 q 278 717 213 685 q 436 750 344 750 q 607 706 532 750 q 724 577 682 663 q 767 365 767 492 l 767 322 l 243 322 q 300 176 249 238 q 442 115 351 115 q 526 133 493 115 q 578 172 560 150 q 604 211 597 194 q 611 228 611 228 l 758 228 q 751 203 758 228 q 726 143 744 179 q 673 71 708 107 q 581 10 638 35 q 442 -14 525 -14 m 244 433 l 613 433 q 556 576 608 531 q 435 622 503 622 q 304 572 356 622 q 244 433 253 521 z "},"ẻ":{"ha":850,"x_min":83,"x_max":767,"o":"m 386 832 l 386 876 q 392 906 386 892 q 417 929 399 921 l 436 939 q 499 1008 499 971 q 484 1042 499 1026 q 440 1058 469 1058 q 401 1046 414 1058 q 385 1019 389 1033 q 381 1000 381 1006 l 279 1000 q 295 1069 279 1035 q 347 1125 311 1103 q 439 1147 383 1147 q 560 1107 515 1147 q 606 1013 606 1067 q 493 875 606 931 l 486 872 l 486 832 l 386 832 m 442 -14 q 282 19 350 -14 q 170 106 214 51 q 105 229 126 161 q 83 368 83 297 q 105 506 83 438 q 169 629 126 574 q 278 717 213 685 q 436 750 344 750 q 607 706 532 750 q 724 577 682 663 q 767 365 767 492 l 767 322 l 243 322 q 300 176 249 238 q 442 115 351 115 q 526 133 493 115 q 578 172 560 150 q 604 211 597 194 q 611 228 611 228 l 758 228 q 751 203 758 228 q 726 143 744 179 q 673 71 708 107 q 581 10 638 35 q 442 -14 525 -14 m 244 433 l 613 433 q 556 576 608 531 q 435 622 503 622 q 304 572 356 622 q 244 433 253 521 z "},"ē":{"ha":850,"x_min":83,"x_max":767,"o":"m 219 864 l 219 972 l 651 972 l 651 864 l 219 864 m 442 -14 q 282 19 350 -14 q 170 106 214 51 q 105 229 126 161 q 83 368 83 297 q 105 506 83 438 q 169 629 126 574 q 278 717 213 685 q 436 750 344 750 q 607 706 532 750 q 724 577 682 663 q 767 365 767 492 l 767 322 l 243 322 q 300 176 249 238 q 442 115 351 115 q 526 133 493 115 q 578 172 560 150 q 604 211 597 194 q 611 228 611 228 l 758 228 q 751 203 758 228 q 726 143 744 179 q 673 71 708 107 q 581 10 638 35 q 442 -14 525 -14 m 244 433 l 613 433 q 556 576 608 531 q 435 622 503 622 q 304 572 356 622 q 244 433 253 521 z "},"ę":{"ha":850,"x_min":83,"x_max":767,"o":"m 481 -251 q 349 -213 392 -251 q 306 -122 306 -175 q 326 -53 306 -81 q 372 -8 347 -25 q 210 65 274 8 q 115 203 146 122 q 83 368 83 283 q 105 506 83 438 q 169 629 126 574 q 278 717 213 685 q 436 750 344 750 q 607 706 532 750 q 724 577 682 663 q 767 365 767 492 l 767 322 l 243 322 q 300 176 249 238 q 442 115 351 115 q 526 133 493 115 q 578 172 560 150 q 604 211 597 194 q 611 228 611 228 l 758 228 q 753 207 758 228 q 732 153 747 186 q 688 87 717 121 q 613 26 658 53 q 499 -10 567 -1 q 476 -23 493 -12 q 443 -51 458 -33 q 428 -94 428 -69 q 447 -135 428 -118 q 506 -151 467 -151 q 540 -149 525 -151 q 556 -146 556 -146 l 556 -243 q 534 -247 556 -243 q 481 -251 513 -251 m 244 433 l 613 433 q 556 576 608 531 q 435 622 503 622 q 304 572 356 622 q 244 433 253 521 z "},"ẽ":{"ha":850,"x_min":83,"x_max":767,"o":"m 533 854 q 469 868 496 854 q 424 899 443 882 q 388 931 404 917 q 351 944 371 944 q 318 922 328 944 q 308 863 308 900 l 211 863 q 222 950 211 907 q 261 1022 233 993 q 342 1050 289 1050 q 406 1037 379 1050 q 451 1006 432 1024 q 488 976 471 989 q 524 963 504 963 q 555 984 544 963 q 565 1043 565 1006 l 661 1043 q 651 956 661 999 q 613 883 640 913 q 533 854 585 854 m 442 -14 q 282 19 350 -14 q 170 106 214 51 q 105 229 126 161 q 83 368 83 297 q 105 506 83 438 q 169 629 126 574 q 278 717 213 685 q 436 750 344 750 q 607 706 532 750 q 724 577 682 663 q 767 365 767 492 l 767 322 l 243 322 q 300 176 249 238 q 442 115 351 115 q 526 133 493 115 q 578 172 560 150 q 604 211 597 194 q 611 228 611 228 l 758 228 q 751 203 758 228 q 726 143 744 179 q 673 71 708 107 q 581 10 638 35 q 442 -14 525 -14 m 244 433 l 613 433 q 556 576 608 531 q 435 622 503 622 q 304 572 356 622 q 244 433 253 521 z "},"f":{"ha":547,"x_min":58,"x_max":507,"o":"m 178 0 l 178 608 l 58 608 l 58 736 l 178 736 l 178 815 q 189 903 178 858 q 226 985 200 947 q 299 1047 253 1024 q 414 1069 344 1069 q 481 1063 454 1069 q 507 1057 507 1057 l 507 938 q 487 942 507 938 q 442 946 467 946 q 358 909 381 946 q 336 815 336 872 l 336 736 l 500 736 l 500 608 l 336 608 l 336 0 l 178 0 z "},"g":{"ha":900,"x_min":79,"x_max":808,"o":"m 454 -293 q 296 -268 358 -293 q 196 -206 233 -243 q 140 -133 158 -169 q 117 -71 122 -96 q 111 -46 111 -46 l 268 -46 q 274 -63 268 -46 q 298 -103 279 -81 q 354 -144 317 -126 q 453 -161 392 -161 q 569 -133 525 -161 q 631 -58 613 -104 q 650 43 650 -11 l 650 126 l 643 126 q 599 74 628 103 q 524 25 571 46 q 410 4 476 4 q 265 36 326 4 q 162 122 203 68 q 100 242 121 175 q 79 378 79 308 q 100 513 79 447 q 162 633 121 579 q 265 718 203 686 q 410 750 326 750 q 524 730 476 750 q 600 681 571 710 q 643 628 629 653 l 650 628 l 650 736 l 808 736 l 808 44 q 768 -131 808 -54 q 649 -250 728 -207 q 454 -293 569 -293 m 446 135 q 560 170 514 135 q 628 261 606 206 q 650 378 650 317 q 628 494 650 439 q 560 585 606 550 q 446 619 514 619 q 331 585 376 619 q 263 494 285 550 q 240 378 240 439 q 263 261 240 317 q 331 170 285 206 q 446 135 376 135 z "},"ğ":{"ha":917,"x_min":83,"x_max":814,"o":"m 456 836 q 342 858 386 836 q 273 914 297 881 q 238 980 249 947 q 226 1035 228 1013 q 224 1057 224 1057 l 336 1057 q 338 1039 336 1057 q 351 997 340 1021 q 387 956 363 974 q 456 938 411 938 q 525 956 500 938 q 560 997 550 974 q 573 1039 571 1021 q 575 1057 575 1057 l 688 1057 q 685 1035 688 1057 q 673 980 683 1013 q 638 914 663 947 q 570 858 614 881 q 456 836 526 836 m 458 -293 q 300 -268 363 -293 q 200 -206 238 -243 q 144 -133 163 -169 q 121 -71 126 -96 q 115 -46 115 -46 l 272 -46 q 278 -63 272 -46 q 303 -103 285 -81 q 359 -144 322 -126 q 457 -161 396 -161 q 574 -133 531 -161 q 636 -58 617 -104 q 656 43 656 -11 l 656 126 l 647 126 q 604 74 633 103 q 528 25 575 46 q 414 4 482 4 q 269 36 331 4 q 166 122 207 68 q 104 242 125 175 q 83 378 83 308 q 104 513 83 447 q 166 633 125 579 q 269 718 207 686 q 414 750 331 750 q 528 730 482 750 q 604 681 575 710 q 647 628 633 653 l 656 628 l 656 736 l 814 736 l 814 44 q 774 -131 814 -54 q 654 -250 733 -207 q 458 -293 575 -293 m 450 135 q 564 170 518 135 q 633 261 610 206 q 656 378 656 317 q 633 494 656 439 q 564 585 610 550 q 450 619 518 619 q 336 585 382 619 q 267 494 290 550 q 244 378 244 439 q 267 261 244 317 q 336 170 290 206 q 450 135 382 135 z "},"ǧ":{"ha":917,"x_min":83,"x_max":814,"o":"m 390 825 l 219 1063 l 354 1063 l 456 915 l 558 1063 l 693 1063 l 522 825 l 390 825 m 458 -293 q 300 -268 363 -293 q 200 -206 238 -243 q 144 -133 163 -169 q 121 -71 126 -96 q 115 -46 115 -46 l 272 -46 q 278 -63 272 -46 q 303 -103 285 -81 q 359 -144 322 -126 q 457 -161 396 -161 q 574 -133 531 -161 q 636 -58 617 -104 q 656 43 656 -11 l 656 126 l 647 126 q 604 74 633 103 q 528 25 575 46 q 414 4 482 4 q 269 36 331 4 q 166 122 207 68 q 104 242 125 175 q 83 378 83 308 q 104 513 83 447 q 166 633 125 579 q 269 718 207 686 q 414 750 331 750 q 528 730 482 750 q 604 681 575 710 q 647 628 633 653 l 656 628 l 656 736 l 814 736 l 814 44 q 774 -131 814 -54 q 654 -250 733 -207 q 458 -293 575 -293 m 450 135 q 564 170 518 135 q 633 261 610 206 q 656 378 656 317 q 633 494 656 439 q 564 585 610 550 q 450 619 518 619 q 336 585 382 619 q 267 494 290 550 q 244 378 244 439 q 267 261 244 317 q 336 170 290 206 q 450 135 382 135 z "},"ġ":{"ha":917,"x_min":83,"x_max":814,"o":"m 456 863 q 385 892 413 863 q 357 960 357 921 q 385 1028 357 1000 q 456 1057 413 1057 q 526 1028 499 1057 q 554 960 554 1000 q 526 891 554 919 q 456 863 499 863 m 458 -293 q 300 -268 363 -293 q 200 -206 238 -243 q 144 -133 163 -169 q 121 -71 126 -96 q 115 -46 115 -46 l 272 -46 q 278 -63 272 -46 q 303 -103 285 -81 q 359 -144 322 -126 q 457 -161 396 -161 q 574 -133 531 -161 q 636 -58 617 -104 q 656 43 656 -11 l 656 126 l 647 126 q 604 74 633 103 q 528 25 575 46 q 414 4 482 4 q 269 36 331 4 q 166 122 207 68 q 104 242 125 175 q 83 378 83 308 q 104 513 83 447 q 166 633 125 579 q 269 718 207 686 q 414 750 331 750 q 528 730 482 750 q 604 681 575 710 q 647 628 633 653 l 656 628 l 656 736 l 814 736 l 814 44 q 774 -131 814 -54 q 654 -250 733 -207 q 458 -293 575 -293 m 450 135 q 564 170 518 135 q 633 261 610 206 q 656 378 656 317 q 633 494 656 439 q 564 585 610 550 q 450 619 518 619 q 336 585 382 619 q 267 494 290 550 q 244 378 244 439 q 267 261 244 317 q 336 170 290 206 q 450 135 382 135 z "},"ḡ":{"ha":917,"x_min":83,"x_max":814,"o":"m 240 864 l 240 972 l 672 972 l 672 864 l 240 864 m 458 -293 q 300 -268 363 -293 q 200 -206 238 -243 q 144 -133 163 -169 q 121 -71 126 -96 q 115 -46 115 -46 l 272 -46 q 278 -63 272 -46 q 303 -103 285 -81 q 359 -144 322 -126 q 457 -161 396 -161 q 574 -133 531 -161 q 636 -58 617 -104 q 656 43 656 -11 l 656 126 l 647 126 q 604 74 633 103 q 528 25 575 46 q 414 4 482 4 q 269 36 331 4 q 166 122 207 68 q 104 242 125 175 q 83 378 83 308 q 104 513 83 447 q 166 633 125 579 q 269 718 207 686 q 414 750 331 750 q 528 730 482 750 q 604 681 575 710 q 647 628 633 653 l 656 628 l 656 736 l 814 736 l 814 44 q 774 -131 814 -54 q 654 -250 733 -207 q 458 -293 575 -293 m 450 135 q 564 170 518 135 q 633 261 610 206 q 656 378 656 317 q 633 494 656 439 q 564 585 610 550 q 450 619 518 619 q 336 585 382 619 q 267 494 290 550 q 244 378 244 439 q 267 261 244 317 q 336 170 290 206 q 450 135 382 135 z "},"h":{"ha":821,"x_min":106,"x_max":729,"o":"m 106 0 l 106 1056 l 264 1056 l 264 629 l 272 629 q 306 677 282 649 q 372 728 329 706 q 479 750 414 750 q 617 713 561 750 q 701 613 672 675 q 729 475 729 550 l 729 0 l 571 0 l 571 458 q 534 571 571 525 q 425 617 497 617 q 333 588 368 617 q 281 515 297 560 q 264 418 264 469 l 264 0 l 106 0 z "},"ħ":{"ha":871,"x_min":22,"x_max":779,"o":"m 154 0 l 154 810 l 22 810 l 22 926 l 154 926 l 154 1056 l 313 1056 l 313 926 l 492 926 l 492 810 l 313 810 l 313 629 l 321 629 q 354 677 331 649 q 420 728 378 706 q 528 750 463 750 q 666 713 610 750 q 751 613 722 675 q 779 475 779 550 l 779 0 l 621 0 l 621 458 q 584 571 621 525 q 474 617 547 617 q 381 588 417 617 q 329 515 346 560 q 313 418 313 469 l 313 0 l 154 0 z "},"i":{"ha":382,"x_min":92,"x_max":290,"o":"m 190 863 q 119 892 147 863 q 92 960 92 921 q 119 1028 92 1000 q 190 1057 147 1057 q 262 1028 233 1057 q 290 960 290 1000 q 262 891 290 919 q 190 863 233 863 m 113 0 l 113 736 l 271 736 l 271 0 l 113 0 z "},"ı":{"ha":396,"x_min":119,"x_max":278,"o":"m 119 0 l 119 736 l 278 736 l 278 0 l 119 0 z "},"í":{"ha":396,"x_min":119,"x_max":407,"o":"m 261 844 l 135 846 l 251 1096 l 407 1096 l 261 844 m 119 0 l 119 736 l 278 736 l 278 0 l 119 0 z "},"î":{"ha":396,"x_min":-39,"x_max":436,"o":"m -39 838 l 133 1075 l 264 1075 l 436 838 l 301 838 l 199 985 l 96 838 l -39 838 m 119 0 l 119 736 l 278 736 l 278 0 l 119 0 z "},"ï":{"ha":396,"x_min":-40,"x_max":435,"o":"m 338 839 q 268 867 296 839 q 240 935 240 896 q 268 1003 240 975 q 338 1031 296 1031 q 407 1003 379 1031 q 435 935 435 975 q 407 867 435 894 q 338 839 379 839 m 57 839 q -13 867 14 839 q -40 935 -40 896 q -13 1003 -40 975 q 57 1031 14 1031 q 126 1003 99 1031 q 154 935 154 975 q 126 867 154 894 q 57 839 99 839 m 119 0 l 119 736 l 278 736 l 278 0 l 119 0 z "},"ị":{"ha":396,"x_min":99,"x_max":297,"o":"m 197 863 q 126 892 154 863 q 99 960 99 921 q 126 1028 99 1000 q 197 1057 154 1057 q 269 1028 240 1057 q 297 960 297 1000 q 269 891 297 919 q 197 863 240 863 m 119 0 l 119 736 l 278 736 l 278 0 l 119 0 m 197 -325 q 128 -296 156 -325 q 101 -228 101 -267 q 128 -159 101 -187 q 197 -131 156 -131 q 267 -159 239 -131 q 294 -228 294 -187 q 267 -297 294 -268 q 197 -325 239 -325 z "},"ì":{"ha":396,"x_min":-7,"x_max":278,"o":"m 140 844 l -7 1096 l 150 1096 l 267 846 l 140 844 m 119 0 l 119 736 l 278 736 l 278 0 l 119 0 z "},"ỉ":{"ha":396,"x_min":42,"x_max":368,"o":"m 149 832 l 149 878 q 155 907 149 892 q 178 931 161 922 l 199 940 q 261 1010 261 972 q 247 1043 261 1028 q 203 1058 232 1058 q 163 1047 176 1058 q 147 1021 150 1035 q 143 1000 143 1007 l 42 1000 q 58 1069 42 1036 q 109 1125 74 1103 q 201 1147 144 1147 q 323 1108 278 1147 q 368 1013 368 1068 q 254 875 368 931 l 249 872 l 249 832 l 149 832 m 119 0 l 119 736 l 278 736 l 278 0 l 119 0 z "},"ī":{"ha":396,"x_min":-18,"x_max":414,"o":"m -18 864 l -18 972 l 414 972 l 414 864 l -18 864 m 119 0 l 119 736 l 278 736 l 278 0 l 119 0 z "},"į":{"ha":396,"x_min":81,"x_max":332,"o":"m 197 863 q 126 892 154 863 q 99 960 99 921 q 126 1028 99 1000 q 197 1057 154 1057 q 269 1028 240 1057 q 297 960 297 1000 q 269 891 297 919 q 197 863 240 863 m 119 0 l 119 736 l 278 736 l 278 0 q 259 -10 278 0 q 222 -38 240 -19 q 204 -85 204 -57 q 223 -126 204 -108 q 282 -143 242 -143 q 316 -140 300 -143 q 332 -136 332 -136 l 332 -235 q 310 -239 332 -235 q 256 -243 288 -243 q 124 -205 167 -243 q 81 -112 81 -167 q 101 -44 81 -72 q 147 0 122 -17 l 119 0 z "},"ĩ":{"ha":396,"x_min":-26,"x_max":424,"o":"m 294 856 q 231 869 257 856 q 186 901 206 883 q 149 932 167 918 q 114 946 132 946 q 81 924 90 946 q 71 864 71 901 l -26 864 q -15 951 -26 908 q 24 1023 -4 994 q 104 1051 51 1051 q 168 1038 142 1051 q 214 1007 194 1025 q 250 976 233 989 q 286 963 267 963 q 317 984 307 963 q 326 1044 326 1006 l 424 1044 q 413 956 424 1000 q 375 884 403 913 q 294 856 347 856 m 119 0 l 119 736 l 278 736 l 278 0 l 119 0 z "},"j":{"ha":393,"x_min":-61,"x_max":301,"o":"m 203 863 q 131 892 160 863 q 103 960 103 921 q 131 1028 103 1000 q 203 1057 160 1057 q 273 1028 244 1057 q 301 960 301 1000 q 273 891 301 919 q 203 863 244 863 m 33 -271 q -35 -267 -8 -271 q -61 -262 -61 -262 l -61 -131 q -44 -133 -61 -131 q -3 -136 -26 -136 q 97 -104 69 -136 q 124 -6 124 -72 l 124 736 l 282 736 l 282 -7 q 272 -97 282 -50 q 234 -183 261 -143 q 158 -247 207 -222 q 33 -271 110 -271 z "},"k":{"ha":792,"x_min":106,"x_max":744,"o":"m 106 0 l 106 1056 l 264 1056 l 264 443 l 540 736 l 735 736 l 414 400 l 744 0 l 549 0 l 264 347 l 264 0 l 106 0 z "},"l":{"ha":369,"x_min":106,"x_max":264,"o":"m 106 0 l 107 1056 l 264 1056 l 264 0 l 106 0 z "},"ĺ":{"ha":392,"x_min":117,"x_max":406,"o":"m 260 1167 l 133 1168 l 250 1418 l 406 1418 l 260 1167 m 117 0 l 118 1056 l 275 1056 l 275 0 l 117 0 z "},"ľ":{"ha":467,"x_min":106,"x_max":528,"o":"m 106 0 l 107 1056 l 264 1056 l 264 0 l 106 0 m 374 761 l 388 1056 l 528 1056 l 471 761 l 374 761 z "},"ł":{"ha":582,"x_min":36,"x_max":546,"o":"m 200 0 l 201 447 l 36 393 l 36 521 l 201 576 l 201 1056 l 358 1056 l 358 629 l 546 692 l 546 564 l 358 501 l 358 0 l 200 0 z "},"m":{"ha":1242,"x_min":92,"x_max":1150,"o":"m 92 0 l 92 736 l 250 736 l 250 632 l 256 632 q 292 682 268 654 q 357 730 317 710 q 458 750 397 750 q 594 711 540 750 q 675 608 649 672 l 678 608 q 763 707 707 664 q 910 750 818 750 q 1042 713 988 750 q 1123 615 1096 676 q 1150 475 1150 553 l 1150 0 l 992 0 l 992 453 q 957 571 992 525 q 854 617 922 617 q 765 586 799 617 q 715 510 731 556 q 700 419 700 465 l 700 0 l 542 0 l 542 453 q 507 571 542 525 q 404 617 472 617 q 315 586 349 617 q 265 510 281 556 q 250 419 250 465 l 250 0 l 92 0 z "},"n":{"ha":807,"x_min":92,"x_max":715,"o":"m 92 0 l 92 736 l 250 736 l 250 629 l 258 629 q 292 677 268 649 q 358 728 315 706 q 465 750 400 750 q 603 713 547 750 q 687 613 658 675 q 715 475 715 550 l 715 0 l 557 0 l 557 458 q 520 571 557 525 q 411 617 483 617 q 319 588 354 617 q 267 515 283 560 q 250 418 250 469 l 250 0 l 92 0 z "},"ń":{"ha":836,"x_min":110,"x_max":733,"o":"m 486 844 l 360 846 l 476 1096 l 633 1096 l 486 844 m 110 0 l 110 736 l 268 736 l 268 629 l 276 629 q 310 677 286 649 q 376 728 333 706 q 483 750 418 750 q 621 713 565 750 q 705 613 676 675 q 733 475 733 550 l 733 0 l 575 0 l 575 458 q 538 571 575 525 q 429 617 501 617 q 337 588 372 617 q 285 515 301 560 q 268 418 268 469 l 268 0 l 110 0 z "},"ň":{"ha":836,"x_min":110,"x_max":733,"o":"m 358 825 l 186 1063 l 321 1063 l 424 915 l 526 1063 l 661 1063 l 489 825 l 358 825 m 110 0 l 110 736 l 268 736 l 268 629 l 276 629 q 310 677 286 649 q 376 728 333 706 q 483 750 418 750 q 621 713 565 750 q 705 613 676 675 q 733 475 733 550 l 733 0 l 575 0 l 575 458 q 538 571 575 525 q 429 617 501 617 q 337 588 372 617 q 285 515 301 560 q 268 418 268 469 l 268 0 l 110 0 z "},"ñ":{"ha":836,"x_min":110,"x_max":733,"o":"m 521 856 q 457 869 483 856 q 411 901 431 883 q 375 932 392 918 q 339 946 358 946 q 306 924 315 946 q 296 864 296 901 l 199 864 q 210 951 199 908 q 249 1023 221 994 q 329 1051 278 1051 q 393 1038 367 1051 q 440 1007 419 1025 q 476 976 460 989 q 511 963 493 963 q 542 984 532 963 q 553 1044 553 1006 l 650 1044 q 639 956 650 1000 q 600 884 628 913 q 521 856 572 856 m 110 0 l 110 736 l 268 736 l 268 629 l 276 629 q 310 677 286 649 q 376 728 333 706 q 483 750 418 750 q 621 713 565 750 q 705 613 676 675 q 733 475 733 550 l 733 0 l 575 0 l 575 458 q 538 571 575 525 q 429 617 501 617 q 337 588 372 617 q 285 515 301 560 q 268 418 268 469 l 268 0 l 110 0 z "},"o":{"ha":899,"x_min":79,"x_max":819,"o":"m 450 -14 q 247 40 329 -14 q 122 182 164 94 q 79 368 79 269 q 122 554 79 467 q 247 696 164 642 q 450 750 329 750 q 652 696 569 750 q 777 554 735 642 q 819 368 819 467 q 777 182 819 269 q 652 40 735 94 q 450 -14 569 -14 m 450 121 q 565 156 518 121 q 635 247 611 190 q 660 368 660 304 q 635 490 660 433 q 565 581 611 546 q 450 615 518 615 q 335 581 382 615 q 264 490 288 546 q 240 368 240 433 q 264 247 240 304 q 335 156 288 190 q 450 121 382 121 z "},"ó":{"ha":908,"x_min":83,"x_max":825,"o":"m 517 846 l 389 847 l 507 1096 l 663 1096 l 517 846 m 454 -14 q 252 40 335 -14 q 126 182 169 94 q 83 368 83 269 q 126 554 83 467 q 252 696 169 642 q 454 750 335 750 q 656 696 574 750 q 782 554 739 642 q 825 368 825 467 q 782 182 825 269 q 656 40 739 94 q 454 -14 574 -14 m 454 121 q 569 156 522 121 q 640 247 615 190 q 664 368 664 304 q 640 490 664 433 q 569 581 615 546 q 454 615 522 615 q 340 581 386 615 q 269 490 293 546 q 244 368 244 433 q 269 247 244 304 q 340 156 293 190 q 454 121 386 121 z "},"ô":{"ha":908,"x_min":83,"x_max":825,"o":"m 217 838 l 389 1076 l 519 1076 l 692 838 l 557 838 l 453 985 l 351 838 l 217 838 m 454 -14 q 252 40 335 -14 q 126 182 169 94 q 83 368 83 269 q 126 554 83 467 q 252 696 169 642 q 454 750 335 750 q 656 696 574 750 q 782 554 739 642 q 825 368 825 467 q 782 182 825 269 q 656 40 739 94 q 454 -14 574 -14 m 454 121 q 569 156 522 121 q 640 247 615 190 q 664 368 664 304 q 640 490 664 433 q 569 581 615 546 q 454 615 522 615 q 340 581 386 615 q 269 490 293 546 q 244 368 244 433 q 269 247 244 304 q 340 156 293 190 q 454 121 386 121 z "},"ố":{"ha":908,"x_min":83,"x_max":889,"o":"m 743 1017 l 615 1018 l 733 1268 l 889 1268 l 743 1017 m 217 838 l 388 1046 l 519 1046 l 690 838 l 556 838 l 453 963 l 351 838 l 217 838 m 454 -14 q 252 40 335 -14 q 126 182 169 94 q 83 368 83 269 q 126 554 83 467 q 252 696 169 642 q 454 750 335 750 q 656 696 574 750 q 782 554 739 642 q 825 368 825 467 q 782 182 825 269 q 656 40 739 94 q 454 -14 574 -14 m 454 121 q 569 156 522 121 q 640 247 615 190 q 664 368 664 304 q 640 490 664 433 q 569 581 615 546 q 454 615 522 615 q 340 581 386 615 q 269 490 293 546 q 244 368 244 433 q 269 247 244 304 q 340 156 293 190 q 454 121 386 121 z "},"ộ":{"ha":908,"x_min":83,"x_max":825,"o":"m 217 838 l 389 1076 l 519 1076 l 692 838 l 557 838 l 453 985 l 351 838 l 217 838 m 454 -14 q 252 40 335 -14 q 126 182 169 94 q 83 368 83 269 q 126 554 83 467 q 252 696 169 642 q 454 750 335 750 q 656 696 574 750 q 782 554 739 642 q 825 368 825 467 q 782 182 825 269 q 656 40 739 94 q 454 -14 574 -14 m 454 121 q 569 156 522 121 q 640 247 615 190 q 664 368 664 304 q 640 490 664 433 q 569 581 615 546 q 454 615 522 615 q 340 581 386 615 q 269 490 293 546 q 244 368 244 433 q 269 247 244 304 q 340 156 293 190 q 454 121 386 121 m 454 -325 q 384 -296 411 -325 q 357 -228 357 -267 q 384 -159 357 -187 q 454 -131 411 -131 q 524 -159 496 -131 q 551 -228 551 -187 q 524 -297 551 -268 q 454 -325 496 -325 z "},"ồ":{"ha":908,"x_min":83,"x_max":825,"o":"m 650 1017 l 503 1268 l 660 1268 l 776 1018 l 650 1017 m 217 838 l 389 1046 l 519 1046 l 692 838 l 557 838 l 453 963 l 351 838 l 217 838 m 454 -14 q 252 40 335 -14 q 126 182 169 94 q 83 368 83 269 q 126 554 83 467 q 252 696 169 642 q 454 750 335 750 q 656 696 574 750 q 782 554 739 642 q 825 368 825 467 q 782 182 825 269 q 656 40 739 94 q 454 -14 574 -14 m 454 121 q 569 156 522 121 q 640 247 615 190 q 664 368 664 304 q 640 490 664 433 q 569 581 615 546 q 454 615 522 615 q 340 581 386 615 q 269 490 293 546 q 244 368 244 433 q 269 247 244 304 q 340 156 293 190 q 454 121 386 121 z "},"ổ":{"ha":908,"x_min":83,"x_max":853,"o":"m 635 1003 l 635 1047 q 641 1077 635 1063 q 664 1100 647 1092 l 685 1110 q 747 1179 747 1142 q 733 1213 747 1197 q 689 1229 718 1229 q 649 1217 663 1229 q 633 1190 636 1204 q 629 1171 629 1176 l 528 1171 q 543 1240 526 1206 q 595 1296 560 1274 q 688 1318 631 1318 q 808 1278 764 1318 q 853 1183 853 1238 q 740 1046 853 1101 l 735 1043 l 735 1003 l 635 1003 m 215 838 l 386 1046 l 518 1046 l 689 838 l 554 838 l 451 963 l 350 838 l 215 838 m 454 -14 q 252 40 335 -14 q 126 182 169 94 q 83 368 83 269 q 126 554 83 467 q 252 696 169 642 q 454 750 335 750 q 656 696 574 750 q 782 554 739 642 q 825 368 825 467 q 782 182 825 269 q 656 40 739 94 q 454 -14 574 -14 m 454 121 q 569 156 522 121 q 640 247 615 190 q 664 368 664 304 q 640 490 664 433 q 569 581 615 546 q 454 615 522 615 q 340 581 386 615 q 269 490 293 546 q 244 368 244 433 q 269 247 244 304 q 340 156 293 190 q 454 121 386 121 z "},"ỗ":{"ha":908,"x_min":83,"x_max":825,"o":"m 549 1099 q 485 1112 511 1099 q 440 1143 460 1125 q 403 1174 421 1161 q 368 1188 386 1188 q 335 1165 344 1188 q 325 1107 325 1143 l 228 1107 q 239 1194 228 1151 q 278 1266 250 1238 q 358 1294 306 1294 q 422 1281 396 1294 q 468 1250 449 1268 q 504 1219 488 1232 q 540 1206 521 1206 q 571 1227 561 1206 q 581 1288 581 1249 l 678 1288 q 667 1199 678 1243 q 629 1127 657 1156 q 549 1099 601 1099 m 215 838 l 388 1046 l 518 1046 l 690 838 l 556 838 l 451 963 l 350 838 l 215 838 m 454 -14 q 252 40 335 -14 q 126 182 169 94 q 83 368 83 269 q 126 554 83 467 q 252 696 169 642 q 454 750 335 750 q 656 696 574 750 q 782 554 739 642 q 825 368 825 467 q 782 182 825 269 q 656 40 739 94 q 454 -14 574 -14 m 454 121 q 569 156 522 121 q 640 247 615 190 q 664 368 664 304 q 640 490 664 433 q 569 581 615 546 q 454 615 522 615 q 340 581 386 615 q 269 490 293 546 q 244 368 244 433 q 269 247 244 304 q 340 156 293 190 q 454 121 386 121 z "},"ö":{"ha":908,"x_min":83,"x_max":825,"o":"m 593 840 q 523 869 550 840 q 496 936 496 897 q 523 1003 496 975 q 593 1032 550 1032 q 663 1003 635 1032 q 690 936 690 975 q 663 868 690 896 q 593 840 635 840 m 313 840 q 242 869 269 840 q 215 936 215 897 q 242 1003 215 975 q 313 1032 269 1032 q 382 1003 354 1032 q 410 936 410 975 q 382 868 410 896 q 313 840 354 840 m 454 -14 q 252 40 335 -14 q 126 182 169 94 q 83 368 83 269 q 126 554 83 467 q 252 696 169 642 q 454 750 335 750 q 656 696 574 750 q 782 554 739 642 q 825 368 825 467 q 782 182 825 269 q 656 40 739 94 q 454 -14 574 -14 m 454 121 q 569 156 522 121 q 640 247 615 190 q 664 368 664 304 q 640 490 664 433 q 569 581 615 546 q 454 615 522 615 q 340 581 386 615 q 269 490 293 546 q 244 368 244 433 q 269 247 244 304 q 340 156 293 190 q 454 121 386 121 z "},"ọ":{"ha":908,"x_min":83,"x_max":825,"o":"m 454 -14 q 252 40 335 -14 q 126 182 169 94 q 83 368 83 269 q 126 554 83 467 q 252 696 169 642 q 454 750 335 750 q 656 696 574 750 q 782 554 739 642 q 825 368 825 467 q 782 182 825 269 q 656 40 739 94 q 454 -14 574 -14 m 454 121 q 569 156 522 121 q 640 247 615 190 q 664 368 664 304 q 640 490 664 433 q 569 581 615 546 q 454 615 522 615 q 340 581 386 615 q 269 490 293 546 q 244 368 244 433 q 269 247 244 304 q 340 156 293 190 q 454 121 386 121 m 454 -325 q 384 -296 411 -325 q 357 -228 357 -267 q 384 -159 357 -187 q 454 -131 411 -131 q 524 -159 496 -131 q 551 -228 551 -187 q 524 -297 551 -268 q 454 -325 496 -325 z "},"ò":{"ha":908,"x_min":83,"x_max":825,"o":"m 394 846 l 249 1096 l 406 1096 l 522 847 l 394 846 m 454 -14 q 252 40 335 -14 q 126 182 169 94 q 83 368 83 269 q 126 554 83 467 q 252 696 169 642 q 454 750 335 750 q 656 696 574 750 q 782 554 739 642 q 825 368 825 467 q 782 182 825 269 q 656 40 739 94 q 454 -14 574 -14 m 454 121 q 569 156 522 121 q 640 247 615 190 q 664 368 664 304 q 640 490 664 433 q 569 581 615 546 q 454 615 522 615 q 340 581 386 615 q 269 490 293 546 q 244 368 244 433 q 269 247 244 304 q 340 156 293 190 q 454 121 386 121 z "},"ỏ":{"ha":908,"x_min":83,"x_max":825,"o":"m 404 833 l 404 878 q 410 908 404 893 q 433 932 417 922 l 454 942 q 517 1011 517 972 q 502 1044 517 1029 q 458 1060 488 1060 q 419 1048 432 1060 q 402 1022 406 1036 q 399 1001 399 1008 l 297 1001 q 313 1070 296 1036 q 365 1126 329 1104 q 457 1149 400 1149 q 578 1109 533 1149 q 622 1014 622 1069 q 510 876 622 932 l 504 874 l 504 833 l 404 833 m 454 -14 q 252 40 335 -14 q 126 182 169 94 q 83 368 83 269 q 126 554 83 467 q 252 696 169 642 q 454 750 335 750 q 656 696 574 750 q 782 554 739 642 q 825 368 825 467 q 782 182 825 269 q 656 40 739 94 q 454 -14 574 -14 m 454 121 q 569 156 522 121 q 640 247 615 190 q 664 368 664 304 q 640 490 664 433 q 569 581 615 546 q 454 615 522 615 q 340 581 386 615 q 269 490 293 546 q 244 368 244 433 q 269 247 244 304 q 340 156 293 190 q 454 121 386 121 z "},"ơ":{"ha":904,"x_min":79,"x_max":822,"o":"m 450 -14 q 247 40 329 -14 q 122 182 164 94 q 79 368 79 269 q 122 554 79 467 q 247 696 164 642 q 450 750 329 750 l 635 750 q 689 807 689 750 l 689 894 l 822 894 l 822 804 q 792 702 822 740 q 700 658 761 664 q 789 528 758 604 q 819 368 819 451 q 777 182 819 269 q 652 40 735 94 q 450 -14 569 -14 m 450 121 q 565 156 518 121 q 635 247 611 190 q 660 368 660 304 q 635 490 660 433 q 565 581 611 546 q 450 615 518 615 q 335 581 382 615 q 264 490 288 546 q 240 368 240 433 q 264 247 240 304 q 335 156 288 190 q 450 121 382 121 z "},"ớ":{"ha":908,"x_min":83,"x_max":828,"o":"m 518 844 l 390 846 l 507 1096 l 664 1096 l 518 844 m 454 -14 q 252 40 335 -14 q 126 182 169 94 q 83 368 83 269 q 126 554 83 467 q 252 696 169 642 q 454 750 335 750 l 639 750 q 693 807 693 750 l 693 894 l 828 894 l 828 804 q 797 702 828 740 q 704 658 765 664 q 794 528 764 604 q 825 368 825 451 q 782 182 825 269 q 656 40 739 94 q 454 -14 574 -14 m 454 121 q 569 156 522 121 q 640 247 615 190 q 664 368 664 304 q 640 490 664 433 q 569 581 615 546 q 454 615 522 615 q 340 581 386 615 q 269 490 293 546 q 244 368 244 433 q 269 247 244 304 q 340 156 293 190 q 454 121 386 121 z "},"ợ":{"ha":908,"x_min":83,"x_max":828,"o":"m 454 -14 q 252 40 335 -14 q 126 182 169 94 q 83 368 83 269 q 126 554 83 467 q 252 696 169 642 q 454 750 335 750 l 639 750 q 693 807 693 750 l 693 894 l 828 894 l 828 804 q 797 702 828 740 q 704 658 765 664 q 794 528 764 604 q 825 368 825 451 q 782 182 825 269 q 656 40 739 94 q 454 -14 574 -14 m 454 121 q 569 156 522 121 q 640 247 615 190 q 664 368 664 304 q 640 490 664 433 q 569 581 615 546 q 454 615 522 615 q 340 581 386 615 q 269 490 293 546 q 244 368 244 433 q 269 247 244 304 q 340 156 293 190 q 454 121 386 121 m 469 -325 q 401 -296 428 -325 q 374 -228 374 -267 q 401 -159 374 -187 q 469 -131 428 -131 q 539 -159 511 -131 q 567 -228 567 -187 q 539 -297 567 -268 q 469 -325 511 -325 z "},"ờ":{"ha":908,"x_min":83,"x_max":828,"o":"m 396 844 l 250 1096 l 406 1096 l 524 846 l 396 844 m 454 -14 q 252 40 335 -14 q 126 182 169 94 q 83 368 83 269 q 126 554 83 467 q 252 696 169 642 q 454 750 335 750 l 639 750 q 693 807 693 750 l 693 894 l 828 894 l 828 804 q 797 702 828 740 q 704 658 765 664 q 794 528 764 604 q 825 368 825 451 q 782 182 825 269 q 656 40 739 94 q 454 -14 574 -14 m 454 121 q 569 156 522 121 q 640 247 615 190 q 664 368 664 304 q 640 490 664 433 q 569 581 615 546 q 454 615 522 615 q 340 581 386 615 q 269 490 293 546 q 244 368 244 433 q 269 247 244 304 q 340 156 293 190 q 454 121 386 121 z "},"ở":{"ha":908,"x_min":83,"x_max":828,"o":"m 400 832 l 400 878 q 406 907 400 892 q 431 931 413 922 l 450 940 q 513 1010 513 972 q 498 1043 513 1028 q 456 1058 483 1058 q 415 1047 428 1058 q 399 1021 403 1035 q 396 1000 396 1007 l 294 1000 q 310 1069 293 1036 q 362 1125 326 1103 q 453 1147 397 1147 q 575 1108 531 1147 q 619 1013 619 1068 q 507 875 619 931 l 501 872 l 501 832 l 400 832 m 454 -14 q 252 40 335 -14 q 126 182 169 94 q 83 368 83 269 q 126 554 83 467 q 252 696 169 642 q 454 750 335 750 l 639 750 q 693 807 693 750 l 693 894 l 828 894 l 828 804 q 797 702 828 740 q 704 658 765 664 q 794 528 764 604 q 825 368 825 451 q 782 182 825 269 q 656 40 739 94 q 454 -14 574 -14 m 454 121 q 569 156 522 121 q 640 247 615 190 q 664 368 664 304 q 640 490 664 433 q 569 581 615 546 q 454 615 522 615 q 340 581 386 615 q 269 490 293 546 q 244 368 244 433 q 269 247 244 304 q 340 156 293 190 q 454 121 386 121 z "},"ỡ":{"ha":906,"x_min":83,"x_max":828,"o":"m 543 857 q 480 870 506 857 q 435 901 454 883 q 400 933 417 919 q 364 946 383 946 q 332 924 342 946 q 322 864 322 901 l 231 864 q 241 952 231 910 q 279 1022 251 994 q 357 1049 307 1049 q 420 1035 394 1049 q 465 1003 446 1021 q 501 972 485 986 q 536 958 517 958 q 567 981 557 958 q 576 1040 576 1003 l 668 1040 q 658 953 668 996 q 620 884 647 911 q 543 857 593 857 m 454 -14 q 252 40 335 -14 q 126 182 169 94 q 83 368 83 269 q 126 554 83 467 q 252 696 169 642 q 454 750 335 750 l 639 750 q 693 807 693 750 l 693 894 l 828 894 l 828 804 q 797 702 828 740 q 704 658 765 664 q 794 528 764 604 q 825 368 825 451 q 782 182 825 269 q 656 40 739 94 q 454 -14 574 -14 m 454 121 q 569 156 522 121 q 640 247 615 190 q 664 368 664 304 q 640 490 664 433 q 569 581 615 546 q 454 615 522 615 q 340 581 386 615 q 269 490 293 546 q 244 368 244 433 q 269 247 244 304 q 340 156 293 190 q 454 121 386 121 z "},"ő":{"ha":908,"x_min":83,"x_max":825,"o":"m 394 846 l 271 847 l 335 1096 l 489 1096 l 394 846 m 631 846 l 507 847 l 571 1096 l 724 1096 l 631 846 m 454 -14 q 252 40 335 -14 q 126 182 169 94 q 83 368 83 269 q 126 554 83 467 q 252 696 169 642 q 454 750 335 750 q 656 696 574 750 q 782 554 739 642 q 825 368 825 467 q 782 182 825 269 q 656 40 739 94 q 454 -14 574 -14 m 454 121 q 569 156 522 121 q 640 247 615 190 q 664 368 664 304 q 640 490 664 433 q 569 581 615 546 q 454 615 522 615 q 340 581 386 615 q 269 490 293 546 q 244 368 244 433 q 269 247 244 304 q 340 156 293 190 q 454 121 386 121 z "},"ō":{"ha":908,"x_min":83,"x_max":825,"o":"m 238 865 l 238 974 l 669 974 l 669 865 l 238 865 m 454 -14 q 252 40 335 -14 q 126 182 169 94 q 83 368 83 269 q 126 554 83 467 q 252 696 169 642 q 454 750 335 750 q 656 696 574 750 q 782 554 739 642 q 825 368 825 467 q 782 182 825 269 q 656 40 739 94 q 454 -14 574 -14 m 454 121 q 569 156 522 121 q 640 247 615 190 q 664 368 664 304 q 640 490 664 433 q 569 581 615 546 q 454 615 522 615 q 340 581 386 615 q 269 490 293 546 q 244 368 244 433 q 269 247 244 304 q 340 156 293 190 q 454 121 386 121 z "},"ø":{"ha":899,"x_min":79,"x_max":819,"o":"m 149 -62 l 218 61 q 115 197 150 115 q 79 368 79 278 q 122 554 79 467 q 247 696 164 642 q 450 750 329 750 q 590 725 525 750 l 631 797 l 747 797 l 679 676 q 784 540 749 622 q 819 368 819 458 q 777 182 819 269 q 652 40 735 94 q 450 -14 569 -14 q 306 11 372 -14 l 265 -62 l 149 -62 m 240 368 q 253 275 240 319 q 293 196 267 231 l 522 603 q 450 615 488 615 q 335 581 382 615 q 264 490 288 546 q 240 368 240 433 m 450 121 q 565 156 518 121 q 635 247 611 190 q 660 368 660 304 q 645 462 660 417 q 604 542 631 507 l 375 135 q 450 121 410 121 z "},"õ":{"ha":908,"x_min":83,"x_max":825,"o":"m 550 857 q 486 870 513 857 q 441 901 460 883 q 405 933 422 919 q 368 946 388 946 q 336 924 346 946 q 326 865 326 901 l 229 865 q 240 953 229 910 q 278 1024 250 996 q 358 1053 307 1053 q 424 1040 397 1053 q 469 1008 450 1026 q 506 977 489 990 q 540 964 522 964 q 572 985 563 964 q 582 1046 582 1007 l 679 1046 q 669 958 679 1001 q 630 885 658 914 q 550 857 601 857 m 454 -14 q 252 40 335 -14 q 126 182 169 94 q 83 368 83 269 q 126 554 83 467 q 252 696 169 642 q 454 750 335 750 q 656 696 574 750 q 782 554 739 642 q 825 368 825 467 q 782 182 825 269 q 656 40 739 94 q 454 -14 574 -14 m 454 121 q 569 156 522 121 q 640 247 615 190 q 664 368 664 304 q 640 490 664 433 q 569 581 615 546 q 454 615 522 615 q 340 581 386 615 q 269 490 293 546 q 244 368 244 433 q 269 247 244 304 q 340 156 293 190 q 454 121 386 121 z "},"œ":{"ha":1418,"x_min":79,"x_max":1339,"o":"m 447 -14 q 246 40 328 -14 q 122 182 164 94 q 79 368 79 269 q 122 554 79 467 q 246 696 164 642 q 447 750 328 750 q 617 710 546 750 q 733 599 689 671 q 844 710 776 669 q 1008 750 913 750 q 1180 706 1106 750 q 1297 577 1254 663 q 1339 365 1339 492 l 1339 322 l 817 322 q 874 176 822 236 q 1015 115 925 115 q 1100 133 1067 115 q 1151 172 1133 150 q 1177 211 1169 194 q 1185 228 1185 228 l 1332 228 q 1325 203 1332 228 q 1299 143 1318 179 q 1246 71 1281 107 q 1154 10 1211 35 q 1015 -14 1097 -14 q 847 26 917 -14 q 735 138 778 67 q 617 26 689 65 q 447 -14 546 -14 m 818 436 l 1186 436 q 1128 577 1181 532 q 1008 622 1076 622 q 878 572 929 622 q 818 436 826 521 m 447 121 q 562 156 515 121 q 633 247 608 190 q 657 368 657 304 q 633 490 657 433 q 562 581 608 546 q 447 615 515 615 q 333 581 379 615 q 262 490 286 546 q 238 368 238 433 q 262 247 238 304 q 333 156 286 190 q 447 121 379 121 z "},"p":{"ha":913,"x_min":106,"x_max":833,"o":"m 106 -272 l 106 736 l 264 736 l 264 626 l 272 626 q 313 676 286 647 q 387 728 340 706 q 504 750 433 750 q 649 717 586 750 q 752 630 711 685 q 813 507 793 575 q 833 368 833 439 q 813 229 833 297 q 752 106 793 161 q 649 19 711 51 q 504 -14 586 -14 q 387 8 433 -14 q 313 60 340 31 q 272 110 286 89 l 264 110 l 264 -272 l 106 -272 m 264 368 q 287 249 264 306 q 355 155 310 192 q 468 118 400 118 q 583 155 538 118 q 651 249 628 192 q 674 368 674 306 q 651 488 674 431 q 583 581 628 544 q 468 618 538 618 q 355 581 400 618 q 287 488 310 544 q 264 368 264 431 z "},"þ":{"ha":913,"x_min":106,"x_max":833,"o":"m 106 -272 l 106 1056 l 264 1056 l 264 626 l 272 626 q 313 676 286 647 q 387 728 340 706 q 504 750 433 750 q 649 717 586 750 q 752 630 711 685 q 813 507 793 575 q 833 368 833 439 q 813 229 833 297 q 752 106 793 161 q 649 19 711 51 q 504 -14 586 -14 q 387 8 433 -14 q 313 60 340 31 q 272 110 286 89 l 264 110 l 264 -272 l 106 -272 m 264 368 q 287 249 264 306 q 355 155 310 192 q 468 118 400 118 q 583 155 538 118 q 651 249 628 192 q 674 368 674 306 q 651 488 674 431 q 583 581 628 544 q 468 618 538 618 q 355 581 400 618 q 287 488 310 544 q 264 368 264 431 z "},"q":{"ha":913,"x_min":79,"x_max":807,"o":"m 649 -271 l 649 110 l 640 110 q 600 60 628 89 q 526 8 572 31 q 410 -14 479 -14 q 265 19 326 -14 q 161 106 203 51 q 99 229 119 161 q 79 368 79 297 q 99 507 79 439 q 161 630 119 575 q 265 717 203 685 q 410 750 326 750 q 526 728 479 750 q 600 676 572 706 q 640 626 628 647 l 649 626 l 649 736 l 807 736 l 807 -271 l 649 -271 m 444 118 q 558 155 513 118 q 626 249 603 192 q 649 368 649 306 q 626 488 649 431 q 558 581 603 544 q 444 618 513 618 q 331 581 376 618 q 262 488 285 544 q 239 368 239 431 q 262 249 239 306 q 331 155 285 192 q 444 118 376 118 z "},"r":{"ha":561,"x_min":92,"x_max":517,"o":"m 92 0 l 92 736 l 250 736 l 250 639 l 256 639 q 322 716 276 682 q 453 750 367 750 q 498 747 479 750 q 517 744 517 744 l 517 592 q 496 594 517 592 q 449 597 475 597 q 301 542 351 597 q 250 365 250 488 l 250 0 l 92 0 z "},"ŕ":{"ha":597,"x_min":117,"x_max":542,"o":"m 369 844 l 243 846 l 360 1096 l 515 1096 l 369 844 m 117 0 l 117 736 l 275 736 l 275 639 l 281 639 q 347 716 301 682 q 478 750 392 750 q 523 747 504 750 q 542 744 542 744 l 542 592 q 521 594 542 592 q 474 597 500 597 q 326 542 376 597 q 275 365 275 488 l 275 0 l 117 0 z "},"ř":{"ha":597,"x_min":69,"x_max":544,"o":"m 242 825 l 69 1063 l 204 1063 l 307 915 l 410 1063 l 544 1063 l 372 825 l 242 825 m 117 0 l 117 736 l 275 736 l 275 639 l 281 639 q 347 716 301 682 q 478 750 392 750 q 523 747 504 750 q 542 744 542 744 l 542 592 q 521 594 542 592 q 474 597 500 597 q 326 542 376 597 q 275 365 275 488 l 275 0 l 117 0 z "},"s":{"ha":719,"x_min":68,"x_max":654,"o":"m 375 -14 q 231 10 288 -14 q 142 70 175 35 q 92 142 108 106 q 72 202 76 178 q 68 226 68 226 l 222 226 q 227 209 222 226 q 247 169 232 192 q 294 130 263 147 q 379 113 326 113 q 474 142 443 113 q 506 208 506 171 q 479 265 506 244 q 404 297 453 286 l 304 319 q 195 358 246 333 q 113 423 144 382 q 82 529 82 464 q 154 688 82 625 q 349 750 226 750 q 480 728 428 750 q 563 673 532 706 q 608 608 593 640 q 628 553 624 575 q 633 532 633 532 l 485 532 q 481 546 485 532 q 463 578 476 560 q 422 612 449 597 q 349 626 394 626 q 258 599 286 626 q 231 539 231 571 q 258 487 231 506 q 329 458 285 468 l 428 436 q 590 363 526 414 q 654 217 654 313 q 622 101 654 153 q 526 17 589 49 q 375 -14 464 -14 z "},"ś":{"ha":731,"x_min":74,"x_max":661,"o":"m 447 844 l 319 846 l 436 1096 l 593 1096 l 447 844 m 382 -14 q 238 10 294 -14 q 149 70 182 35 q 99 142 115 106 q 78 202 83 178 q 74 226 74 226 l 228 226 q 233 209 228 226 q 253 169 238 192 q 301 130 269 147 q 386 113 332 113 q 481 142 450 113 q 511 208 511 171 q 485 265 511 244 q 411 297 460 286 l 311 319 q 201 358 253 333 q 119 423 150 382 q 88 529 88 464 q 160 688 88 625 q 356 750 233 750 q 487 728 435 750 q 569 673 539 706 q 615 608 600 640 q 635 553 631 575 q 640 532 640 532 l 492 532 q 487 546 492 532 q 469 578 482 560 q 428 612 456 597 q 354 626 400 626 q 265 599 293 626 q 238 539 238 571 q 265 487 238 506 q 336 458 292 468 l 435 436 q 597 363 532 414 q 661 217 661 313 q 628 101 661 153 q 533 17 596 49 q 382 -14 471 -14 z "},"š":{"ha":731,"x_min":74,"x_max":661,"o":"m 146 1033 l 281 1033 l 382 910 l 485 1033 l 619 1033 l 449 826 l 317 826 l 146 1033 m 382 -14 q 238 10 294 -14 q 149 70 182 35 q 99 142 115 106 q 78 202 83 178 q 74 226 74 226 l 228 226 q 233 209 228 226 q 253 169 238 192 q 301 130 269 147 q 386 113 332 113 q 481 142 450 113 q 511 208 511 171 q 485 265 511 244 q 411 297 460 286 l 311 319 q 201 358 253 333 q 119 423 150 382 q 88 529 88 464 q 160 688 88 625 q 356 750 233 750 q 487 728 435 750 q 569 673 539 706 q 615 608 600 640 q 635 553 631 575 q 640 532 640 532 l 492 532 q 487 546 492 532 q 469 578 482 560 q 428 612 456 597 q 354 626 400 626 q 265 599 293 626 q 238 539 238 571 q 265 487 238 506 q 336 458 292 468 l 435 436 q 597 363 532 414 q 661 217 661 313 q 628 101 661 153 q 533 17 596 49 q 382 -14 471 -14 z "},"ş":{"ha":731,"x_min":74,"x_max":661,"o":"m 357 -361 q 288 -356 321 -361 q 254 -351 254 -351 l 254 -262 q 269 -265 254 -262 q 307 -269 285 -267 q 349 -271 329 -271 q 430 -249 408 -271 q 451 -204 451 -226 q 434 -165 451 -182 q 383 -149 417 -149 q 328 -162 350 -149 q 306 -175 306 -175 l 247 -117 l 314 -10 q 203 28 247 1 q 133 88 158 54 q 94 153 107 122 q 78 206 82 185 q 74 226 74 226 l 228 226 q 233 209 228 226 q 253 169 238 192 q 301 130 269 147 q 386 113 332 113 q 481 142 450 113 q 511 208 511 171 q 485 265 511 244 q 411 297 460 286 l 311 319 q 201 358 253 333 q 119 423 150 382 q 88 529 88 464 q 160 688 88 625 q 356 750 233 750 q 487 728 435 750 q 569 673 539 706 q 615 608 600 640 q 635 553 631 575 q 640 532 640 532 l 492 532 q 487 546 492 532 q 469 578 482 560 q 428 612 456 597 q 354 626 400 626 q 265 599 293 626 q 238 539 238 571 q 265 487 238 506 q 336 458 292 468 l 435 436 q 597 363 532 414 q 661 217 661 313 q 598 63 661 128 q 418 -12 535 -3 l 379 -71 q 417 -67 396 -67 q 519 -108 482 -67 q 556 -203 556 -149 q 535 -278 556 -242 q 470 -337 514 -314 q 357 -361 426 -361 z "},"ß":{"ha":956,"x_min":106,"x_max":854,"o":"m 467 1047 q 639 1013 560 1047 q 767 916 718 979 q 817 764 817 853 q 768 617 817 675 q 657 536 719 558 l 657 529 q 677 523 657 529 q 726 501 697 517 q 785 457 756 485 q 834 386 814 429 q 854 282 854 343 q 805 124 854 190 q 670 22 756 58 q 475 -14 585 -14 q 390 -9 426 -14 q 353 -4 353 -4 l 353 131 q 389 126 353 131 q 461 122 425 122 q 633 174 575 122 q 690 301 690 225 q 636 422 690 378 q 492 467 582 467 l 378 467 l 378 594 l 483 594 q 608 636 560 594 q 657 747 657 678 q 602 867 657 824 q 471 911 547 911 q 324 854 383 911 q 265 678 265 797 l 265 -3 l 106 -3 l 106 678 q 144 858 106 774 q 264 995 183 943 q 467 1047 344 1047 z "},"t":{"ha":599,"x_min":46,"x_max":528,"o":"m 414 -14 q 274 18 326 -14 q 198 103 221 50 q 175 219 175 157 l 175 608 l 46 608 l 46 736 l 175 736 l 175 919 l 333 919 l 333 736 l 506 736 l 506 608 l 333 608 l 333 222 q 449 118 333 118 q 503 122 478 118 q 528 126 528 126 l 528 -3 q 494 -8 528 -3 q 414 -14 460 -14 z "},"ŧ":{"ha":599,"x_min":46,"x_max":528,"o":"m 65 361 l 65 489 l 175 489 l 175 608 l 46 608 l 46 736 l 175 736 l 175 919 l 333 919 l 333 736 l 506 736 l 506 608 l 333 608 l 333 489 l 464 489 l 464 361 l 333 361 l 333 222 q 449 118 333 118 q 503 122 478 118 q 528 126 528 126 l 528 -3 q 494 -8 528 -3 q 414 -14 460 -14 q 274 18 326 -14 q 198 103 221 50 q 175 219 175 157 l 175 361 l 65 361 z "},"ť":{"ha":568,"x_min":46,"x_max":581,"o":"m 425 839 l 439 1133 l 581 1133 l 522 839 l 425 839 m 414 -14 q 274 18 326 -14 q 198 103 221 50 q 175 219 175 157 l 175 608 l 46 608 l 46 736 l 175 736 l 175 919 l 333 919 l 333 736 l 506 736 l 506 608 l 333 608 l 333 222 q 449 118 333 118 q 503 122 478 118 q 528 126 528 126 l 528 -3 q 494 -8 528 -3 q 414 -14 460 -14 z "},"ţ":{"ha":599,"x_min":46,"x_max":553,"o":"m 414 -14 l 414 -14 l 376 -71 q 414 -67 393 -67 q 516 -108 479 -67 q 553 -203 553 -149 q 532 -278 553 -242 q 467 -337 511 -314 q 354 -361 424 -361 q 285 -356 318 -361 q 251 -351 251 -351 l 251 -262 q 267 -265 251 -262 q 304 -269 282 -267 q 346 -271 326 -271 q 427 -249 406 -271 q 449 -204 449 -226 q 431 -165 449 -182 q 381 -149 414 -149 q 325 -162 347 -149 q 303 -175 303 -175 l 244 -117 l 317 0 q 207 84 239 24 q 175 219 175 144 l 175 608 l 46 608 l 46 736 l 175 736 l 175 919 l 333 919 l 333 736 l 506 736 l 506 608 l 333 608 l 333 222 q 449 118 333 118 q 503 122 478 118 q 528 126 528 126 l 528 -3 q 494 -8 528 -3 q 414 -14 460 -14 z "},"u":{"ha":796,"x_min":92,"x_max":704,"o":"m 328 -14 q 154 56 217 -14 q 92 240 92 125 l 92 736 l 250 736 l 250 260 q 285 156 250 193 q 382 119 321 119 q 478 150 442 119 q 530 228 514 181 q 546 328 546 276 l 546 736 l 704 736 l 704 0 l 546 0 l 546 106 l 538 106 q 502 56 526 85 q 435 7 478 28 q 328 -14 393 -14 z "},"ú":{"ha":825,"x_min":110,"x_max":722,"o":"m 478 844 l 350 846 l 467 1096 l 624 1096 l 478 844 m 346 -14 q 172 56 235 -14 q 110 240 110 125 l 110 736 l 268 736 l 268 260 q 303 156 268 193 q 400 119 339 119 q 496 150 460 119 q 548 228 532 181 q 564 328 564 276 l 564 736 l 722 736 l 722 0 l 564 0 l 564 106 l 556 106 q 520 56 544 85 q 453 7 496 28 q 346 -14 411 -14 z "},"û":{"ha":825,"x_min":110,"x_max":722,"o":"m 178 838 l 349 1075 l 481 1075 l 651 838 l 517 838 l 414 985 l 313 838 l 178 838 m 346 -14 q 172 56 235 -14 q 110 240 110 125 l 110 736 l 268 736 l 268 260 q 303 156 268 193 q 400 119 339 119 q 496 150 460 119 q 548 228 532 181 q 564 328 564 276 l 564 736 l 722 736 l 722 0 l 564 0 l 564 106 l 556 106 q 520 56 544 85 q 453 7 496 28 q 346 -14 411 -14 z "},"ü":{"ha":825,"x_min":110,"x_max":722,"o":"m 554 839 q 484 867 511 839 q 457 935 457 896 q 484 1003 457 975 q 554 1031 511 1031 q 624 1003 596 1031 q 651 935 651 975 q 624 867 651 894 q 554 839 596 839 m 274 839 q 203 867 231 839 q 176 935 176 896 q 203 1003 176 975 q 274 1031 231 1031 q 343 1003 315 1031 q 371 935 371 975 q 343 867 371 894 q 274 839 315 839 m 346 -14 q 172 56 235 -14 q 110 240 110 125 l 110 736 l 268 736 l 268 260 q 303 156 268 193 q 400 119 339 119 q 496 150 460 119 q 548 228 532 181 q 564 328 564 276 l 564 736 l 722 736 l 722 0 l 564 0 l 564 106 l 556 106 q 520 56 544 85 q 453 7 496 28 q 346 -14 411 -14 z "},"ụ":{"ha":825,"x_min":110,"x_max":722,"o":"m 346 -14 q 172 56 235 -14 q 110 240 110 125 l 110 736 l 268 736 l 268 260 q 303 156 268 193 q 400 119 339 119 q 496 150 460 119 q 548 228 532 181 q 564 328 564 276 l 564 736 l 722 736 l 722 0 l 564 0 l 564 106 l 556 106 q 520 56 544 85 q 453 7 496 28 q 346 -14 411 -14 m 414 -325 q 344 -296 371 -325 q 317 -228 317 -267 q 344 -159 317 -187 q 414 -131 371 -131 q 483 -159 456 -131 q 511 -228 511 -187 q 483 -297 511 -268 q 414 -325 456 -325 z "},"ù":{"ha":825,"x_min":110,"x_max":722,"o":"m 356 844 l 210 1096 l 365 1096 l 483 846 l 356 844 m 346 -14 q 172 56 235 -14 q 110 240 110 125 l 110 736 l 268 736 l 268 260 q 303 156 268 193 q 400 119 339 119 q 496 150 460 119 q 548 228 532 181 q 564 328 564 276 l 564 736 l 722 736 l 722 0 l 564 0 l 564 106 l 556 106 q 520 56 544 85 q 453 7 496 28 q 346 -14 411 -14 z "},"ủ":{"ha":825,"x_min":110,"x_max":722,"o":"m 364 832 l 364 878 q 370 907 364 892 q 394 931 376 922 l 414 940 q 476 1010 476 972 q 463 1043 476 1028 q 419 1058 449 1058 q 379 1047 392 1058 q 363 1021 367 1035 q 360 1000 360 1007 l 258 1000 q 274 1069 257 1036 q 326 1125 290 1103 q 418 1147 361 1147 q 539 1108 494 1147 q 583 1013 583 1068 q 471 875 583 931 l 465 872 l 465 832 l 364 832 m 346 -14 q 172 56 235 -14 q 110 240 110 125 l 110 736 l 268 736 l 268 260 q 303 156 268 193 q 400 119 339 119 q 496 150 460 119 q 548 228 532 181 q 564 328 564 276 l 564 736 l 722 736 l 722 0 l 564 0 l 564 106 l 556 106 q 520 56 544 85 q 453 7 496 28 q 346 -14 411 -14 z "},"ư":{"ha":807,"x_min":92,"x_max":858,"o":"m 328 -14 q 154 56 217 -14 q 92 240 92 125 l 92 736 l 250 736 l 250 260 q 285 156 250 193 q 382 119 321 119 q 478 150 442 119 q 530 228 514 181 q 546 328 546 276 l 546 736 l 669 736 q 725 793 725 736 l 725 881 l 858 881 l 858 790 q 823 683 858 722 q 718 644 788 644 l 704 644 l 704 0 l 546 0 l 546 106 l 538 106 q 502 56 526 85 q 435 7 478 28 q 328 -14 393 -14 z "},"ứ":{"ha":825,"x_min":110,"x_max":876,"o":"m 468 844 l 340 846 l 457 1096 l 614 1096 l 468 844 m 346 -14 q 172 56 235 -14 q 110 240 110 125 l 110 736 l 268 736 l 268 260 q 303 156 268 193 q 400 119 339 119 q 496 150 460 119 q 548 228 532 181 q 564 328 564 276 l 564 736 l 688 736 q 743 793 743 736 l 743 881 l 876 881 l 876 790 q 841 683 876 722 q 736 644 806 644 l 722 644 l 722 0 l 564 0 l 564 106 l 556 106 q 520 56 544 85 q 453 7 496 28 q 346 -14 411 -14 z "},"ự":{"ha":825,"x_min":110,"x_max":876,"o":"m 346 -14 q 172 56 235 -14 q 110 240 110 125 l 110 736 l 268 736 l 268 260 q 303 156 268 193 q 400 119 339 119 q 496 150 460 119 q 548 228 532 181 q 564 328 564 276 l 564 736 l 688 736 q 743 793 743 736 l 743 881 l 876 881 l 876 790 q 841 683 876 722 q 736 644 806 644 l 722 644 l 722 0 l 564 0 l 564 106 l 556 106 q 520 56 544 85 q 453 7 496 28 q 346 -14 411 -14 m 404 -325 q 334 -296 361 -325 q 307 -228 307 -267 q 334 -159 307 -187 q 404 -131 361 -131 q 474 -159 446 -131 q 501 -228 501 -187 q 474 -297 501 -268 q 404 -325 446 -325 z "},"ừ":{"ha":825,"x_min":110,"x_max":876,"o":"m 346 844 l 200 1096 l 356 1096 l 474 846 l 346 844 m 346 -14 q 172 56 235 -14 q 110 240 110 125 l 110 736 l 268 736 l 268 260 q 303 156 268 193 q 400 119 339 119 q 496 150 460 119 q 548 228 532 181 q 564 328 564 276 l 564 736 l 688 736 q 743 793 743 736 l 743 881 l 876 881 l 876 790 q 841 683 876 722 q 736 644 806 644 l 722 644 l 722 0 l 564 0 l 564 106 l 556 106 q 520 56 544 85 q 453 7 496 28 q 346 -14 411 -14 z "},"ử":{"ha":825,"x_min":110,"x_max":876,"o":"m 354 832 l 354 878 q 360 907 354 892 q 385 931 367 922 l 404 940 q 467 1010 467 972 q 453 1043 467 1028 q 410 1058 439 1058 q 369 1047 382 1058 q 353 1021 357 1035 q 350 1000 350 1007 l 249 1000 q 264 1069 247 1036 q 316 1125 281 1103 q 408 1147 351 1147 q 529 1108 485 1147 q 574 1013 574 1068 q 461 875 574 931 l 456 872 l 456 832 l 354 832 m 346 -14 q 172 56 235 -14 q 110 240 110 125 l 110 736 l 268 736 l 268 260 q 303 156 268 193 q 400 119 339 119 q 496 150 460 119 q 548 228 532 181 q 564 328 564 276 l 564 736 l 688 736 q 743 793 743 736 l 743 881 l 876 881 l 876 790 q 841 683 876 722 q 736 644 806 644 l 722 644 l 722 0 l 564 0 l 564 106 l 556 106 q 520 56 544 85 q 453 7 496 28 q 346 -14 411 -14 z "},"ữ":{"ha":825,"x_min":110,"x_max":876,"o":"m 501 856 q 438 869 464 856 q 392 901 411 883 q 356 932 372 918 q 319 946 339 946 q 286 924 296 946 q 276 864 276 901 l 181 864 q 191 951 181 908 q 230 1023 201 994 q 310 1051 258 1051 q 375 1038 349 1051 q 421 1007 401 1025 q 457 976 440 989 q 492 963 474 963 q 524 984 514 963 q 533 1044 533 1006 l 631 1044 q 619 956 631 1000 q 581 884 608 913 q 501 856 553 856 m 346 -14 q 172 56 235 -14 q 110 240 110 125 l 110 736 l 268 736 l 268 260 q 303 156 268 193 q 400 119 339 119 q 496 150 460 119 q 548 228 532 181 q 564 328 564 276 l 564 736 l 688 736 q 743 793 743 736 l 743 881 l 876 881 l 876 790 q 841 683 876 722 q 736 644 806 644 l 722 644 l 722 0 l 564 0 l 564 106 l 556 106 q 520 56 544 85 q 453 7 496 28 q 346 -14 411 -14 z "},"ű":{"ha":825,"x_min":110,"x_max":722,"o":"m 356 844 l 232 846 l 296 1096 l 449 1096 l 356 844 m 592 844 l 468 846 l 532 1096 l 685 1096 l 592 844 m 346 -14 q 172 56 235 -14 q 110 240 110 125 l 110 736 l 268 736 l 268 260 q 303 156 268 193 q 400 119 339 119 q 496 150 460 119 q 548 228 532 181 q 564 328 564 276 l 564 736 l 722 736 l 722 0 l 564 0 l 564 106 l 556 106 q 520 56 544 85 q 453 7 496 28 q 346 -14 411 -14 z "},"ū":{"ha":825,"x_min":110,"x_max":722,"o":"m 197 864 l 197 972 l 631 972 l 631 864 l 197 864 m 346 -14 q 172 56 235 -14 q 110 240 110 125 l 110 736 l 268 736 l 268 260 q 303 156 268 193 q 400 119 339 119 q 496 150 460 119 q 548 228 532 181 q 564 328 564 276 l 564 736 l 722 736 l 722 0 l 564 0 l 564 106 l 556 106 q 520 56 544 85 q 453 7 496 28 q 346 -14 411 -14 z "},"ų":{"ha":825,"x_min":110,"x_max":776,"o":"m 346 -14 q 172 56 235 -14 q 110 240 110 125 l 110 736 l 268 736 l 268 260 q 303 156 268 193 q 400 119 339 119 q 496 150 460 119 q 548 228 532 181 q 564 328 564 276 l 564 736 l 722 736 l 722 0 q 704 -10 722 0 q 667 -38 686 -19 q 649 -85 649 -57 q 668 -126 649 -108 q 726 -143 688 -143 q 761 -140 746 -143 q 776 -136 776 -136 l 776 -235 q 755 -239 776 -235 q 701 -243 733 -243 q 569 -205 613 -243 q 526 -112 526 -167 q 547 -44 526 -72 q 593 0 567 -17 l 564 0 l 564 106 l 556 106 q 520 56 544 85 q 453 7 496 28 q 346 -14 411 -14 z "},"ů":{"ha":825,"x_min":110,"x_max":722,"o":"m 414 829 q 322 853 364 829 q 256 919 281 878 q 232 1011 232 961 q 256 1102 232 1061 q 322 1167 281 1143 q 414 1192 364 1192 q 505 1167 464 1192 q 571 1102 546 1143 q 596 1011 596 1061 q 571 919 596 961 q 505 853 546 878 q 414 829 464 829 m 414 931 q 471 954 447 931 q 494 1011 494 978 q 471 1068 494 1044 q 414 1092 447 1092 q 356 1068 379 1092 q 332 1011 332 1044 q 356 954 332 978 q 414 931 379 931 m 346 -14 q 172 56 235 -14 q 110 240 110 125 l 110 736 l 268 736 l 268 260 q 303 156 268 193 q 400 119 339 119 q 496 150 460 119 q 548 228 532 181 q 564 328 564 276 l 564 736 l 722 736 l 722 0 l 564 0 l 564 106 l 556 106 q 520 56 544 85 q 453 7 496 28 q 346 -14 411 -14 z "},"ũ":{"ha":825,"x_min":110,"x_max":722,"o":"m 511 856 q 447 869 474 856 q 401 901 421 883 q 365 932 382 918 q 329 946 349 946 q 296 924 306 946 q 286 864 286 901 l 190 864 q 201 951 190 908 q 240 1023 211 994 q 319 1051 268 1051 q 385 1038 358 1051 q 431 1007 411 1025 q 467 976 450 989 q 501 963 483 963 q 533 984 524 963 q 543 1044 543 1006 l 640 1044 q 629 956 640 1000 q 590 884 618 913 q 511 856 563 856 m 346 -14 q 172 56 235 -14 q 110 240 110 125 l 110 736 l 268 736 l 268 260 q 303 156 268 193 q 400 119 339 119 q 496 150 460 119 q 548 228 532 181 q 564 328 564 276 l 564 736 l 722 736 l 722 0 l 564 0 l 564 106 l 556 106 q 520 56 544 85 q 453 7 496 28 q 346 -14 411 -14 z "},"v":{"ha":808,"x_min":43,"x_max":765,"o":"m 319 0 l 43 736 l 206 736 l 406 185 l 601 736 l 765 736 l 488 0 l 319 0 z "},"w":{"ha":1215,"x_min":43,"x_max":1172,"o":"m 278 0 l 43 736 l 203 736 l 364 204 l 533 736 l 681 736 l 850 204 l 1011 736 l 1172 736 l 936 0 l 768 0 l 607 506 l 447 0 l 278 0 z "},"ẃ":{"ha":1215,"x_min":43,"x_max":1172,"o":"m 671 844 l 544 846 l 661 1096 l 817 1096 l 671 844 m 278 0 l 43 736 l 203 736 l 364 204 l 533 736 l 681 736 l 850 204 l 1011 736 l 1172 736 l 936 0 l 768 0 l 607 506 l 447 0 l 278 0 z "},"ŵ":{"ha":1215,"x_min":43,"x_max":1172,"o":"m 371 838 l 543 1075 l 674 1075 l 846 838 l 711 838 l 608 985 l 506 838 l 371 838 m 278 0 l 43 736 l 203 736 l 364 204 l 533 736 l 681 736 l 850 204 l 1011 736 l 1172 736 l 936 0 l 768 0 l 607 506 l 447 0 l 278 0 z "},"ẅ":{"ha":1215,"x_min":43,"x_max":1172,"o":"m 747 839 q 678 867 706 839 q 650 935 650 896 q 678 1003 650 975 q 747 1031 706 1031 q 817 1003 789 1031 q 844 935 844 975 q 817 867 844 894 q 747 839 789 839 m 467 839 q 397 867 424 839 q 369 935 369 896 q 397 1003 369 975 q 467 1031 424 1031 q 536 1003 508 1031 q 564 935 564 975 q 536 867 564 894 q 467 839 508 839 m 278 0 l 43 736 l 203 736 l 364 204 l 533 736 l 681 736 l 850 204 l 1011 736 l 1172 736 l 936 0 l 768 0 l 607 506 l 447 0 l 278 0 z "},"ẁ":{"ha":1215,"x_min":43,"x_max":1172,"o":"m 550 844 l 403 1096 l 560 1096 l 676 846 l 550 844 m 278 0 l 43 736 l 203 736 l 364 204 l 533 736 l 681 736 l 850 204 l 1011 736 l 1172 736 l 936 0 l 768 0 l 607 506 l 447 0 l 278 0 z "},"x":{"ha":799,"x_min":56,"x_max":743,"o":"m 57 0 l 292 367 l 56 736 l 224 736 l 399 461 l 575 736 l 743 736 l 503 367 l 742 0 l 574 0 l 399 275 l 225 0 l 57 0 z "},"y":{"ha":817,"x_min":51,"x_max":774,"o":"m 131 -271 q 74 -268 96 -271 q 51 -265 51 -265 l 51 -133 q 74 -135 51 -133 q 122 -137 96 -137 q 248 -109 199 -137 q 332 -10 297 -81 l 51 736 l 213 736 l 411 185 l 610 736 l 774 736 l 496 8 q 354 -203 440 -135 q 131 -271 268 -271 z "},"ý":{"ha":817,"x_min":51,"x_max":774,"o":"m 465 844 l 339 846 l 456 1096 l 611 1096 l 465 844 m 131 -271 q 74 -268 96 -271 q 51 -265 51 -265 l 51 -133 q 74 -135 51 -133 q 122 -137 96 -137 q 248 -109 199 -137 q 332 -10 297 -81 l 51 736 l 213 736 l 411 185 l 610 736 l 774 736 l 496 8 q 354 -203 440 -135 q 131 -271 268 -271 z "},"ŷ":{"ha":817,"x_min":51,"x_max":774,"o":"m 165 838 l 338 1075 l 468 1075 l 640 838 l 506 838 l 403 985 l 300 838 l 165 838 m 131 -271 q 74 -268 96 -271 q 51 -265 51 -265 l 51 -133 q 74 -135 51 -133 q 122 -137 96 -137 q 248 -109 199 -137 q 332 -10 297 -81 l 51 736 l 213 736 l 411 185 l 610 736 l 774 736 l 496 8 q 354 -203 440 -135 q 131 -271 268 -271 z "},"ÿ":{"ha":817,"x_min":51,"x_max":774,"o":"m 542 839 q 473 867 500 839 q 446 935 446 896 q 473 1003 446 975 q 542 1031 500 1031 q 611 1003 583 1031 q 639 935 639 975 q 611 867 639 894 q 542 839 583 839 m 261 839 q 192 867 219 839 q 164 935 164 896 q 192 1003 164 975 q 261 1031 219 1031 q 331 1003 303 1031 q 358 935 358 975 q 331 867 358 894 q 261 839 303 839 m 131 -271 q 74 -268 96 -271 q 51 -265 51 -265 l 51 -133 q 74 -135 51 -133 q 122 -137 96 -137 q 248 -109 199 -137 q 332 -10 297 -81 l 51 736 l 213 736 l 411 185 l 610 736 l 774 736 l 496 8 q 354 -203 440 -135 q 131 -271 268 -271 z "},"ỵ":{"ha":817,"x_min":51,"x_max":774,"o":"m 131 -271 q 74 -268 96 -271 q 51 -265 51 -265 l 51 -133 q 74 -135 51 -133 q 122 -137 96 -137 q 248 -109 199 -137 q 332 -10 297 -81 l 51 736 l 213 736 l 411 185 l 610 736 l 774 736 l 496 8 q 354 -203 440 -135 q 131 -271 268 -271 m 615 -325 q 545 -296 572 -325 q 518 -228 518 -267 q 545 -159 518 -187 q 615 -131 572 -131 q 685 -159 657 -131 q 713 -228 713 -187 q 685 -297 713 -268 q 615 -325 657 -325 z "},"ỳ":{"ha":817,"x_min":51,"x_max":774,"o":"m 344 844 l 199 1096 l 354 1096 l 471 846 l 344 844 m 131 -271 q 74 -268 96 -271 q 51 -265 51 -265 l 51 -133 q 74 -135 51 -133 q 122 -137 96 -137 q 248 -109 199 -137 q 332 -10 297 -81 l 51 736 l 213 736 l 411 185 l 610 736 l 774 736 l 496 8 q 354 -203 440 -135 q 131 -271 268 -271 z "},"ỷ":{"ha":817,"x_min":51,"x_max":774,"o":"m 353 832 l 353 878 q 359 907 353 892 q 383 931 365 922 l 403 940 q 465 1010 465 972 q 451 1043 465 1028 q 407 1058 436 1058 q 368 1047 381 1058 q 351 1021 356 1035 q 347 1000 347 1007 l 246 1000 q 262 1069 246 1036 q 314 1125 278 1103 q 406 1147 350 1147 q 527 1108 482 1147 q 572 1013 572 1068 q 460 875 572 931 l 453 872 l 453 832 l 353 832 m 131 -271 q 74 -268 96 -271 q 51 -265 51 -265 l 51 -133 q 74 -135 51 -133 q 122 -137 96 -137 q 248 -109 199 -137 q 332 -10 297 -81 l 51 736 l 213 736 l 411 185 l 610 736 l 774 736 l 496 8 q 354 -203 440 -135 q 131 -271 268 -271 z "},"ỹ":{"ha":817,"x_min":51,"x_max":774,"o":"m 500 856 q 436 869 463 856 q 390 901 410 883 q 354 932 371 918 q 318 946 338 946 q 285 924 294 946 q 275 864 275 901 l 178 864 q 189 951 178 908 q 228 1023 200 994 q 308 1051 256 1051 q 372 1038 346 1051 q 418 1007 399 1025 q 454 976 438 989 q 490 963 471 963 q 522 984 511 963 q 532 1044 532 1006 l 628 1044 q 617 956 628 1000 q 579 884 607 913 q 500 856 551 856 m 131 -271 q 74 -268 96 -271 q 51 -265 51 -265 l 51 -133 q 74 -135 51 -133 q 122 -137 96 -137 q 248 -109 199 -137 q 332 -10 297 -81 l 51 736 l 213 736 l 411 185 l 610 736 l 774 736 l 496 8 q 354 -203 440 -135 q 131 -271 268 -271 z "},"z":{"ha":706,"x_min":60,"x_max":663,"o":"m 60 0 l 60 110 l 471 608 l 79 608 l 79 736 l 663 736 l 663 626 l 251 128 l 663 128 l 663 0 l 60 0 z "},"ź":{"ha":706,"x_min":60,"x_max":663,"o":"m 407 840 l 281 842 l 397 1092 l 553 1092 l 407 840 m 60 0 l 60 110 l 471 608 l 79 608 l 79 736 l 663 736 l 663 626 l 251 128 l 663 128 l 663 0 l 60 0 z "},"ž":{"ha":706,"x_min":60,"x_max":663,"o":"m 279 822 l 107 1060 l 242 1060 l 344 913 l 447 1060 l 582 1060 l 410 822 l 279 822 m 60 0 l 60 110 l 471 608 l 79 608 l 79 736 l 663 736 l 663 626 l 251 128 l 663 128 l 663 0 l 60 0 z "},"ż":{"ha":706,"x_min":60,"x_max":663,"o":"m 343 860 q 272 888 300 860 q 244 957 244 917 q 272 1026 244 997 q 343 1054 300 1054 q 415 1026 386 1054 q 443 957 443 997 q 415 888 443 917 q 343 860 386 860 m 60 0 l 60 110 l 471 608 l 79 608 l 79 736 l 663 736 l 663 626 l 251 128 l 663 128 l 663 0 l 60 0 z "},"ª":{"ha":589,"x_min":79,"x_max":497,"o":"m 363 631 q 342 607 357 622 q 299 579 326 592 q 231 567 272 567 q 122 602 164 567 q 79 699 79 638 q 125 795 79 760 q 258 842 171 831 l 369 857 l 369 868 q 352 920 369 897 q 293 943 335 943 q 241 928 258 943 q 219 899 224 914 q 215 885 215 885 l 94 885 q 99 908 94 885 q 123 963 104 932 q 183 1018 142 994 q 296 1042 224 1042 q 411 1017 367 1042 q 476 953 456 992 q 497 874 497 915 l 497 575 l 369 575 l 369 631 l 363 631 m 204 708 q 224 669 204 682 q 272 656 244 656 q 342 684 314 656 q 369 761 369 713 l 369 776 l 275 763 q 204 708 204 753 z "},"º":{"ha":633,"x_min":79,"x_max":554,"o":"m 317 565 q 188 599 242 565 q 107 688 135 633 q 79 804 79 742 q 107 921 79 867 q 188 1008 135 975 q 317 1042 240 1042 q 446 1009 393 1042 q 526 922 499 976 q 554 804 554 868 q 526 688 554 742 q 446 599 499 633 q 317 565 393 565 m 317 674 q 398 713 369 674 q 426 804 426 753 q 398 895 426 856 q 317 935 369 935 q 237 895 265 935 q 208 804 208 856 q 237 713 208 753 q 317 674 265 674 z "},"₀":{"ha":626,"x_min":69,"x_max":557,"o":"m 313 -294 q 181 -256 236 -294 q 98 -152 126 -217 q 69 -8 69 -87 q 98 136 69 71 q 181 240 126 201 q 313 278 236 278 q 444 239 389 278 q 528 135 499 200 q 557 -8 557 69 q 528 -152 557 -87 q 444 -256 499 -217 q 313 -294 389 -294 m 313 -175 q 390 -131 360 -175 q 419 -8 419 -87 q 390 117 419 72 q 313 161 360 161 q 237 117 267 161 q 207 -8 207 74 q 237 -132 207 -89 q 313 -175 267 -175 z "},"₁":{"ha":446,"x_min":57,"x_max":301,"o":"m 301 272 l 301 -283 l 172 -283 l 172 97 l 57 97 l 57 175 l 75 181 q 160 215 128 197 q 219 264 192 232 l 226 272 l 301 272 z "},"₂":{"ha":614,"x_min":97,"x_max":526,"o":"m 100 -283 l 100 -192 l 204 -108 q 335 -1 286 -42 q 385 89 385 40 q 361 143 385 125 q 307 161 338 161 q 251 140 276 161 q 225 76 225 119 l 97 76 q 128 189 97 144 q 208 256 158 233 q 311 278 257 278 q 417 256 369 278 q 494 193 465 233 q 522 100 522 153 q 465 -33 522 24 q 308 -158 407 -90 l 294 -168 l 526 -168 l 526 -283 l 100 -283 z "},"₃":{"ha":629,"x_min":93,"x_max":528,"o":"m 310 -294 q 189 -267 238 -294 q 117 -198 140 -240 q 93 -111 93 -156 l 219 -111 q 244 -163 219 -142 q 308 -185 268 -185 q 369 -165 349 -185 q 390 -118 390 -144 q 371 -73 390 -90 q 315 -56 351 -56 l 240 -56 l 240 44 l 314 44 q 367 63 347 44 q 386 106 386 81 q 365 150 386 132 q 310 168 344 168 q 251 147 274 168 q 229 94 229 126 l 106 94 q 129 181 106 139 q 199 249 153 222 q 311 276 244 276 q 413 258 365 276 q 490 205 461 240 q 519 119 519 169 q 490 38 519 68 q 429 -1 460 8 l 429 -7 q 500 -49 472 -18 q 528 -129 528 -81 q 498 -218 528 -181 q 418 -275 468 -256 q 310 -294 368 -294 z "},"₄":{"ha":640,"x_min":71,"x_max":556,"o":"m 342 -283 l 342 -171 l 71 -169 l 71 -71 l 299 272 l 471 272 l 471 -62 l 556 -62 l 556 -171 l 471 -171 l 471 -283 l 342 -283 m 204 -62 l 342 -62 l 342 143 l 204 -62 z "},"₅":{"ha":610,"x_min":88,"x_max":521,"o":"m 303 -294 q 199 -275 240 -294 q 133 -226 157 -256 q 98 -167 108 -197 q 88 -112 88 -136 l 214 -112 q 219 -131 214 -112 q 242 -167 224 -149 q 301 -185 261 -185 q 365 -158 344 -185 q 386 -99 386 -131 q 365 -40 386 -67 q 303 -14 344 -14 q 258 -24 274 -14 q 235 -45 242 -35 q 229 -56 229 -56 l 94 -56 l 129 269 l 485 269 l 485 157 l 229 157 l 217 39 l 221 39 q 257 67 229 49 q 336 86 285 86 q 438 60 397 86 q 500 -6 479 35 q 521 -93 521 -47 q 497 -188 521 -142 q 424 -265 472 -235 q 303 -294 375 -294 z "},"₆":{"ha":658,"x_min":97,"x_max":561,"o":"m 339 -299 q 203 -261 257 -299 q 124 -165 150 -224 q 97 -40 97 -106 q 117 69 97 14 q 176 172 136 125 q 275 247 215 218 q 417 275 335 275 q 476 271 451 275 q 501 267 501 267 l 501 150 q 474 153 501 150 q 419 157 446 157 q 290 114 339 157 q 235 13 242 71 q 278 58 246 33 q 374 83 310 83 q 478 58 436 83 q 540 -9 519 32 q 561 -97 561 -50 q 536 -192 561 -146 q 462 -269 511 -239 q 339 -299 413 -299 m 338 -187 q 406 -161 383 -187 q 429 -101 429 -135 q 406 -42 429 -69 q 338 -15 383 -15 q 269 -42 293 -15 q 246 -101 246 -69 q 269 -161 246 -135 q 338 -187 292 -187 z "},"₇":{"ha":544,"x_min":68,"x_max":506,"o":"m 163 -283 q 190 -135 167 -206 q 244 -8 213 -65 q 308 90 276 49 q 361 156 340 132 l 68 156 l 68 269 l 506 269 l 506 176 q 485 154 506 176 q 434 91 464 132 q 373 -7 404 50 q 319 -134 342 -64 q 294 -283 297 -204 l 163 -283 z "},"₈":{"ha":594,"x_min":81,"x_max":513,"o":"m 296 -296 q 191 -278 240 -296 q 111 -225 142 -260 q 81 -136 81 -190 q 96 -72 81 -97 q 131 -31 111 -46 q 165 -10 150 -17 q 181 -4 181 -4 l 181 3 q 167 8 181 3 q 137 28 154 14 q 106 65 119 42 q 93 121 93 88 q 121 203 93 168 q 195 256 149 238 q 296 275 242 275 q 398 256 351 275 q 472 203 444 238 q 500 121 500 168 q 487 65 500 88 q 456 28 474 42 q 426 8 439 14 q 414 3 414 3 l 414 -4 q 428 -10 414 -4 q 463 -32 443 -17 q 498 -72 483 -47 q 513 -136 513 -97 q 482 -225 513 -190 q 402 -278 451 -260 q 296 -296 353 -296 m 296 43 q 353 65 335 43 q 372 111 372 86 q 353 155 372 135 q 296 175 335 175 q 240 154 258 175 q 221 110 221 133 q 240 65 221 86 q 296 43 258 43 m 296 -194 q 360 -172 339 -194 q 382 -121 382 -149 q 361 -72 382 -94 q 296 -49 340 -49 q 232 -72 254 -49 q 210 -121 210 -94 q 232 -171 210 -147 q 296 -194 254 -194 z "},"₉":{"ha":658,"x_min":97,"x_max":561,"o":"m 319 279 q 455 242 401 279 q 535 145 508 204 q 561 21 561 86 q 542 -89 561 -33 q 483 -191 522 -144 q 383 -266 443 -237 q 240 -294 322 -294 q 182 -290 207 -294 q 157 -286 157 -286 l 157 -169 q 185 -173 157 -169 q 239 -176 213 -176 q 367 -133 318 -176 q 424 -32 415 -90 q 380 -78 411 -53 q 285 -103 349 -103 q 181 -77 222 -103 q 118 -10 139 -51 q 97 78 97 31 q 122 173 97 126 q 196 249 146 219 q 319 279 246 279 m 321 168 q 251 142 275 168 q 228 82 228 115 q 251 23 228 50 q 321 -4 275 -4 q 389 23 365 -4 q 413 82 413 50 q 390 142 413 115 q 321 168 367 168 z "},"⁰":{"ha":626,"x_min":69,"x_max":557,"o":"m 313 560 q 181 599 236 560 q 98 702 126 638 q 69 846 69 767 q 98 990 69 925 q 181 1093 126 1054 q 313 1132 236 1132 q 444 1093 389 1132 q 528 989 499 1054 q 557 846 557 924 q 528 702 557 767 q 444 599 499 638 q 313 560 389 560 m 313 679 q 390 723 360 679 q 419 846 419 767 q 390 971 419 926 q 313 1015 360 1015 q 237 972 267 1015 q 207 846 207 928 q 237 722 207 765 q 313 679 267 679 z "},"¹":{"ha":446,"x_min":57,"x_max":301,"o":"m 301 1126 l 301 571 l 172 571 l 172 951 l 57 951 l 57 1029 l 75 1035 q 160 1069 128 1051 q 219 1118 192 1086 l 226 1126 l 301 1126 z "},"²":{"ha":614,"x_min":97,"x_max":526,"o":"m 100 571 l 100 663 l 204 746 q 335 853 286 813 q 385 943 385 894 q 361 997 385 979 q 307 1015 338 1015 q 251 994 276 1015 q 225 931 225 974 l 97 931 q 128 1043 97 999 q 208 1110 158 1088 q 311 1132 257 1132 q 417 1110 369 1132 q 494 1047 465 1088 q 522 954 522 1007 q 465 821 522 878 q 308 696 407 764 l 294 686 l 526 686 l 526 571 l 100 571 z "},"³":{"ha":629,"x_min":93,"x_max":528,"o":"m 310 560 q 189 587 238 560 q 117 656 140 614 q 93 743 93 699 l 219 743 q 244 691 219 713 q 308 669 268 669 q 369 690 349 669 q 390 736 390 710 q 371 781 390 764 q 315 799 351 799 l 240 799 l 240 899 l 314 899 q 367 917 347 899 q 386 960 386 935 q 365 1004 386 986 q 310 1022 344 1022 q 251 1001 274 1022 q 229 949 229 981 l 106 949 q 129 1035 106 993 q 199 1103 153 1076 q 311 1131 244 1131 q 413 1113 365 1131 q 490 1059 461 1094 q 519 974 519 1024 q 490 892 519 922 q 429 853 460 863 l 429 847 q 500 805 472 836 q 528 725 528 774 q 498 636 528 674 q 418 579 468 599 q 310 560 368 560 z "},"⁴":{"ha":654,"x_min":85,"x_max":569,"o":"m 356 571 l 356 683 l 85 685 l 85 783 l 313 1126 l 485 1126 l 485 792 l 569 792 l 569 683 l 485 683 l 485 571 l 356 571 m 218 792 l 356 792 l 356 997 l 218 792 z "},"⁵":{"ha":597,"x_min":75,"x_max":508,"o":"m 290 560 q 186 579 228 560 q 120 628 144 599 q 86 688 96 657 q 75 742 76 718 l 201 742 q 206 724 201 742 q 230 688 211 706 q 290 669 249 669 q 353 697 332 669 q 374 756 374 724 q 353 814 374 788 q 290 840 332 840 q 245 830 261 840 q 223 809 229 819 q 217 799 217 799 l 82 799 l 118 1124 l 472 1124 l 472 1011 l 217 1011 l 204 893 l 208 893 q 244 922 217 903 q 325 940 272 940 q 426 915 385 940 q 488 848 467 889 q 508 761 508 807 q 484 666 508 713 q 412 590 460 619 q 290 560 364 560 z "},"⁶":{"ha":658,"x_min":97,"x_max":561,"o":"m 339 556 q 203 593 257 556 q 124 690 150 631 q 97 814 97 749 q 117 924 97 868 q 176 1026 136 979 q 275 1101 215 1072 q 417 1129 335 1129 q 476 1125 451 1129 q 501 1121 501 1121 l 501 1004 q 474 1008 501 1004 q 419 1011 446 1011 q 290 968 339 1011 q 235 867 242 925 q 278 913 246 888 q 374 938 310 938 q 478 912 436 938 q 540 845 519 886 q 561 757 561 804 q 536 662 561 708 q 462 585 511 615 q 339 556 413 556 m 338 667 q 406 693 383 667 q 429 753 429 719 q 406 812 429 785 q 338 839 383 839 q 269 812 293 839 q 246 753 246 785 q 269 693 246 719 q 338 667 292 667 z "},"⁷":{"ha":567,"x_min":68,"x_max":506,"o":"m 163 574 q 190 722 167 653 q 244 849 213 792 q 308 949 276 907 q 361 1014 340 990 l 68 1014 l 68 1126 l 506 1126 l 506 1033 q 485 1011 506 1033 q 434 948 464 989 q 373 850 404 907 q 319 723 342 793 q 294 574 297 653 l 163 574 z "},"⁸":{"ha":594,"x_min":81,"x_max":513,"o":"m 296 558 q 191 576 240 558 q 111 630 142 594 q 81 718 81 665 q 96 783 81 757 q 131 823 111 808 q 165 844 150 838 q 181 850 181 850 l 181 857 q 167 863 181 857 q 137 882 154 868 q 106 919 119 896 q 93 975 93 942 q 121 1057 93 1022 q 195 1110 149 1092 q 296 1129 242 1129 q 398 1110 351 1129 q 472 1057 444 1092 q 500 975 500 1022 q 487 919 500 942 q 456 882 474 896 q 426 863 439 868 q 414 857 414 857 l 414 850 q 428 844 414 850 q 463 822 443 838 q 498 782 483 807 q 513 718 513 757 q 482 630 513 665 q 402 576 451 594 q 296 558 353 558 m 296 897 q 353 919 335 897 q 372 965 372 940 q 353 1009 372 989 q 296 1029 335 1029 q 240 1008 258 1029 q 221 964 221 988 q 240 919 221 940 q 296 897 258 897 m 296 660 q 360 683 339 660 q 382 733 382 706 q 361 783 382 760 q 296 806 340 806 q 232 783 254 806 q 210 733 210 760 q 232 683 210 707 q 296 660 254 660 z "},"⁹":{"ha":658,"x_min":97,"x_max":561,"o":"m 319 1142 q 455 1105 401 1142 q 535 1009 508 1068 q 561 883 561 950 q 542 774 561 829 q 483 673 522 719 q 383 598 443 626 q 240 569 322 569 q 182 573 207 569 q 157 576 157 576 l 157 694 q 185 691 157 694 q 239 688 213 688 q 367 731 318 688 q 424 831 415 774 q 380 785 411 811 q 285 760 349 760 q 181 786 222 760 q 118 853 139 813 q 97 940 97 894 q 122 1037 97 990 q 196 1113 146 1083 q 319 1142 246 1142 m 321 1032 q 251 1005 275 1032 q 228 946 228 978 q 251 885 228 913 q 321 858 275 858 q 389 885 365 858 q 413 946 413 913 q 390 1005 413 978 q 321 1032 367 1032 z "},"⁄":{"ha":786,"x_min":42,"x_max":764,"o":"m 42 0 l 626 972 l 764 972 l 178 0 l 42 0 z "},"½":{"ha":1113,"x_min":14,"x_max":1189,"o":"m 229 985 l 229 497 l 110 497 l 110 833 l 14 833 l 14 906 l 29 910 q 100 938 72 921 q 154 981 128 954 l 158 985 l 229 985 m 194 0 l 779 972 l 917 972 l 331 0 l 194 0 m 811 -1 l 811 82 l 882 139 q 980 215 940 185 q 1040 272 1019 246 q 1061 326 1061 297 q 1040 372 1061 357 q 994 388 1019 388 q 947 370 968 388 q 925 314 925 353 l 808 314 q 835 414 808 375 q 906 472 863 453 q 999 492 950 492 q 1130 449 1075 492 q 1185 333 1185 406 q 1135 218 1185 269 q 999 108 1086 167 l 990 101 l 1189 101 l 1189 -1 l 811 -1 z "},"¼":{"ha":1097,"x_min":14,"x_max":1174,"o":"m 229 985 l 229 497 l 110 497 l 110 833 l 14 833 l 14 906 l 29 910 q 100 938 72 921 q 154 981 128 954 l 158 985 l 229 985 m 194 0 l 779 972 l 917 972 l 331 0 l 194 0 m 981 -1 l 981 99 l 750 99 l 750 185 l 950 485 l 1103 485 l 1103 196 l 1174 196 l 1174 99 l 1103 99 l 1103 -1 l 981 -1 m 869 196 l 981 196 l 981 363 l 869 196 z "},"¾":{"ha":1121,"x_min":53,"x_max":1288,"o":"m 242 489 q 135 513 176 489 q 73 574 93 538 q 53 649 53 611 l 167 649 q 186 605 167 624 q 240 586 206 586 q 294 603 275 586 q 313 643 313 619 q 297 682 313 665 q 244 699 281 699 l 185 699 l 185 788 l 246 788 q 292 803 275 788 q 310 839 310 818 q 291 877 310 861 q 242 893 272 893 q 191 874 210 893 q 172 831 172 856 l 63 831 q 83 905 63 868 q 143 965 103 942 q 243 989 183 989 q 332 973 290 989 q 399 926 374 957 q 425 851 425 894 q 399 779 425 806 q 347 746 372 753 l 347 740 q 408 703 382 728 q 433 633 433 678 q 377 528 433 567 q 242 489 321 489 m 308 0 l 893 972 l 1031 972 l 444 0 l 308 0 m 1094 -1 l 1094 99 l 864 99 l 864 185 l 1064 485 l 1217 485 l 1217 196 l 1288 196 l 1288 99 l 1217 99 l 1217 -1 l 1094 -1 m 985 196 l 1094 196 l 1094 363 l 985 196 z "},"⅛":{"ha":1108,"x_min":14,"x_max":1185,"o":"m 229 985 l 229 497 l 110 497 l 110 833 l 14 833 l 14 906 l 29 910 q 100 938 72 921 q 154 981 128 954 l 158 985 l 229 985 m 194 0 l 779 972 l 917 972 l 331 0 l 194 0 m 994 -8 q 901 7 944 -8 q 830 53 857 22 q 803 131 803 85 q 816 188 803 165 q 847 224 829 211 q 878 243 864 238 q 890 249 892 249 l 890 253 q 872 262 890 253 q 834 294 853 271 q 815 357 815 317 q 869 456 815 419 q 994 492 922 492 q 1121 456 1067 492 q 1175 357 1175 419 q 1156 294 1175 317 q 1117 263 1136 272 q 1097 253 1097 253 l 1097 249 q 1109 243 1096 249 q 1140 224 1122 238 q 1172 188 1158 211 q 1185 131 1185 165 q 1158 53 1185 85 q 1087 7 1131 22 q 994 -8 1043 -8 m 994 290 q 1044 308 1028 290 q 1061 349 1061 326 q 1044 388 1061 369 q 994 406 1028 406 q 944 388 961 406 q 928 347 928 369 q 944 308 928 326 q 994 290 961 290 m 994 79 q 1049 100 1031 79 q 1068 146 1068 121 q 1049 190 1068 169 q 994 210 1031 210 q 939 190 958 210 q 919 146 919 169 q 938 100 919 121 q 994 79 957 79 z "},"⅜":{"ha":1132,"x_min":53,"x_max":1299,"o":"m 242 489 q 135 513 176 489 q 73 574 93 538 q 53 649 53 611 l 167 649 q 186 605 167 624 q 240 586 206 586 q 294 603 275 586 q 313 643 313 619 q 297 682 313 665 q 244 699 281 699 l 185 699 l 185 788 l 246 788 q 292 803 275 788 q 310 839 310 818 q 291 877 310 861 q 242 893 272 893 q 191 874 210 893 q 172 831 172 856 l 63 831 q 83 905 63 868 q 143 965 103 942 q 243 989 183 989 q 332 973 290 989 q 399 926 374 957 q 425 851 425 894 q 399 779 425 806 q 347 746 372 753 l 347 740 q 408 703 382 728 q 433 633 433 678 q 377 528 433 567 q 242 489 321 489 m 308 0 l 893 972 l 1031 972 l 444 0 l 308 0 m 1108 -8 q 1016 7 1060 -8 q 944 53 972 22 q 917 131 917 85 q 931 188 917 165 q 962 224 944 211 q 992 243 979 238 q 1004 249 1006 249 l 1004 253 q 985 262 1004 253 q 948 294 967 271 q 929 357 929 317 q 983 456 929 419 q 1108 492 1036 492 q 1235 456 1181 492 q 1289 357 1289 419 q 1269 294 1289 317 q 1231 263 1250 272 q 1211 253 1211 253 l 1211 249 q 1224 243 1210 249 q 1255 224 1238 238 q 1285 188 1272 211 q 1299 131 1299 165 q 1272 53 1299 85 q 1201 7 1244 22 q 1108 -8 1157 -8 m 1108 290 q 1159 308 1142 290 q 1176 349 1176 326 q 1159 388 1176 369 q 1108 406 1142 406 q 1058 388 1075 406 q 1042 347 1042 369 q 1058 308 1042 326 q 1108 290 1075 290 m 1108 79 q 1163 100 1144 79 q 1182 146 1182 121 q 1163 190 1182 169 q 1108 210 1144 210 q 1053 190 1072 210 q 1033 146 1033 169 q 1052 100 1033 121 q 1108 79 1071 79 z "},"⅝":{"ha":1101,"x_min":53,"x_max":1282,"o":"m 240 488 q 147 506 183 488 q 90 550 111 524 q 61 603 69 576 q 53 649 53 631 l 164 649 q 168 633 164 649 q 188 601 172 617 q 239 585 204 585 q 295 608 276 585 q 314 660 314 632 q 295 711 314 688 q 240 735 276 735 q 201 725 215 735 q 180 706 186 715 q 174 696 174 696 l 58 696 l 88 982 l 399 982 l 399 882 l 174 882 l 164 779 l 167 779 q 194 803 169 783 q 267 822 218 822 q 357 799 321 822 q 412 740 393 776 q 431 663 431 703 q 410 579 431 619 q 347 513 389 539 q 240 488 304 488 m 292 0 l 876 972 l 1014 972 l 426 0 l 292 0 m 1090 -8 q 998 7 1042 -8 q 927 53 954 22 q 900 131 900 85 q 913 188 900 165 q 944 224 926 211 q 974 243 961 238 q 988 249 988 249 l 988 253 q 969 262 988 253 q 931 294 950 271 q 911 357 911 317 q 965 456 911 419 q 1090 492 1019 492 q 1217 456 1164 492 q 1271 357 1271 419 q 1251 294 1271 317 q 1213 263 1232 272 q 1193 253 1193 253 l 1193 249 q 1206 243 1193 249 q 1237 224 1219 238 q 1268 188 1254 211 q 1282 131 1282 165 q 1255 53 1282 85 q 1184 7 1228 22 q 1090 -8 1140 -8 m 1090 290 q 1141 308 1124 290 q 1158 349 1158 326 q 1141 388 1158 369 q 1090 406 1124 406 q 1042 388 1058 406 q 1025 347 1025 369 q 1042 308 1025 326 q 1090 290 1058 290 m 1090 79 q 1147 100 1128 79 q 1165 146 1165 121 q 1147 190 1165 169 q 1090 210 1128 210 q 1035 190 1054 210 q 1017 146 1017 169 q 1035 100 1017 121 q 1090 79 1054 79 z "},"⅞":{"ha":1065,"x_min":7,"x_max":1233,"o":"m 92 497 q 125 672 97 594 q 187 802 153 749 q 242 882 221 856 l 7 882 l 7 983 l 369 983 l 369 901 q 347 874 369 901 q 293 794 324 846 q 238 667 263 742 q 208 497 213 592 l 92 497 m 243 0 l 829 972 l 965 972 l 379 0 l 243 0 m 1043 -8 q 951 7 994 -8 q 879 53 907 22 q 851 131 851 85 q 865 188 851 165 q 897 224 879 211 q 927 243 914 238 q 940 249 940 249 l 940 253 q 921 262 940 253 q 883 294 901 271 q 864 357 864 317 q 917 456 864 419 q 1043 492 971 492 q 1170 456 1117 492 q 1224 357 1224 419 q 1204 294 1224 317 q 1165 263 1185 272 q 1146 253 1146 253 l 1146 249 q 1159 243 1146 249 q 1190 224 1172 238 q 1220 188 1207 211 q 1233 131 1233 165 q 1206 53 1233 85 q 1135 7 1179 22 q 1043 -8 1092 -8 m 1043 290 q 1094 308 1076 290 q 1111 349 1111 326 q 1094 388 1111 369 q 1043 406 1076 406 q 994 388 1011 406 q 976 347 976 369 q 994 308 976 326 q 1043 290 1011 290 m 1043 79 q 1099 100 1081 79 q 1117 146 1117 121 q 1099 190 1117 169 q 1043 210 1081 210 q 988 190 1007 210 q 969 146 969 169 q 988 100 969 121 q 1043 79 1006 79 z "},"\r":{"ha":833,"x_min":0,"x_max":0,"o":""}," ":{"ha":319,"x_min":0,"x_max":0,"o":""}," ":{"ha":319,"x_min":0,"x_max":0,"o":""},".":{"ha":419,"x_min":110,"x_max":310,"o":"m 210 -14 q 138 16 167 -14 q 110 86 110 46 q 138 157 110 128 q 210 186 167 186 q 281 157 253 186 q 310 86 310 128 q 281 15 310 44 q 210 -14 253 -14 z "},",":{"ha":440,"x_min":111,"x_max":331,"o":"m 111 -181 l 217 -10 q 152 20 178 -7 q 126 88 126 47 q 156 159 126 132 q 228 186 186 186 q 301 159 271 186 q 331 85 331 132 q 299 -12 331 42 q 196 -167 268 -67 l 186 -181 l 111 -181 z "},":":{"ha":419,"x_min":110,"x_max":310,"o":"m 210 550 q 138 580 167 550 q 110 650 110 610 q 138 721 110 692 q 210 750 167 750 q 281 721 253 750 q 310 650 310 692 q 281 580 310 610 q 210 550 253 550 m 210 -14 q 138 16 167 -14 q 110 86 110 46 q 138 157 110 128 q 210 186 167 186 q 281 157 253 186 q 310 86 310 128 q 281 15 310 44 q 210 -14 253 -14 z "},";":{"ha":440,"x_min":111,"x_max":331,"o":"m 219 550 q 149 580 176 550 q 121 650 121 610 q 149 721 121 692 q 219 750 176 750 q 291 721 263 750 q 319 650 319 692 q 291 580 319 610 q 219 550 263 550 m 111 -179 l 217 -8 q 152 22 178 -6 q 126 90 126 50 q 156 161 126 135 q 228 188 186 188 q 301 160 271 188 q 331 86 331 133 q 299 -10 331 44 q 196 -164 268 -64 l 186 -179 l 111 -179 z "},"…":{"ha":1072,"x_min":104,"x_max":996,"o":"m 547 -14 q 476 16 504 -14 q 449 86 449 46 q 476 157 449 128 q 547 186 504 186 q 619 157 590 186 q 647 86 647 128 q 619 15 647 44 q 547 -14 590 -14 m 896 -14 q 824 16 853 -14 q 796 86 796 46 q 824 157 796 128 q 896 186 853 186 q 967 157 939 186 q 996 86 996 128 q 967 15 996 44 q 896 -14 939 -14 m 203 -14 q 132 16 160 -14 q 104 86 104 46 q 132 157 104 128 q 203 186 160 186 q 274 157 246 186 q 303 86 303 128 q 274 15 303 44 q 203 -14 246 -14 z "},"!":{"ha":417,"x_min":114,"x_max":303,"o":"m 138 279 l 126 1028 l 290 1028 l 275 279 l 138 279 m 208 -12 q 140 15 167 -12 q 114 82 114 43 q 140 149 114 121 q 208 176 167 176 q 276 149 249 176 q 303 82 303 121 q 276 15 303 42 q 208 -12 249 -12 z "},"¡":{"ha":417,"x_min":114,"x_max":303,"o":"m 208 739 q 276 711 249 739 q 303 644 303 683 q 276 578 303 606 q 208 550 249 550 q 140 578 167 550 q 114 644 114 606 q 140 711 114 683 q 208 739 167 739 m 126 -301 l 138 447 l 275 447 l 290 -301 l 126 -301 z "},"?":{"ha":818,"x_min":71,"x_max":747,"o":"m 318 275 l 318 322 q 345 435 318 389 q 412 516 372 481 q 492 583 451 551 q 559 653 532 615 q 586 742 586 690 q 533 858 586 817 q 407 900 479 900 q 319 879 361 900 q 251 816 278 858 q 225 708 225 774 l 71 708 q 120 895 71 821 q 248 1006 169 969 q 413 1042 326 1042 q 578 1006 503 1042 q 701 904 654 971 q 747 746 747 838 q 719 623 747 674 q 651 535 692 572 q 571 465 611 497 q 503 399 531 432 q 476 322 476 365 l 476 275 l 318 275 m 399 -14 q 331 15 357 -14 q 304 81 304 43 q 331 149 304 121 q 399 176 357 176 q 466 149 439 176 q 493 81 493 121 q 466 14 493 42 q 399 -14 439 -14 z "},"¿":{"ha":818,"x_min":71,"x_max":747,"o":"m 419 747 q 487 719 460 747 q 514 653 514 690 q 487 585 514 613 q 419 557 460 557 q 351 585 379 557 q 324 653 324 613 q 351 719 324 692 q 419 747 379 747 m 404 -308 q 240 -273 315 -308 q 117 -171 164 -237 q 71 -12 71 -104 q 98 110 71 60 q 165 199 125 161 q 246 269 206 236 q 314 335 286 301 q 342 411 342 368 l 342 458 l 500 458 l 500 411 q 473 299 500 344 q 406 217 446 253 q 326 150 365 182 q 259 81 286 118 q 232 -8 232 43 q 285 -125 232 -83 q 410 -167 339 -167 q 499 -146 457 -167 q 566 -83 540 -125 q 592 25 592 -40 l 747 25 q 697 -162 747 -87 q 569 -272 647 -236 q 404 -308 492 -308 z "},"·":{"ha":378,"x_min":122,"x_max":321,"o":"m 221 436 q 150 466 178 436 q 122 536 122 496 q 150 607 122 578 q 221 636 178 636 q 292 607 264 636 q 321 536 321 578 q 292 465 321 494 q 221 436 264 436 z "},"•":{"ha":775,"x_min":163,"x_max":613,"o":"m 389 315 q 272 347 322 315 q 192 429 221 378 q 163 542 163 481 q 192 654 163 603 q 272 735 221 706 q 389 765 322 765 q 503 735 453 765 q 583 654 554 706 q 613 542 613 603 q 583 428 613 479 q 503 346 554 376 q 389 315 453 315 z "},"*":{"ha":697,"x_min":56,"x_max":642,"o":"m 228 471 l 131 540 l 257 708 l 56 771 l 92 886 l 292 818 l 288 1028 l 408 1028 l 406 818 l 606 886 l 642 771 l 442 708 l 568 540 l 469 471 l 349 640 l 228 471 z "},"#":{"ha":1139,"x_min":65,"x_max":1072,"o":"m 222 0 l 276 269 l 65 269 l 96 410 l 304 410 l 347 619 l 140 619 l 169 760 l 375 760 l 429 1028 l 569 1028 l 515 760 l 724 760 l 778 1028 l 918 1028 l 864 760 l 1072 760 l 1043 619 l 836 619 l 793 410 l 999 410 l 968 269 l 765 269 l 711 0 l 571 0 l 625 269 l 417 269 l 363 0 l 222 0 m 444 410 l 654 410 l 696 619 l 486 619 l 444 410 z "},"/":{"ha":717,"x_min":53,"x_max":683,"o":"m 53 -224 l 535 1147 l 683 1147 l 200 -224 l 53 -224 z "},"\\":{"ha":694,"x_min":13,"x_max":642,"o":"m 642 -224 l 494 -224 l 13 1147 l 160 1147 l 642 -224 z "},"-":{"ha":844,"x_min":163,"x_max":681,"o":"m 163 369 l 163 499 l 681 499 l 681 369 l 163 369 z "},"­":{"ha":833,"x_min":163,"x_max":681,"o":"m 163 369 l 163 499 l 681 499 l 681 369 l 163 369 z "},"–":{"ha":957,"x_min":163,"x_max":794,"o":"m 163 369 l 163 499 l 794 499 l 794 369 l 163 369 z "},"—":{"ha":1206,"x_min":163,"x_max":1043,"o":"m 163 369 l 163 499 l 1043 499 l 1043 369 l 163 369 z "},"_":{"ha":990,"x_min":163,"x_max":828,"o":"m 163 -121 l 163 0 l 828 0 l 828 -121 l 163 -121 z "},"(":{"ha":617,"x_min":69,"x_max":558,"o":"m 558 -289 q 346 -206 438 -272 q 193 -38 254 -139 q 101 185 132 63 q 69 435 69 307 q 101 685 69 564 q 193 908 132 807 q 346 1075 254 1008 q 558 1158 438 1142 l 558 1014 q 418 943 479 997 q 315 808 357 889 q 252 632 274 728 q 231 435 231 536 q 252 238 231 333 q 315 61 274 142 q 418 -74 357 -19 q 558 -144 479 -128 l 558 -289 z "},")":{"ha":617,"x_min":58,"x_max":547,"o":"m 58 1158 q 271 1075 179 1142 q 424 908 363 1008 q 516 685 485 807 q 547 435 547 563 q 516 184 547 306 q 424 -38 485 63 q 271 -206 363 -139 q 58 -289 179 -272 l 58 -144 q 199 -74 138 -128 q 301 61 260 -19 q 365 238 343 142 q 386 435 386 333 q 365 632 386 536 q 301 808 343 728 q 199 943 260 889 q 58 1014 138 997 l 58 1158 z "},"{":{"ha":617,"x_min":31,"x_max":561,"o":"m 414 -283 q 239 -223 300 -283 q 178 -49 178 -162 l 178 285 q 88 375 178 375 l 31 375 l 31 510 l 88 510 q 178 600 178 510 l 178 933 q 239 1108 178 1047 q 414 1168 300 1168 l 561 1168 l 561 1031 l 429 1031 q 339 940 339 1031 l 339 603 q 319 503 339 539 q 242 446 300 467 l 242 439 q 319 381 300 419 q 339 282 339 343 l 339 -56 q 429 -146 339 -146 l 561 -146 l 561 -283 l 414 -283 z "}}}
